# Tiled2Unity generated file. Do not modify by hand.
# Wavefront file for 'mediumWalls_mesh_0002.obj'

# Vertices (Count = 256)
v -3.2 -6.4 0
v -6.4 -6.4 0
v -6.4 -3.2 0
v -3.2 -3.2 0
v -6.4 -6.4 0
v -9.6 -6.4 0
v -9.6 -3.2 0
v -6.4 -3.2 0
v -9.6 -6.4 0
v -12.8 -6.4 0
v -12.8 -3.2 0
v -9.6 -3.2 0
v -12.8 -6.4 0
v -16 -6.4 0
v -16 -3.2 0
v -12.8 -3.2 0
v -16 -6.4 0
v -19.2 -6.4 0
v -19.2 -3.2 0
v -16 -3.2 0
v -19.2 -6.4 0
v -22.4 -6.4 0
v -22.4 -3.2 0
v -19.2 -3.2 0
v -22.4 -6.4 0
v -25.6 -6.4 0
v -25.6 -3.2 0
v -22.4 -3.2 0
v -25.6 -6.4 0
v -28.8 -6.4 0
v -28.8 -3.2 0
v -25.6 -3.2 0
v -28.8 -6.4 0
v -32 -6.4 0
v -32 -3.2 0
v -28.8 -3.2 0
v -32 -6.4 0
v -35.2 -6.4 0
v -35.2 -3.2 0
v -32 -3.2 0
v -35.2 -6.4 0
v -38.4 -6.4 0
v -38.4 -3.2 0
v -35.2 -3.2 0
v -38.4 -6.4 0
v -41.6 -6.4 0
v -41.6 -3.2 0
v -38.4 -3.2 0
v -41.6 -6.4 0
v -44.8 -6.4 0
v -44.8 -3.2 0
v -41.6 -3.2 0
v -44.8 -6.4 0
v -48 -6.4 0
v -48 -3.2 0
v -44.8 -3.2 0
v -48 -6.4 0
v -51.2 -6.4 0
v -51.2 -3.2 0
v -48 -3.2 0
v -51.2 -6.4 0
v -54.4 -6.4 0
v -54.4 -3.2 0
v -51.2 -3.2 0
v -54.4 -6.4 0
v -57.6 -6.4 0
v -57.6 -3.2 0
v -54.4 -3.2 0
v -3.2 -9.6 0
v -6.4 -9.6 0
v -6.4 -6.4 0
v -3.2 -6.4 0
v -54.4 -9.6 0
v -57.6 -9.6 0
v -57.6 -6.4 0
v -54.4 -6.4 0
v -3.2 -12.8 0
v -6.4 -12.8 0
v -6.4 -9.6 0
v -3.2 -9.6 0
v -54.4 -12.8 0
v -57.6 -12.8 0
v -57.6 -9.6 0
v -54.4 -9.6 0
v -3.2 -16 0
v -6.4 -16 0
v -6.4 -12.8 0
v -3.2 -12.8 0
v -54.4 -16 0
v -57.6 -16 0
v -57.6 -12.8 0
v -54.4 -12.8 0
v -3.2 -19.2 0
v -6.4 -19.2 0
v -6.4 -16 0
v -3.2 -16 0
v -54.4 -19.2 0
v -57.6 -19.2 0
v -57.6 -16 0
v -54.4 -16 0
v -3.2 -22.4 0
v -6.4 -22.4 0
v -6.4 -19.2 0
v -3.2 -19.2 0
v -54.4 -22.4 0
v -57.6 -22.4 0
v -57.6 -19.2 0
v -54.4 -19.2 0
v -3.2 -25.6 0
v -6.4 -25.6 0
v -6.4 -22.4 0
v -3.2 -22.4 0
v -54.4 -25.6 0
v -57.6 -25.6 0
v -57.6 -22.4 0
v -54.4 -22.4 0
v -3.2 -28.8 0
v -6.4 -28.8 0
v -6.4 -25.6 0
v -3.2 -25.6 0
v -54.4 -28.8 0
v -57.6 -28.8 0
v -57.6 -25.6 0
v -54.4 -25.6 0
v -3.2 -32 0
v -6.4 -32 0
v -6.4 -28.8 0
v -3.2 -28.8 0
v -54.4 -32 0
v -57.6 -32 0
v -57.6 -28.8 0
v -54.4 -28.8 0
v -3.2 -35.2 0
v -6.4 -35.2 0
v -6.4 -32 0
v -3.2 -32 0
v -54.4 -35.2 0
v -57.6 -35.2 0
v -57.6 -32 0
v -54.4 -32 0
v -3.2 -38.4 0
v -6.4 -38.4 0
v -6.4 -35.2 0
v -3.2 -35.2 0
v -54.4 -38.4 0
v -57.6 -38.4 0
v -57.6 -35.2 0
v -54.4 -35.2 0
v -3.2 -41.6 0
v -6.4 -41.6 0
v -6.4 -38.4 0
v -3.2 -38.4 0
v -54.4 -41.6 0
v -57.6 -41.6 0
v -57.6 -38.4 0
v -54.4 -38.4 0
v -3.2 -44.8 0
v -6.4 -44.8 0
v -6.4 -41.6 0
v -3.2 -41.6 0
v -54.4 -44.8 0
v -57.6 -44.8 0
v -57.6 -41.6 0
v -54.4 -41.6 0
v -3.2 -48 0
v -6.4 -48 0
v -6.4 -44.8 0
v -3.2 -44.8 0
v -54.4 -48 0
v -57.6 -48 0
v -57.6 -44.8 0
v -54.4 -44.8 0
v -3.2 -51.2 0
v -6.4 -51.2 0
v -6.4 -48 0
v -3.2 -48 0
v -54.4 -51.2 0
v -57.6 -51.2 0
v -57.6 -48 0
v -54.4 -48 0
v -3.2 -54.4 0
v -6.4 -54.4 0
v -6.4 -51.2 0
v -3.2 -51.2 0
v -54.4 -54.4 0
v -57.6 -54.4 0
v -57.6 -51.2 0
v -54.4 -51.2 0
v -3.2 -57.6 0
v -6.4 -57.6 0
v -6.4 -54.4 0
v -3.2 -54.4 0
v -6.4 -57.6 0
v -9.6 -57.6 0
v -9.6 -54.4 0
v -6.4 -54.4 0
v -9.6 -57.6 0
v -12.8 -57.6 0
v -12.8 -54.4 0
v -9.6 -54.4 0
v -12.8 -57.6 0
v -16 -57.6 0
v -16 -54.4 0
v -12.8 -54.4 0
v -16 -57.6 0
v -19.2 -57.6 0
v -19.2 -54.4 0
v -16 -54.4 0
v -19.2 -57.6 0
v -22.4 -57.6 0
v -22.4 -54.4 0
v -19.2 -54.4 0
v -22.4 -57.6 0
v -25.6 -57.6 0
v -25.6 -54.4 0
v -22.4 -54.4 0
v -25.6 -57.6 0
v -28.8 -57.6 0
v -28.8 -54.4 0
v -25.6 -54.4 0
v -28.8 -57.6 0
v -32 -57.6 0
v -32 -54.4 0
v -28.8 -54.4 0
v -32 -57.6 0
v -35.2 -57.6 0
v -35.2 -54.4 0
v -32 -54.4 0
v -35.2 -57.6 0
v -38.4 -57.6 0
v -38.4 -54.4 0
v -35.2 -54.4 0
v -38.4 -57.6 0
v -41.6 -57.6 0
v -41.6 -54.4 0
v -38.4 -54.4 0
v -41.6 -57.6 0
v -44.8 -57.6 0
v -44.8 -54.4 0
v -41.6 -54.4 0
v -44.8 -57.6 0
v -48 -57.6 0
v -48 -54.4 0
v -44.8 -54.4 0
v -48 -57.6 0
v -51.2 -57.6 0
v -51.2 -54.4 0
v -48 -54.4 0
v -51.2 -57.6 0
v -54.4 -57.6 0
v -54.4 -54.4 0
v -51.2 -54.4 0
v -54.4 -57.6 0
v -57.6 -57.6 0
v -57.6 -54.4 0
v -54.4 -54.4 0

# Texture cooridinates (Count = 17)
vt 0 0.9
vt 0.1 0.9
vt 0.1 1
vt 0 1
vt 0.4 0.9
vt 0.5 0.9
vt 0.5 1
vt 0.4 1
vt 0.2 0.9
vt 0.2 1
vt 0.3 0.9
vt 0.3 1
vt 0 0.8
vt 0.1 0.8
vt 0.6 0.9
vt 0.6 1
vt 0.2 0.8

# Normal
vn 0 0 -1

# Mesh description
g mediumWalls_mesh_0002

# Faces
f 1/1/1 2/2/1 3/3/1 4/4/1
f 5/5/1 6/6/1 7/7/1 8/8/1
f 9/5/1 10/6/1 11/7/1 12/8/1
f 13/5/1 14/6/1 15/7/1 16/8/1
f 17/5/1 18/6/1 19/7/1 20/8/1
f 21/5/1 22/6/1 23/7/1 24/8/1
f 25/5/1 26/6/1 27/7/1 28/8/1
f 29/5/1 30/6/1 31/7/1 32/8/1
f 33/5/1 34/6/1 35/7/1 36/8/1
f 37/5/1 38/6/1 39/7/1 40/8/1
f 41/5/1 42/6/1 43/7/1 44/8/1
f 45/5/1 46/6/1 47/7/1 48/8/1
f 49/5/1 50/6/1 51/7/1 52/8/1
f 53/5/1 54/6/1 55/7/1 56/8/1
f 57/5/1 58/6/1 59/7/1 60/8/1
f 61/5/1 62/6/1 63/7/1 64/8/1
f 65/2/1 66/9/1 67/10/1 68/3/1
f 69/9/1 70/11/1 71/12/1 72/10/1
f 73/11/1 74/5/1 75/8/1 76/12/1
f 77/9/1 78/11/1 79/12/1 80/10/1
f 81/11/1 82/5/1 83/8/1 84/12/1
f 85/9/1 86/11/1 87/12/1 88/10/1
f 89/11/1 90/5/1 91/8/1 92/12/1
f 93/9/1 94/11/1 95/12/1 96/10/1
f 97/11/1 98/5/1 99/8/1 100/12/1
f 101/9/1 102/11/1 103/12/1 104/10/1
f 105/11/1 106/5/1 107/8/1 108/12/1
f 109/9/1 110/11/1 111/12/1 112/10/1
f 113/11/1 114/5/1 115/8/1 116/12/1
f 117/9/1 118/11/1 119/12/1 120/10/1
f 121/11/1 122/5/1 123/8/1 124/12/1
f 125/9/1 126/11/1 127/12/1 128/10/1
f 129/11/1 130/5/1 131/8/1 132/12/1
f 133/9/1 134/11/1 135/12/1 136/10/1
f 137/11/1 138/5/1 139/8/1 140/12/1
f 141/9/1 142/11/1 143/12/1 144/10/1
f 145/11/1 146/5/1 147/8/1 148/12/1
f 149/9/1 150/11/1 151/12/1 152/10/1
f 153/11/1 154/5/1 155/8/1 156/12/1
f 157/9/1 158/11/1 159/12/1 160/10/1
f 161/11/1 162/5/1 163/8/1 164/12/1
f 165/9/1 166/11/1 167/12/1 168/10/1
f 169/11/1 170/5/1 171/8/1 172/12/1
f 173/9/1 174/11/1 175/12/1 176/10/1
f 177/11/1 178/5/1 179/8/1 180/12/1
f 181/9/1 182/11/1 183/12/1 184/10/1
f 185/11/1 186/5/1 187/8/1 188/12/1
f 189/13/1 190/14/1 191/2/1 192/1/1
f 193/6/1 194/15/1 195/16/1 196/7/1
f 197/6/1 198/15/1 199/16/1 200/7/1
f 201/6/1 202/15/1 203/16/1 204/7/1
f 205/6/1 206/15/1 207/16/1 208/7/1
f 209/6/1 210/15/1 211/16/1 212/7/1
f 213/6/1 214/15/1 215/16/1 216/7/1
f 217/6/1 218/15/1 219/16/1 220/7/1
f 221/6/1 222/15/1 223/16/1 224/7/1
f 225/6/1 226/15/1 227/16/1 228/7/1
f 229/6/1 230/15/1 231/16/1 232/7/1
f 233/6/1 234/15/1 235/16/1 236/7/1
f 237/6/1 238/15/1 239/16/1 240/7/1
f 241/6/1 242/15/1 243/16/1 244/7/1
f 245/6/1 246/15/1 247/16/1 248/7/1
f 249/6/1 250/15/1 251/16/1 252/7/1
f 253/14/1 254/17/1 255/9/1 256/2/1

