# Tiled2Unity generated file. Do not modify by hand.
# Wavefront file for 'mediumRoomDemo_mesh_0001.obj'

# Vertices (Count = 544)
v 0 -3.2 0
v -3.2 -3.2 0
v -3.2 0 0
v 0 0 0
v -3.2 -3.2 0
v -6.4 -3.2 0
v -6.4 0 0
v -3.2 0 0
v -6.4 -3.2 0
v -9.6 -3.2 0
v -9.6 0 0
v -6.4 0 0
v -9.6 -3.2 0
v -12.8 -3.2 0
v -12.8 0 0
v -9.6 0 0
v -12.8 -3.2 0
v -16 -3.2 0
v -16 0 0
v -12.8 0 0
v -16 -3.2 0
v -19.2 -3.2 0
v -19.2 0 0
v -16 0 0
v -19.2 -3.2 0
v -22.4 -3.2 0
v -22.4 0 0
v -19.2 0 0
v -22.4 -3.2 0
v -25.6 -3.2 0
v -25.6 0 0
v -22.4 0 0
v -25.6 -3.2 0
v -28.8 -3.2 0
v -28.8 0 0
v -25.6 0 0
v -28.8 -3.2 0
v -32 -3.2 0
v -32 0 0
v -28.8 0 0
v -32 -3.2 0
v -35.2 -3.2 0
v -35.2 0 0
v -32 0 0
v -35.2 -3.2 0
v -38.4 -3.2 0
v -38.4 0 0
v -35.2 0 0
v -38.4 -3.2 0
v -41.6 -3.2 0
v -41.6 0 0
v -38.4 0 0
v -41.6 -3.2 0
v -44.8 -3.2 0
v -44.8 0 0
v -41.6 0 0
v -44.8 -3.2 0
v -48 -3.2 0
v -48 0 0
v -44.8 0 0
v -48 -3.2 0
v -51.2 -3.2 0
v -51.2 0 0
v -48 0 0
v -51.2 -3.2 0
v -54.4 -3.2 0
v -54.4 0 0
v -51.2 0 0
v -54.4 -3.2 0
v -57.6 -3.2 0
v -57.6 0 0
v -54.4 0 0
v -57.6 -3.2 0
v -60.8 -3.2 0
v -60.8 0 0
v -57.6 0 0
v 0 -6.4 0
v -3.2 -6.4 0
v -3.2 -3.2 0
v 0 -3.2 0
v -3.2 -6.4 0
v -6.4 -6.4 0
v -6.4 -3.2 0
v -3.2 -3.2 0
v -6.4 -6.4 0
v -9.6 -6.4 0
v -9.6 -3.2 0
v -6.4 -3.2 0
v -9.6 -6.4 0
v -12.8 -6.4 0
v -12.8 -3.2 0
v -9.6 -3.2 0
v -12.8 -6.4 0
v -16 -6.4 0
v -16 -3.2 0
v -12.8 -3.2 0
v -16 -6.4 0
v -19.2 -6.4 0
v -19.2 -3.2 0
v -16 -3.2 0
v -19.2 -6.4 0
v -22.4 -6.4 0
v -22.4 -3.2 0
v -19.2 -3.2 0
v -22.4 -6.4 0
v -25.6 -6.4 0
v -25.6 -3.2 0
v -22.4 -3.2 0
v -25.6 -6.4 0
v -28.8 -6.4 0
v -28.8 -3.2 0
v -25.6 -3.2 0
v -28.8 -6.4 0
v -32 -6.4 0
v -32 -3.2 0
v -28.8 -3.2 0
v -32 -6.4 0
v -35.2 -6.4 0
v -35.2 -3.2 0
v -32 -3.2 0
v -35.2 -6.4 0
v -38.4 -6.4 0
v -38.4 -3.2 0
v -35.2 -3.2 0
v -38.4 -6.4 0
v -41.6 -6.4 0
v -41.6 -3.2 0
v -38.4 -3.2 0
v -41.6 -6.4 0
v -44.8 -6.4 0
v -44.8 -3.2 0
v -41.6 -3.2 0
v -44.8 -6.4 0
v -48 -6.4 0
v -48 -3.2 0
v -44.8 -3.2 0
v -48 -6.4 0
v -51.2 -6.4 0
v -51.2 -3.2 0
v -48 -3.2 0
v -51.2 -6.4 0
v -54.4 -6.4 0
v -54.4 -3.2 0
v -51.2 -3.2 0
v -54.4 -6.4 0
v -57.6 -6.4 0
v -57.6 -3.2 0
v -54.4 -3.2 0
v -57.6 -6.4 0
v -60.8 -6.4 0
v -60.8 -3.2 0
v -57.6 -3.2 0
v 0 -9.6 0
v -3.2 -9.6 0
v -3.2 -6.4 0
v 0 -6.4 0
v -3.2 -9.6 0
v -6.4 -9.6 0
v -6.4 -6.4 0
v -3.2 -6.4 0
v -54.4 -9.6 0
v -57.6 -9.6 0
v -57.6 -6.4 0
v -54.4 -6.4 0
v -57.6 -9.6 0
v -60.8 -9.6 0
v -60.8 -6.4 0
v -57.6 -6.4 0
v 0 -12.8 0
v -3.2 -12.8 0
v -3.2 -9.6 0
v 0 -9.6 0
v -3.2 -12.8 0
v -6.4 -12.8 0
v -6.4 -9.6 0
v -3.2 -9.6 0
v -54.4 -12.8 0
v -57.6 -12.8 0
v -57.6 -9.6 0
v -54.4 -9.6 0
v -57.6 -12.8 0
v -60.8 -12.8 0
v -60.8 -9.6 0
v -57.6 -9.6 0
v 0 -16 0
v -3.2 -16 0
v -3.2 -12.8 0
v 0 -12.8 0
v -3.2 -16 0
v -6.4 -16 0
v -6.4 -12.8 0
v -3.2 -12.8 0
v -54.4 -16 0
v -57.6 -16 0
v -57.6 -12.8 0
v -54.4 -12.8 0
v -57.6 -16 0
v -60.8 -16 0
v -60.8 -12.8 0
v -57.6 -12.8 0
v 0 -19.2 0
v -3.2 -19.2 0
v -3.2 -16 0
v 0 -16 0
v -3.2 -19.2 0
v -6.4 -19.2 0
v -6.4 -16 0
v -3.2 -16 0
v -54.4 -19.2 0
v -57.6 -19.2 0
v -57.6 -16 0
v -54.4 -16 0
v -57.6 -19.2 0
v -60.8 -19.2 0
v -60.8 -16 0
v -57.6 -16 0
v 0 -22.4 0
v -3.2 -22.4 0
v -3.2 -19.2 0
v 0 -19.2 0
v -3.2 -22.4 0
v -6.4 -22.4 0
v -6.4 -19.2 0
v -3.2 -19.2 0
v -54.4 -22.4 0
v -57.6 -22.4 0
v -57.6 -19.2 0
v -54.4 -19.2 0
v -57.6 -22.4 0
v -60.8 -22.4 0
v -60.8 -19.2 0
v -57.6 -19.2 0
v 0 -25.6 0
v -3.2 -25.6 0
v -3.2 -22.4 0
v 0 -22.4 0
v -3.2 -25.6 0
v -6.4 -25.6 0
v -6.4 -22.4 0
v -3.2 -22.4 0
v -54.4 -25.6 0
v -57.6 -25.6 0
v -57.6 -22.4 0
v -54.4 -22.4 0
v -57.6 -25.6 0
v -60.8 -25.6 0
v -60.8 -22.4 0
v -57.6 -22.4 0
v 0 -28.8 0
v -3.2 -28.8 0
v -3.2 -25.6 0
v 0 -25.6 0
v -3.2 -28.8 0
v -6.4 -28.8 0
v -6.4 -25.6 0
v -3.2 -25.6 0
v -54.4 -28.8 0
v -57.6 -28.8 0
v -57.6 -25.6 0
v -54.4 -25.6 0
v -57.6 -28.8 0
v -60.8 -28.8 0
v -60.8 -25.6 0
v -57.6 -25.6 0
v 0 -32 0
v -3.2 -32 0
v -3.2 -28.8 0
v 0 -28.8 0
v -3.2 -32 0
v -6.4 -32 0
v -6.4 -28.8 0
v -3.2 -28.8 0
v -54.4 -32 0
v -57.6 -32 0
v -57.6 -28.8 0
v -54.4 -28.8 0
v -57.6 -32 0
v -60.8 -32 0
v -60.8 -28.8 0
v -57.6 -28.8 0
v 0 -35.2 0
v -3.2 -35.2 0
v -3.2 -32 0
v 0 -32 0
v -3.2 -35.2 0
v -6.4 -35.2 0
v -6.4 -32 0
v -3.2 -32 0
v -54.4 -35.2 0
v -57.6 -35.2 0
v -57.6 -32 0
v -54.4 -32 0
v -57.6 -35.2 0
v -60.8 -35.2 0
v -60.8 -32 0
v -57.6 -32 0
v 0 -38.4 0
v -3.2 -38.4 0
v -3.2 -35.2 0
v 0 -35.2 0
v -3.2 -38.4 0
v -6.4 -38.4 0
v -6.4 -35.2 0
v -3.2 -35.2 0
v -54.4 -38.4 0
v -57.6 -38.4 0
v -57.6 -35.2 0
v -54.4 -35.2 0
v -57.6 -38.4 0
v -60.8 -38.4 0
v -60.8 -35.2 0
v -57.6 -35.2 0
v 0 -41.6 0
v -3.2 -41.6 0
v -3.2 -38.4 0
v 0 -38.4 0
v -3.2 -41.6 0
v -6.4 -41.6 0
v -6.4 -38.4 0
v -3.2 -38.4 0
v -54.4 -41.6 0
v -57.6 -41.6 0
v -57.6 -38.4 0
v -54.4 -38.4 0
v -57.6 -41.6 0
v -60.8 -41.6 0
v -60.8 -38.4 0
v -57.6 -38.4 0
v 0 -44.8 0
v -3.2 -44.8 0
v -3.2 -41.6 0
v 0 -41.6 0
v -3.2 -44.8 0
v -6.4 -44.8 0
v -6.4 -41.6 0
v -3.2 -41.6 0
v -54.4 -44.8 0
v -57.6 -44.8 0
v -57.6 -41.6 0
v -54.4 -41.6 0
v -57.6 -44.8 0
v -60.8 -44.8 0
v -60.8 -41.6 0
v -57.6 -41.6 0
v 0 -48 0
v -3.2 -48 0
v -3.2 -44.8 0
v 0 -44.8 0
v -3.2 -48 0
v -6.4 -48 0
v -6.4 -44.8 0
v -3.2 -44.8 0
v -54.4 -48 0
v -57.6 -48 0
v -57.6 -44.8 0
v -54.4 -44.8 0
v -57.6 -48 0
v -60.8 -48 0
v -60.8 -44.8 0
v -57.6 -44.8 0
v 0 -51.2 0
v -3.2 -51.2 0
v -3.2 -48 0
v 0 -48 0
v -3.2 -51.2 0
v -6.4 -51.2 0
v -6.4 -48 0
v -3.2 -48 0
v -54.4 -51.2 0
v -57.6 -51.2 0
v -57.6 -48 0
v -54.4 -48 0
v -57.6 -51.2 0
v -60.8 -51.2 0
v -60.8 -48 0
v -57.6 -48 0
v 0 -54.4 0
v -3.2 -54.4 0
v -3.2 -51.2 0
v 0 -51.2 0
v -3.2 -54.4 0
v -6.4 -54.4 0
v -6.4 -51.2 0
v -3.2 -51.2 0
v -54.4 -54.4 0
v -57.6 -54.4 0
v -57.6 -51.2 0
v -54.4 -51.2 0
v -57.6 -54.4 0
v -60.8 -54.4 0
v -60.8 -51.2 0
v -57.6 -51.2 0
v 0 -57.6 0
v -3.2 -57.6 0
v -3.2 -54.4 0
v 0 -54.4 0
v -3.2 -57.6 0
v -6.4 -57.6 0
v -6.4 -54.4 0
v -3.2 -54.4 0
v -6.4 -57.6 0
v -9.6 -57.6 0
v -9.6 -54.4 0
v -6.4 -54.4 0
v -9.6 -57.6 0
v -12.8 -57.6 0
v -12.8 -54.4 0
v -9.6 -54.4 0
v -12.8 -57.6 0
v -16 -57.6 0
v -16 -54.4 0
v -12.8 -54.4 0
v -16 -57.6 0
v -19.2 -57.6 0
v -19.2 -54.4 0
v -16 -54.4 0
v -19.2 -57.6 0
v -22.4 -57.6 0
v -22.4 -54.4 0
v -19.2 -54.4 0
v -22.4 -57.6 0
v -25.6 -57.6 0
v -25.6 -54.4 0
v -22.4 -54.4 0
v -25.6 -57.6 0
v -28.8 -57.6 0
v -28.8 -54.4 0
v -25.6 -54.4 0
v -28.8 -57.6 0
v -32 -57.6 0
v -32 -54.4 0
v -28.8 -54.4 0
v -32 -57.6 0
v -35.2 -57.6 0
v -35.2 -54.4 0
v -32 -54.4 0
v -35.2 -57.6 0
v -38.4 -57.6 0
v -38.4 -54.4 0
v -35.2 -54.4 0
v -38.4 -57.6 0
v -41.6 -57.6 0
v -41.6 -54.4 0
v -38.4 -54.4 0
v -41.6 -57.6 0
v -44.8 -57.6 0
v -44.8 -54.4 0
v -41.6 -54.4 0
v -44.8 -57.6 0
v -48 -57.6 0
v -48 -54.4 0
v -44.8 -54.4 0
v -48 -57.6 0
v -51.2 -57.6 0
v -51.2 -54.4 0
v -48 -54.4 0
v -51.2 -57.6 0
v -54.4 -57.6 0
v -54.4 -54.4 0
v -51.2 -54.4 0
v -54.4 -57.6 0
v -57.6 -57.6 0
v -57.6 -54.4 0
v -54.4 -54.4 0
v -57.6 -57.6 0
v -60.8 -57.6 0
v -60.8 -54.4 0
v -57.6 -54.4 0
v 0 -60.8 0
v -3.2 -60.8 0
v -3.2 -57.6 0
v 0 -57.6 0
v -3.2 -60.8 0
v -6.4 -60.8 0
v -6.4 -57.6 0
v -3.2 -57.6 0
v -6.4 -60.8 0
v -9.6 -60.8 0
v -9.6 -57.6 0
v -6.4 -57.6 0
v -9.6 -60.8 0
v -12.8 -60.8 0
v -12.8 -57.6 0
v -9.6 -57.6 0
v -12.8 -60.8 0
v -16 -60.8 0
v -16 -57.6 0
v -12.8 -57.6 0
v -16 -60.8 0
v -19.2 -60.8 0
v -19.2 -57.6 0
v -16 -57.6 0
v -19.2 -60.8 0
v -22.4 -60.8 0
v -22.4 -57.6 0
v -19.2 -57.6 0
v -22.4 -60.8 0
v -25.6 -60.8 0
v -25.6 -57.6 0
v -22.4 -57.6 0
v -25.6 -60.8 0
v -28.8 -60.8 0
v -28.8 -57.6 0
v -25.6 -57.6 0
v -28.8 -60.8 0
v -32 -60.8 0
v -32 -57.6 0
v -28.8 -57.6 0
v -32 -60.8 0
v -35.2 -60.8 0
v -35.2 -57.6 0
v -32 -57.6 0
v -35.2 -60.8 0
v -38.4 -60.8 0
v -38.4 -57.6 0
v -35.2 -57.6 0
v -38.4 -60.8 0
v -41.6 -60.8 0
v -41.6 -57.6 0
v -38.4 -57.6 0
v -41.6 -60.8 0
v -44.8 -60.8 0
v -44.8 -57.6 0
v -41.6 -57.6 0
v -44.8 -60.8 0
v -48 -60.8 0
v -48 -57.6 0
v -44.8 -57.6 0
v -48 -60.8 0
v -51.2 -60.8 0
v -51.2 -57.6 0
v -48 -57.6 0
v -51.2 -60.8 0
v -54.4 -60.8 0
v -54.4 -57.6 0
v -51.2 -57.6 0
v -54.4 -60.8 0
v -57.6 -60.8 0
v -57.6 -57.6 0
v -54.4 -57.6 0
v -57.6 -60.8 0
v -60.8 -60.8 0
v -60.8 -57.6 0
v -57.6 -57.6 0

# Texture cooridinates (Count = 8)
vt 0.78125 0.875
vt 0.8125 0.875
vt 0.8125 0.90625
vt 0.78125 0.90625
vt 0.3125 0.875
vt 0.34375 0.875
vt 0.34375 0.90625
vt 0.3125 0.90625

# Normal
vn 0 0 -1

# Mesh description
g mediumRoomDemo_mesh_0001

# Faces
f 1/1/1 2/2/1 3/3/1 4/4/1
f 5/1/1 6/2/1 7/3/1 8/4/1
f 9/1/1 10/2/1 11/3/1 12/4/1
f 13/1/1 14/2/1 15/3/1 16/4/1
f 17/1/1 18/2/1 19/3/1 20/4/1
f 21/1/1 22/2/1 23/3/1 24/4/1
f 25/1/1 26/2/1 27/3/1 28/4/1
f 29/1/1 30/2/1 31/3/1 32/4/1
f 33/1/1 34/2/1 35/3/1 36/4/1
f 37/1/1 38/2/1 39/3/1 40/4/1
f 41/1/1 42/2/1 43/3/1 44/4/1
f 45/1/1 46/2/1 47/3/1 48/4/1
f 49/1/1 50/2/1 51/3/1 52/4/1
f 53/1/1 54/2/1 55/3/1 56/4/1
f 57/1/1 58/2/1 59/3/1 60/4/1
f 61/1/1 62/2/1 63/3/1 64/4/1
f 65/1/1 66/2/1 67/3/1 68/4/1
f 69/1/1 70/2/1 71/3/1 72/4/1
f 73/1/1 74/2/1 75/3/1 76/4/1
f 77/1/1 78/2/1 79/3/1 80/4/1
f 81/5/1 82/6/1 83/7/1 84/8/1
f 85/5/1 86/6/1 87/7/1 88/8/1
f 89/5/1 90/6/1 91/7/1 92/8/1
f 93/5/1 94/6/1 95/7/1 96/8/1
f 97/5/1 98/6/1 99/7/1 100/8/1
f 101/5/1 102/6/1 103/7/1 104/8/1
f 105/5/1 106/6/1 107/7/1 108/8/1
f 109/5/1 110/6/1 111/7/1 112/8/1
f 113/5/1 114/6/1 115/7/1 116/8/1
f 117/5/1 118/6/1 119/7/1 120/8/1
f 121/5/1 122/6/1 123/7/1 124/8/1
f 125/5/1 126/6/1 127/7/1 128/8/1
f 129/5/1 130/6/1 131/7/1 132/8/1
f 133/5/1 134/6/1 135/7/1 136/8/1
f 137/5/1 138/6/1 139/7/1 140/8/1
f 141/5/1 142/6/1 143/7/1 144/8/1
f 145/5/1 146/6/1 147/7/1 148/8/1
f 149/1/1 150/2/1 151/3/1 152/4/1
f 153/1/1 154/2/1 155/3/1 156/4/1
f 157/5/1 158/6/1 159/7/1 160/8/1
f 161/5/1 162/6/1 163/7/1 164/8/1
f 165/1/1 166/2/1 167/3/1 168/4/1
f 169/1/1 170/2/1 171/3/1 172/4/1
f 173/5/1 174/6/1 175/7/1 176/8/1
f 177/5/1 178/6/1 179/7/1 180/8/1
f 181/1/1 182/2/1 183/3/1 184/4/1
f 185/1/1 186/2/1 187/3/1 188/4/1
f 189/5/1 190/6/1 191/7/1 192/8/1
f 193/5/1 194/6/1 195/7/1 196/8/1
f 197/1/1 198/2/1 199/3/1 200/4/1
f 201/1/1 202/2/1 203/3/1 204/4/1
f 205/5/1 206/6/1 207/7/1 208/8/1
f 209/5/1 210/6/1 211/7/1 212/8/1
f 213/1/1 214/2/1 215/3/1 216/4/1
f 217/1/1 218/2/1 219/3/1 220/4/1
f 221/5/1 222/6/1 223/7/1 224/8/1
f 225/5/1 226/6/1 227/7/1 228/8/1
f 229/1/1 230/2/1 231/3/1 232/4/1
f 233/1/1 234/2/1 235/3/1 236/4/1
f 237/5/1 238/6/1 239/7/1 240/8/1
f 241/5/1 242/6/1 243/7/1 244/8/1
f 245/1/1 246/2/1 247/3/1 248/4/1
f 249/1/1 250/2/1 251/3/1 252/4/1
f 253/5/1 254/6/1 255/7/1 256/8/1
f 257/5/1 258/6/1 259/7/1 260/8/1
f 261/1/1 262/2/1 263/3/1 264/4/1
f 265/1/1 266/2/1 267/3/1 268/4/1
f 269/5/1 270/6/1 271/7/1 272/8/1
f 273/5/1 274/6/1 275/7/1 276/8/1
f 277/1/1 278/2/1 279/3/1 280/4/1
f 281/1/1 282/2/1 283/3/1 284/4/1
f 285/5/1 286/6/1 287/7/1 288/8/1
f 289/5/1 290/6/1 291/7/1 292/8/1
f 293/1/1 294/2/1 295/3/1 296/4/1
f 297/1/1 298/2/1 299/3/1 300/4/1
f 301/5/1 302/6/1 303/7/1 304/8/1
f 305/5/1 306/6/1 307/7/1 308/8/1
f 309/1/1 310/2/1 311/3/1 312/4/1
f 313/1/1 314/2/1 315/3/1 316/4/1
f 317/5/1 318/6/1 319/7/1 320/8/1
f 321/5/1 322/6/1 323/7/1 324/8/1
f 325/1/1 326/2/1 327/3/1 328/4/1
f 329/1/1 330/2/1 331/3/1 332/4/1
f 333/5/1 334/6/1 335/7/1 336/8/1
f 337/5/1 338/6/1 339/7/1 340/8/1
f 341/1/1 342/2/1 343/3/1 344/4/1
f 345/1/1 346/2/1 347/3/1 348/4/1
f 349/5/1 350/6/1 351/7/1 352/8/1
f 353/5/1 354/6/1 355/7/1 356/8/1
f 357/1/1 358/2/1 359/3/1 360/4/1
f 361/1/1 362/2/1 363/3/1 364/4/1
f 365/5/1 366/6/1 367/7/1 368/8/1
f 369/5/1 370/6/1 371/7/1 372/8/1
f 373/1/1 374/2/1 375/3/1 376/4/1
f 377/1/1 378/2/1 379/3/1 380/4/1
f 381/5/1 382/6/1 383/7/1 384/8/1
f 385/5/1 386/6/1 387/7/1 388/8/1
f 389/1/1 390/2/1 391/3/1 392/4/1
f 393/1/1 394/2/1 395/3/1 396/4/1
f 397/5/1 398/6/1 399/7/1 400/8/1
f 401/5/1 402/6/1 403/7/1 404/8/1
f 405/5/1 406/6/1 407/7/1 408/8/1
f 409/5/1 410/6/1 411/7/1 412/8/1
f 413/5/1 414/6/1 415/7/1 416/8/1
f 417/5/1 418/6/1 419/7/1 420/8/1
f 421/5/1 422/6/1 423/7/1 424/8/1
f 425/5/1 426/6/1 427/7/1 428/8/1
f 429/5/1 430/6/1 431/7/1 432/8/1
f 433/5/1 434/6/1 435/7/1 436/8/1
f 437/5/1 438/6/1 439/7/1 440/8/1
f 441/5/1 442/6/1 443/7/1 444/8/1
f 445/5/1 446/6/1 447/7/1 448/8/1
f 449/5/1 450/6/1 451/7/1 452/8/1
f 453/5/1 454/6/1 455/7/1 456/8/1
f 457/5/1 458/6/1 459/7/1 460/8/1
f 461/5/1 462/6/1 463/7/1 464/8/1
f 465/1/1 466/2/1 467/3/1 468/4/1
f 469/1/1 470/2/1 471/3/1 472/4/1
f 473/1/1 474/2/1 475/3/1 476/4/1
f 477/1/1 478/2/1 479/3/1 480/4/1
f 481/1/1 482/2/1 483/3/1 484/4/1
f 485/1/1 486/2/1 487/3/1 488/4/1
f 489/1/1 490/2/1 491/3/1 492/4/1
f 493/1/1 494/2/1 495/3/1 496/4/1
f 497/1/1 498/2/1 499/3/1 500/4/1
f 501/1/1 502/2/1 503/3/1 504/4/1
f 505/1/1 506/2/1 507/3/1 508/4/1
f 509/1/1 510/2/1 511/3/1 512/4/1
f 513/1/1 514/2/1 515/3/1 516/4/1
f 517/1/1 518/2/1 519/3/1 520/4/1
f 521/1/1 522/2/1 523/3/1 524/4/1
f 525/1/1 526/2/1 527/3/1 528/4/1
f 529/1/1 530/2/1 531/3/1 532/4/1
f 533/1/1 534/2/1 535/3/1 536/4/1
f 537/1/1 538/2/1 539/3/1 540/4/1
f 541/1/1 542/2/1 543/3/1 544/4/1

