# Tiled2Unity generated file. Do not modify by hand.
# Wavefront file for 'mediumRoomDemo_mesh_0002.obj'

# Vertices (Count = 100)
v -6.4 -16 0
v -16 -16 0
v -16 -6.4 0
v -6.4 -6.4 0
v -16 -16 0
v -25.6 -16 0
v -25.6 -6.4 0
v -16 -6.4 0
v -25.6 -16 0
v -35.2 -16 0
v -35.2 -6.4 0
v -25.6 -6.4 0
v -35.2 -16 0
v -44.8 -16 0
v -44.8 -6.4 0
v -35.2 -6.4 0
v -44.8 -16 0
v -54.4 -16 0
v -54.4 -6.4 0
v -44.8 -6.4 0
v -6.4 -25.6 0
v -16 -25.6 0
v -16 -16 0
v -6.4 -16 0
v -16 -25.6 0
v -25.6 -25.6 0
v -25.6 -16 0
v -16 -16 0
v -25.6 -25.6 0
v -35.2 -25.6 0
v -35.2 -16 0
v -25.6 -16 0
v -35.2 -25.6 0
v -44.8 -25.6 0
v -44.8 -16 0
v -35.2 -16 0
v -44.8 -25.6 0
v -54.4 -25.6 0
v -54.4 -16 0
v -44.8 -16 0
v -6.4 -35.2 0
v -16 -35.2 0
v -16 -25.6 0
v -6.4 -25.6 0
v -16 -35.2 0
v -25.6 -35.2 0
v -25.6 -25.6 0
v -16 -25.6 0
v -25.6 -35.2 0
v -35.2 -35.2 0
v -35.2 -25.6 0
v -25.6 -25.6 0
v -35.2 -35.2 0
v -44.8 -35.2 0
v -44.8 -25.6 0
v -35.2 -25.6 0
v -44.8 -35.2 0
v -54.4 -35.2 0
v -54.4 -25.6 0
v -44.8 -25.6 0
v -6.4 -44.8 0
v -16 -44.8 0
v -16 -35.2 0
v -6.4 -35.2 0
v -16 -44.8 0
v -25.6 -44.8 0
v -25.6 -35.2 0
v -16 -35.2 0
v -25.6 -44.8 0
v -35.2 -44.8 0
v -35.2 -35.2 0
v -25.6 -35.2 0
v -35.2 -44.8 0
v -44.8 -44.8 0
v -44.8 -35.2 0
v -35.2 -35.2 0
v -44.8 -44.8 0
v -54.4 -44.8 0
v -54.4 -35.2 0
v -44.8 -35.2 0
v -6.4 -54.4 0
v -16 -54.4 0
v -16 -44.8 0
v -6.4 -44.8 0
v -16 -54.4 0
v -25.6 -54.4 0
v -25.6 -44.8 0
v -16 -44.8 0
v -25.6 -54.4 0
v -35.2 -54.4 0
v -35.2 -44.8 0
v -25.6 -44.8 0
v -35.2 -54.4 0
v -44.8 -54.4 0
v -44.8 -44.8 0
v -35.2 -44.8 0
v -44.8 -54.4 0
v -54.4 -54.4 0
v -54.4 -44.8 0
v -44.8 -44.8 0

# Texture cooridinates (Count = 84)
vt 0.1758242 0.5090909
vt 0.2087912 0.5090909
vt 0.2087912 0.5636364
vt 0.1758242 0.5636364
vt 0.1758242 0.8
vt 0.2087912 0.8
vt 0.2087912 0.8545455
vt 0.1758242 0.8545455
vt 0.2197802 0.1454545
vt 0.2527473 0.1454545
vt 0.2527473 0.2
vt 0.2197802 0.2
vt 0 0.9454545
vt 0.03296703 0.9454545
vt 0.03296703 1
vt 0 1
vt 0.1758242 0.9454545
vt 0.2087912 0.9454545
vt 0.2087912 1
vt 0.1758242 1
vt 0.2637363 0.8
vt 0.2967033 0.8
vt 0.2967033 0.8545455
vt 0.2637363 0.8545455
vt 0.1318681 0.4363636
vt 0.1648352 0.4363636
vt 0.1648352 0.4909091
vt 0.1318681 0.4909091
vt 0.1758242 0.7272727
vt 0.2087912 0.7272727
vt 0.2087912 0.7818182
vt 0.1758242 0.7818182
vt 0.08791209 0.6545454
vt 0.1208791 0.6545454
vt 0.1208791 0.7090909
vt 0.08791209 0.7090909
vt 0.3076923 0.6545454
vt 0.3406594 0.6545454
vt 0.3406594 0.7090909
vt 0.3076923 0.7090909
vt 0.04395605 0.4363636
vt 0.07692308 0.4363636
vt 0.07692308 0.4909091
vt 0.04395605 0.4909091
vt 0.2197802 0.8
vt 0.2527473 0.8
vt 0.2527473 0.8545455
vt 0.2197802 0.8545455
vt 0.1318681 0.2909091
vt 0.1648352 0.2909091
vt 0.1648352 0.3454546
vt 0.1318681 0.3454546
vt 0.1758242 0.6545454
vt 0.2087912 0.6545454
vt 0.2087912 0.7090909
vt 0.1758242 0.7090909
vt 0.08791209 0.8
vt 0.1208791 0.8
vt 0.1208791 0.8545455
vt 0.08791209 0.8545455
vt 0.08791209 0
vt 0.1208791 0
vt 0.1208791 0.05454546
vt 0.08791209 0.05454546
vt 0.6153846 0.8727273
vt 0.6483517 0.8727273
vt 0.6483517 0.9272727
vt 0.6153846 0.9272727
vt 0.1318681 0.5818182
vt 0.1648352 0.5818182
vt 0.1648352 0.6363636
vt 0.1318681 0.6363636
vt 0.1758242 0.1454545
vt 0.2087912 0.1454545
vt 0.2087912 0.2
vt 0.1758242 0.2
vt 0.2197802 0.5818182
vt 0.2527473 0.5818182
vt 0.2527473 0.6363636
vt 0.2197802 0.6363636
vt 0.2637363 0.9454545
vt 0.2967033 0.9454545
vt 0.2967033 1
vt 0.2637363 1

# Normal
vn 0 0 -1

# Mesh description
g mediumRoomDemo_mesh_0002

# Faces
f 1/1/1 2/2/1 3/3/1 4/4/1
f 5/5/1 6/6/1 7/7/1 8/8/1
f 9/9/1 10/10/1 11/11/1 12/12/1
f 13/13/1 14/14/1 15/15/1 16/16/1
f 17/17/1 18/18/1 19/19/1 20/20/1
f 21/5/1 22/6/1 23/7/1 24/8/1
f 25/13/1 26/14/1 27/15/1 28/16/1
f 29/21/1 30/22/1 31/23/1 32/24/1
f 33/25/1 34/26/1 35/27/1 36/28/1
f 37/29/1 38/30/1 39/31/1 40/32/1
f 41/33/1 42/34/1 43/35/1 44/36/1
f 45/37/1 46/38/1 47/39/1 48/40/1
f 49/1/1 50/2/1 51/3/1 52/4/1
f 53/41/1 54/42/1 55/43/1 56/44/1
f 57/45/1 58/46/1 59/47/1 60/48/1
f 61/49/1 62/50/1 63/51/1 64/52/1
f 65/53/1 66/54/1 67/55/1 68/56/1
f 69/57/1 70/58/1 71/59/1 72/60/1
f 73/61/1 74/62/1 75/63/1 76/64/1
f 77/65/1 78/66/1 79/67/1 80/68/1
f 81/69/1 82/70/1 83/71/1 84/72/1
f 85/53/1 86/54/1 87/55/1 88/56/1
f 89/73/1 90/74/1 91/75/1 92/76/1
f 93/77/1 94/78/1 95/79/1 96/80/1
f 97/81/1 98/82/1 99/83/1 100/84/1

