# Tiled2Unity generated file. Do not modify by hand.
# Wavefront file for 'mediumRoomDemo_mesh_0003.obj'

# Vertices (Count = 716)
v -3.2 -6.4 0
v -6.4 -6.4 0
v -6.4 -3.2 0
v -3.2 -3.2 0
v -6.4 -6.4 0
v -9.6 -6.4 0
v -9.6 -3.2 0
v -6.4 -3.2 0
v -9.6 -6.4 0
v -12.8 -6.4 0
v -12.8 -3.2 0
v -9.6 -3.2 0
v -12.8 -6.4 0
v -16 -6.4 0
v -16 -3.2 0
v -12.8 -3.2 0
v -16 -6.4 0
v -19.2 -6.4 0
v -19.2 -3.2 0
v -16 -3.2 0
v -19.2 -6.4 0
v -22.4 -6.4 0
v -22.4 -3.2 0
v -19.2 -3.2 0
v -22.4 -6.4 0
v -25.6 -6.4 0
v -25.6 -3.2 0
v -22.4 -3.2 0
v -25.6 -6.4 0
v -28.8 -6.4 0
v -28.8 -3.2 0
v -25.6 -3.2 0
v -28.8 -6.4 0
v -32 -6.4 0
v -32 -3.2 0
v -28.8 -3.2 0
v -32 -6.4 0
v -35.2 -6.4 0
v -35.2 -3.2 0
v -32 -3.2 0
v -35.2 -6.4 0
v -38.4 -6.4 0
v -38.4 -3.2 0
v -35.2 -3.2 0
v -38.4 -6.4 0
v -41.6 -6.4 0
v -41.6 -3.2 0
v -38.4 -3.2 0
v -41.6 -6.4 0
v -44.8 -6.4 0
v -44.8 -3.2 0
v -41.6 -3.2 0
v -44.8 -6.4 0
v -48 -6.4 0
v -48 -3.2 0
v -44.8 -3.2 0
v -48 -6.4 0
v -51.2 -6.4 0
v -51.2 -3.2 0
v -48 -3.2 0
v -51.2 -6.4 0
v -54.4 -6.4 0
v -54.4 -3.2 0
v -51.2 -3.2 0
v -54.4 -6.4 0
v -57.6 -6.4 0
v -57.6 -3.2 0
v -54.4 -3.2 0
v -3.2 -9.6 0
v -6.4 -9.6 0
v -6.4 -6.4 0
v -3.2 -6.4 0
v -22.4 -9.6 0
v -25.6 -9.6 0
v -25.6 -6.4 0
v -22.4 -6.4 0
v -25.6 -9.6 0
v -28.8 -9.6 0
v -28.8 -6.4 0
v -25.6 -6.4 0
v -28.8 -9.6 0
v -32 -9.6 0
v -32 -6.4 0
v -28.8 -6.4 0
v -32 -9.6 0
v -35.2 -9.6 0
v -35.2 -6.4 0
v -32 -6.4 0
v -35.2 -9.6 0
v -38.4 -9.6 0
v -38.4 -6.4 0
v -35.2 -6.4 0
v -38.4 -9.6 0
v -41.6 -9.6 0
v -41.6 -6.4 0
v -38.4 -6.4 0
v -41.6 -9.6 0
v -44.8 -9.6 0
v -44.8 -6.4 0
v -41.6 -6.4 0
v -44.8 -9.6 0
v -48 -9.6 0
v -48 -6.4 0
v -44.8 -6.4 0
v -48 -9.6 0
v -51.2 -9.6 0
v -51.2 -6.4 0
v -48 -6.4 0
v -51.2 -9.6 0
v -54.4 -9.6 0
v -54.4 -6.4 0
v -51.2 -6.4 0
v -54.4 -9.6 0
v -57.6 -9.6 0
v -57.6 -6.4 0
v -54.4 -6.4 0
v -3.2 -12.8 0
v -6.4 -12.8 0
v -6.4 -9.6 0
v -3.2 -9.6 0
v -19.2 -12.8 0
v -22.4 -12.8 0
v -22.4 -9.6 0
v -19.2 -9.6 0
v -22.4 -12.8 0
v -25.6 -12.8 0
v -25.6 -9.6 0
v -22.4 -9.6 0
v -44.8 -12.8 0
v -48 -12.8 0
v -48 -9.6 0
v -44.8 -9.6 0
v -48 -12.8 0
v -51.2 -12.8 0
v -51.2 -9.6 0
v -48 -9.6 0
v -51.2 -12.8 0
v -54.4 -12.8 0
v -54.4 -9.6 0
v -51.2 -9.6 0
v -54.4 -12.8 0
v -57.6 -12.8 0
v -57.6 -9.6 0
v -54.4 -9.6 0
v -3.2 -16 0
v -6.4 -16 0
v -6.4 -12.8 0
v -3.2 -12.8 0
v -16 -16 0
v -19.2 -16 0
v -19.2 -12.8 0
v -16 -12.8 0
v -19.2 -16 0
v -22.4 -16 0
v -22.4 -12.8 0
v -19.2 -12.8 0
v -32 -16 0
v -35.2 -16 0
v -35.2 -12.8 0
v -32 -12.8 0
v -35.2 -16 0
v -38.4 -16 0
v -38.4 -12.8 0
v -35.2 -12.8 0
v -38.4 -16 0
v -41.6 -16 0
v -41.6 -12.8 0
v -38.4 -12.8 0
v -44.8 -16 0
v -48 -16 0
v -48 -12.8 0
v -44.8 -12.8 0
v -51.2 -16 0
v -54.4 -16 0
v -54.4 -12.8 0
v -51.2 -12.8 0
v -54.4 -16 0
v -57.6 -16 0
v -57.6 -12.8 0
v -54.4 -12.8 0
v -3.2 -19.2 0
v -6.4 -19.2 0
v -6.4 -16 0
v -3.2 -16 0
v -12.8 -19.2 0
v -16 -19.2 0
v -16 -16 0
v -12.8 -16 0
v -16 -19.2 0
v -19.2 -19.2 0
v -19.2 -16 0
v -16 -16 0
v -28.8 -19.2 0
v -32 -19.2 0
v -32 -16 0
v -28.8 -16 0
v -32 -19.2 0
v -35.2 -19.2 0
v -35.2 -16 0
v -32 -16 0
v -38.4 -19.2 0
v -41.6 -19.2 0
v -41.6 -16 0
v -38.4 -16 0
v -41.6 -19.2 0
v -44.8 -19.2 0
v -44.8 -16 0
v -41.6 -16 0
v -44.8 -19.2 0
v -48 -19.2 0
v -48 -16 0
v -44.8 -16 0
v -51.2 -19.2 0
v -54.4 -19.2 0
v -54.4 -16 0
v -51.2 -16 0
v -54.4 -19.2 0
v -57.6 -19.2 0
v -57.6 -16 0
v -54.4 -16 0
v -3.2 -22.4 0
v -6.4 -22.4 0
v -6.4 -19.2 0
v -3.2 -19.2 0
v -9.6 -22.4 0
v -12.8 -22.4 0
v -12.8 -19.2 0
v -9.6 -19.2 0
v -12.8 -22.4 0
v -16 -22.4 0
v -16 -19.2 0
v -12.8 -19.2 0
v -25.6 -22.4 0
v -28.8 -22.4 0
v -28.8 -19.2 0
v -25.6 -19.2 0
v -28.8 -22.4 0
v -32 -22.4 0
v -32 -19.2 0
v -28.8 -19.2 0
v -41.6 -22.4 0
v -44.8 -22.4 0
v -44.8 -19.2 0
v -41.6 -19.2 0
v -44.8 -22.4 0
v -48 -22.4 0
v -48 -19.2 0
v -44.8 -19.2 0
v -48 -22.4 0
v -51.2 -22.4 0
v -51.2 -19.2 0
v -48 -19.2 0
v -51.2 -22.4 0
v -54.4 -22.4 0
v -54.4 -19.2 0
v -51.2 -19.2 0
v -54.4 -22.4 0
v -57.6 -22.4 0
v -57.6 -19.2 0
v -54.4 -19.2 0
v -3.2 -25.6 0
v -6.4 -25.6 0
v -6.4 -22.4 0
v -3.2 -22.4 0
v -6.4 -25.6 0
v -9.6 -25.6 0
v -9.6 -22.4 0
v -6.4 -22.4 0
v -9.6 -25.6 0
v -12.8 -25.6 0
v -12.8 -22.4 0
v -9.6 -22.4 0
v -22.4 -25.6 0
v -25.6 -25.6 0
v -25.6 -22.4 0
v -22.4 -22.4 0
v -25.6 -25.6 0
v -28.8 -25.6 0
v -28.8 -22.4 0
v -25.6 -22.4 0
v -44.8 -25.6 0
v -48 -25.6 0
v -48 -22.4 0
v -44.8 -22.4 0
v -54.4 -25.6 0
v -57.6 -25.6 0
v -57.6 -22.4 0
v -54.4 -22.4 0
v -3.2 -28.8 0
v -6.4 -28.8 0
v -6.4 -25.6 0
v -3.2 -25.6 0
v -6.4 -28.8 0
v -9.6 -28.8 0
v -9.6 -25.6 0
v -6.4 -25.6 0
v -9.6 -28.8 0
v -12.8 -28.8 0
v -12.8 -25.6 0
v -9.6 -25.6 0
v -12.8 -28.8 0
v -16 -28.8 0
v -16 -25.6 0
v -12.8 -25.6 0
v -16 -28.8 0
v -19.2 -28.8 0
v -19.2 -25.6 0
v -16 -25.6 0
v -19.2 -28.8 0
v -22.4 -28.8 0
v -22.4 -25.6 0
v -19.2 -25.6 0
v -22.4 -28.8 0
v -25.6 -28.8 0
v -25.6 -25.6 0
v -22.4 -25.6 0
v -44.8 -28.8 0
v -48 -28.8 0
v -48 -25.6 0
v -44.8 -25.6 0
v -54.4 -28.8 0
v -57.6 -28.8 0
v -57.6 -25.6 0
v -54.4 -25.6 0
v -3.2 -32 0
v -6.4 -32 0
v -6.4 -28.8 0
v -3.2 -28.8 0
v -9.6 -32 0
v -12.8 -32 0
v -12.8 -28.8 0
v -9.6 -28.8 0
v -22.4 -32 0
v -25.6 -32 0
v -25.6 -28.8 0
v -22.4 -28.8 0
v -41.6 -32 0
v -44.8 -32 0
v -44.8 -28.8 0
v -41.6 -28.8 0
v -44.8 -32 0
v -48 -32 0
v -48 -28.8 0
v -44.8 -28.8 0
v -48 -32 0
v -51.2 -32 0
v -51.2 -28.8 0
v -48 -28.8 0
v -54.4 -32 0
v -57.6 -32 0
v -57.6 -28.8 0
v -54.4 -28.8 0
v -3.2 -35.2 0
v -6.4 -35.2 0
v -6.4 -32 0
v -3.2 -32 0
v -9.6 -35.2 0
v -12.8 -35.2 0
v -12.8 -32 0
v -9.6 -32 0
v -22.4 -35.2 0
v -25.6 -35.2 0
v -25.6 -32 0
v -22.4 -32 0
v -38.4 -35.2 0
v -41.6 -35.2 0
v -41.6 -32 0
v -38.4 -32 0
v -41.6 -35.2 0
v -44.8 -35.2 0
v -44.8 -32 0
v -41.6 -32 0
v -48 -35.2 0
v -51.2 -35.2 0
v -51.2 -32 0
v -48 -32 0
v -51.2 -35.2 0
v -54.4 -35.2 0
v -54.4 -32 0
v -51.2 -32 0
v -54.4 -35.2 0
v -57.6 -35.2 0
v -57.6 -32 0
v -54.4 -32 0
v -3.2 -38.4 0
v -6.4 -38.4 0
v -6.4 -35.2 0
v -3.2 -35.2 0
v -9.6 -38.4 0
v -12.8 -38.4 0
v -12.8 -35.2 0
v -9.6 -35.2 0
v -22.4 -38.4 0
v -25.6 -38.4 0
v -25.6 -35.2 0
v -22.4 -35.2 0
v -25.6 -38.4 0
v -28.8 -38.4 0
v -28.8 -35.2 0
v -25.6 -35.2 0
v -32 -38.4 0
v -35.2 -38.4 0
v -35.2 -35.2 0
v -32 -35.2 0
v -35.2 -38.4 0
v -38.4 -38.4 0
v -38.4 -35.2 0
v -35.2 -35.2 0
v -38.4 -38.4 0
v -41.6 -38.4 0
v -41.6 -35.2 0
v -38.4 -35.2 0
v -41.6 -38.4 0
v -44.8 -38.4 0
v -44.8 -35.2 0
v -41.6 -35.2 0
v -44.8 -38.4 0
v -48 -38.4 0
v -48 -35.2 0
v -44.8 -35.2 0
v -48 -38.4 0
v -51.2 -38.4 0
v -51.2 -35.2 0
v -48 -35.2 0
v -51.2 -38.4 0
v -54.4 -38.4 0
v -54.4 -35.2 0
v -51.2 -35.2 0
v -54.4 -38.4 0
v -57.6 -38.4 0
v -57.6 -35.2 0
v -54.4 -35.2 0
v -3.2 -41.6 0
v -6.4 -41.6 0
v -6.4 -38.4 0
v -3.2 -38.4 0
v -9.6 -41.6 0
v -12.8 -41.6 0
v -12.8 -38.4 0
v -9.6 -38.4 0
v -12.8 -41.6 0
v -16 -41.6 0
v -16 -38.4 0
v -12.8 -38.4 0
v -16 -41.6 0
v -19.2 -41.6 0
v -19.2 -38.4 0
v -16 -38.4 0
v -19.2 -41.6 0
v -22.4 -41.6 0
v -22.4 -38.4 0
v -19.2 -38.4 0
v -22.4 -41.6 0
v -25.6 -41.6 0
v -25.6 -38.4 0
v -22.4 -38.4 0
v -25.6 -41.6 0
v -28.8 -41.6 0
v -28.8 -38.4 0
v -25.6 -38.4 0
v -32 -41.6 0
v -35.2 -41.6 0
v -35.2 -38.4 0
v -32 -38.4 0
v -48 -41.6 0
v -51.2 -41.6 0
v -51.2 -38.4 0
v -48 -38.4 0
v -51.2 -41.6 0
v -54.4 -41.6 0
v -54.4 -38.4 0
v -51.2 -38.4 0
v -54.4 -41.6 0
v -57.6 -41.6 0
v -57.6 -38.4 0
v -54.4 -38.4 0
v -3.2 -44.8 0
v -6.4 -44.8 0
v -6.4 -41.6 0
v -3.2 -41.6 0
v -9.6 -44.8 0
v -12.8 -44.8 0
v -12.8 -41.6 0
v -9.6 -41.6 0
v -22.4 -44.8 0
v -25.6 -44.8 0
v -25.6 -41.6 0
v -22.4 -41.6 0
v -25.6 -44.8 0
v -28.8 -44.8 0
v -28.8 -41.6 0
v -25.6 -41.6 0
v -32 -44.8 0
v -35.2 -44.8 0
v -35.2 -41.6 0
v -32 -41.6 0
v -48 -44.8 0
v -51.2 -44.8 0
v -51.2 -41.6 0
v -48 -41.6 0
v -51.2 -44.8 0
v -54.4 -44.8 0
v -54.4 -41.6 0
v -51.2 -41.6 0
v -54.4 -44.8 0
v -57.6 -44.8 0
v -57.6 -41.6 0
v -54.4 -41.6 0
v -3.2 -48 0
v -6.4 -48 0
v -6.4 -44.8 0
v -3.2 -44.8 0
v -9.6 -48 0
v -12.8 -48 0
v -12.8 -44.8 0
v -9.6 -44.8 0
v -22.4 -48 0
v -25.6 -48 0
v -25.6 -44.8 0
v -22.4 -44.8 0
v -25.6 -48 0
v -28.8 -48 0
v -28.8 -44.8 0
v -25.6 -44.8 0
v -28.8 -48 0
v -32 -48 0
v -32 -44.8 0
v -28.8 -44.8 0
v -32 -48 0
v -35.2 -48 0
v -35.2 -44.8 0
v -32 -44.8 0
v -48 -48 0
v -51.2 -48 0
v -51.2 -44.8 0
v -48 -44.8 0
v -51.2 -48 0
v -54.4 -48 0
v -54.4 -44.8 0
v -51.2 -44.8 0
v -54.4 -48 0
v -57.6 -48 0
v -57.6 -44.8 0
v -54.4 -44.8 0
v -3.2 -51.2 0
v -6.4 -51.2 0
v -6.4 -48 0
v -3.2 -48 0
v -9.6 -51.2 0
v -12.8 -51.2 0
v -12.8 -48 0
v -9.6 -48 0
v -12.8 -51.2 0
v -16 -51.2 0
v -16 -48 0
v -12.8 -48 0
v -16 -51.2 0
v -19.2 -51.2 0
v -19.2 -48 0
v -16 -48 0
v -19.2 -51.2 0
v -22.4 -51.2 0
v -22.4 -48 0
v -19.2 -48 0
v -22.4 -51.2 0
v -25.6 -51.2 0
v -25.6 -48 0
v -22.4 -48 0
v -32 -51.2 0
v -35.2 -51.2 0
v -35.2 -48 0
v -32 -48 0
v -35.2 -51.2 0
v -38.4 -51.2 0
v -38.4 -48 0
v -35.2 -48 0
v -38.4 -51.2 0
v -41.6 -51.2 0
v -41.6 -48 0
v -38.4 -48 0
v -41.6 -51.2 0
v -44.8 -51.2 0
v -44.8 -48 0
v -41.6 -48 0
v -44.8 -51.2 0
v -48 -51.2 0
v -48 -48 0
v -44.8 -48 0
v -48 -51.2 0
v -51.2 -51.2 0
v -51.2 -48 0
v -48 -48 0
v -51.2 -51.2 0
v -54.4 -51.2 0
v -54.4 -48 0
v -51.2 -48 0
v -54.4 -51.2 0
v -57.6 -51.2 0
v -57.6 -48 0
v -54.4 -48 0
v -3.2 -54.4 0
v -6.4 -54.4 0
v -6.4 -51.2 0
v -3.2 -51.2 0
v -22.4 -54.4 0
v -25.6 -54.4 0
v -25.6 -51.2 0
v -22.4 -51.2 0
v -25.6 -54.4 0
v -28.8 -54.4 0
v -28.8 -51.2 0
v -25.6 -51.2 0
v -28.8 -54.4 0
v -32 -54.4 0
v -32 -51.2 0
v -28.8 -51.2 0
v -32 -54.4 0
v -35.2 -54.4 0
v -35.2 -51.2 0
v -32 -51.2 0
v -35.2 -54.4 0
v -38.4 -54.4 0
v -38.4 -51.2 0
v -35.2 -51.2 0
v -38.4 -54.4 0
v -41.6 -54.4 0
v -41.6 -51.2 0
v -38.4 -51.2 0
v -41.6 -54.4 0
v -44.8 -54.4 0
v -44.8 -51.2 0
v -41.6 -51.2 0
v -44.8 -54.4 0
v -48 -54.4 0
v -48 -51.2 0
v -44.8 -51.2 0
v -48 -54.4 0
v -51.2 -54.4 0
v -51.2 -51.2 0
v -48 -51.2 0
v -51.2 -54.4 0
v -54.4 -54.4 0
v -54.4 -51.2 0
v -51.2 -51.2 0
v -54.4 -54.4 0
v -57.6 -54.4 0
v -57.6 -51.2 0
v -54.4 -51.2 0
v -3.2 -57.6 0
v -6.4 -57.6 0
v -6.4 -54.4 0
v -3.2 -54.4 0
v -6.4 -57.6 0
v -9.6 -57.6 0
v -9.6 -54.4 0
v -6.4 -54.4 0
v -9.6 -57.6 0
v -12.8 -57.6 0
v -12.8 -54.4 0
v -9.6 -54.4 0
v -12.8 -57.6 0
v -16 -57.6 0
v -16 -54.4 0
v -12.8 -54.4 0
v -16 -57.6 0
v -19.2 -57.6 0
v -19.2 -54.4 0
v -16 -54.4 0
v -19.2 -57.6 0
v -22.4 -57.6 0
v -22.4 -54.4 0
v -19.2 -54.4 0
v -22.4 -57.6 0
v -25.6 -57.6 0
v -25.6 -54.4 0
v -22.4 -54.4 0
v -25.6 -57.6 0
v -28.8 -57.6 0
v -28.8 -54.4 0
v -25.6 -54.4 0
v -28.8 -57.6 0
v -32 -57.6 0
v -32 -54.4 0
v -28.8 -54.4 0
v -32 -57.6 0
v -35.2 -57.6 0
v -35.2 -54.4 0
v -32 -54.4 0
v -35.2 -57.6 0
v -38.4 -57.6 0
v -38.4 -54.4 0
v -35.2 -54.4 0
v -38.4 -57.6 0
v -41.6 -57.6 0
v -41.6 -54.4 0
v -38.4 -54.4 0
v -41.6 -57.6 0
v -44.8 -57.6 0
v -44.8 -54.4 0
v -41.6 -54.4 0
v -44.8 -57.6 0
v -48 -57.6 0
v -48 -54.4 0
v -44.8 -54.4 0
v -48 -57.6 0
v -51.2 -57.6 0
v -51.2 -54.4 0
v -48 -54.4 0
v -51.2 -57.6 0
v -54.4 -57.6 0
v -54.4 -54.4 0
v -51.2 -54.4 0
v -54.4 -57.6 0
v -57.6 -57.6 0
v -57.6 -54.4 0
v -54.4 -54.4 0

# Texture cooridinates (Count = 64)
vt 0 0.875
vt 0.1 0.875
vt 0.1 1
vt 0 1
vt 0.4 0.875
vt 0.5 0.875
vt 0.5 1
vt 0.4 1
vt 0.2 0.875
vt 0.2 1
vt 0.3 0.875
vt 0.3 1
vt 0.1 0.25
vt 0.2 0.25
vt 0.2 0.375
vt 0.1 0.375
vt 0 0.375
vt 0.1 0.5
vt 0 0.5
vt 0.6 0.875
vt 0.6 1
vt 0.6 0
vt 0.7 0
vt 0.7 0.125
vt 0.6 0.125
vt 0.2 0.5
vt 0.3 0.125
vt 0.4 0.125
vt 0.4 0.25
vt 0.3 0.25
vt 0.1 0.75
vt 0.2 0.75
vt 0 0.75
vt 0.7 0.625
vt 0.8 0.625
vt 0.8 0.75
vt 0.7 0.75
vt 0.2 0.125
vt 0.9 0.75
vt 1 0.75
vt 1 0.875
vt 0.9 0.875
vt 0.6 0.375
vt 0.7 0.375
vt 0.7 0.5
vt 0.6 0.5
vt 0.8 0.375
vt 0.9 0.375
vt 0.9 0.5
vt 0.8 0.5
vt 0 0.25
vt 0.9 0
vt 1 0
vt 1 0.125
vt 0.9 0.125
vt 0.8 0.875
vt 0.9 1
vt 0.8 1
vt 0.8 0.125
vt 0.9 0.25
vt 0.8 0.25
vt 0.6 0.25
vt 0.7 0.25
vt 0.8 0

# Normal
vn 0 0 -1

# Mesh description
g mediumRoomDemo_mesh_0003

# Faces
f 1/1/1 2/2/1 3/3/1 4/4/1
f 5/5/1 6/6/1 7/7/1 8/8/1
f 9/5/1 10/6/1 11/7/1 12/8/1
f 13/5/1 14/6/1 15/7/1 16/8/1
f 17/5/1 18/6/1 19/7/1 20/8/1
f 21/5/1 22/6/1 23/7/1 24/8/1
f 25/5/1 26/6/1 27/7/1 28/8/1
f 29/5/1 30/6/1 31/7/1 32/8/1
f 33/5/1 34/6/1 35/7/1 36/8/1
f 37/5/1 38/6/1 39/7/1 40/8/1
f 41/5/1 42/6/1 43/7/1 44/8/1
f 45/5/1 46/6/1 47/7/1 48/8/1
f 49/5/1 50/6/1 51/7/1 52/8/1
f 53/5/1 54/6/1 55/7/1 56/8/1
f 57/5/1 58/6/1 59/7/1 60/8/1
f 61/5/1 62/6/1 63/7/1 64/8/1
f 65/2/1 66/9/1 67/10/1 68/3/1
f 69/9/1 70/11/1 71/12/1 72/10/1
f 73/1/1 74/2/1 75/3/1 76/4/1
f 77/5/1 78/6/1 79/7/1 80/8/1
f 81/5/1 82/6/1 83/7/1 84/8/1
f 85/5/1 86/6/1 87/7/1 88/8/1
f 89/5/1 90/6/1 91/7/1 92/8/1
f 93/5/1 94/6/1 95/7/1 96/8/1
f 97/5/1 98/6/1 99/7/1 100/8/1
f 101/5/1 102/6/1 103/7/1 104/8/1
f 105/5/1 106/6/1 107/7/1 108/8/1
f 109/2/1 110/9/1 111/10/1 112/3/1
f 113/11/1 114/5/1 115/8/1 116/12/1
f 117/9/1 118/11/1 119/12/1 120/10/1
f 121/1/1 122/2/1 123/3/1 124/4/1
f 125/13/1 126/14/1 127/15/1 128/16/1
f 129/17/1 130/16/1 131/18/1 132/19/1
f 133/6/1 134/20/1 135/21/1 136/7/1
f 137/22/1 138/23/1 139/24/1 140/25/1
f 141/11/1 142/5/1 143/8/1 144/12/1
f 145/9/1 146/11/1 147/12/1 148/10/1
f 149/1/1 150/2/1 151/3/1 152/4/1
f 153/13/1 154/14/1 155/15/1 156/16/1
f 157/17/1 158/16/1 159/18/1 160/19/1
f 161/6/1 162/20/1 163/21/1 164/7/1
f 165/16/1 166/15/1 167/26/1 168/18/1
f 169/11/1 170/5/1 171/8/1 172/12/1
f 173/27/1 174/28/1 175/29/1 176/30/1
f 177/11/1 178/5/1 179/8/1 180/12/1
f 181/9/1 182/11/1 183/12/1 184/10/1
f 185/1/1 186/2/1 187/3/1 188/4/1
f 189/13/1 190/14/1 191/15/1 192/16/1
f 193/17/1 194/16/1 195/18/1 196/19/1
f 197/31/1 198/32/1 199/9/1 200/2/1
f 201/33/1 202/31/1 203/2/1 204/1/1
f 205/16/1 206/15/1 207/26/1 208/18/1
f 209/11/1 210/5/1 211/8/1 212/12/1
f 213/27/1 214/28/1 215/29/1 216/30/1
f 217/11/1 218/5/1 219/8/1 220/12/1
f 221/9/1 222/11/1 223/12/1 224/10/1
f 225/1/1 226/2/1 227/3/1 228/4/1
f 229/13/1 230/14/1 231/15/1 232/16/1
f 233/17/1 234/16/1 235/18/1 236/19/1
f 237/31/1 238/32/1 239/9/1 240/2/1
f 241/33/1 242/31/1 243/2/1 244/1/1
f 245/34/1 246/35/1 247/36/1 248/37/1
f 249/38/1 250/27/1 251/30/1 252/14/1
f 253/39/1 254/40/1 255/41/1 256/42/1
f 257/11/1 258/5/1 259/8/1 260/12/1
f 261/9/1 262/11/1 263/12/1 264/10/1
f 265/1/1 266/2/1 267/3/1 268/4/1
f 269/13/1 270/14/1 271/15/1 272/16/1
f 273/17/1 274/16/1 275/18/1 276/19/1
f 277/31/1 278/32/1 279/9/1 280/2/1
f 281/27/1 282/28/1 283/29/1 284/30/1
f 285/11/1 286/5/1 287/8/1 288/12/1
f 289/9/1 290/11/1 291/12/1 292/10/1
f 293/33/1 294/31/1 295/2/1 296/1/1
f 297/43/1 298/44/1 299/45/1 300/46/1
f 301/6/1 302/20/1 303/21/1 304/7/1
f 305/6/1 306/20/1 307/21/1 308/7/1
f 309/6/1 310/20/1 311/21/1 312/7/1
f 313/22/1 314/23/1 315/24/1 316/25/1
f 317/27/1 318/28/1 319/29/1 320/30/1
f 321/11/1 322/5/1 323/8/1 324/12/1
f 325/9/1 326/11/1 327/12/1 328/10/1
f 329/27/1 330/28/1 331/29/1 332/30/1
f 333/27/1 334/28/1 335/29/1 336/30/1
f 337/1/1 338/2/1 339/3/1 340/4/1
f 341/47/1 342/48/1 343/49/1 344/50/1
f 345/2/1 346/9/1 347/10/1 348/3/1
f 349/11/1 350/5/1 351/8/1 352/12/1
f 353/9/1 354/11/1 355/12/1 356/10/1
f 357/27/1 358/28/1 359/29/1 360/30/1
f 361/27/1 362/28/1 363/29/1 364/30/1
f 365/1/1 366/2/1 367/3/1 368/4/1
f 369/13/1 370/14/1 371/15/1 372/16/1
f 373/51/1 374/13/1 375/16/1 376/17/1
f 377/2/1 378/9/1 379/10/1 380/3/1
f 381/11/1 382/5/1 383/8/1 384/12/1
f 385/9/1 386/11/1 387/12/1 388/10/1
f 389/27/1 390/28/1 391/29/1 392/30/1
f 393/52/1 394/53/1 395/54/1 396/55/1
f 397/2/1 398/9/1 399/10/1 400/3/1
f 401/56/1 402/42/1 403/57/1 404/58/1
f 405/38/1 406/27/1 407/30/1 408/14/1
f 409/59/1 410/55/1 411/60/1 412/61/1
f 413/6/1 414/20/1 415/21/1 416/7/1
f 417/6/1 418/20/1 419/21/1 420/7/1
f 421/16/1 422/15/1 423/26/1 424/18/1
f 425/11/1 426/5/1 427/8/1 428/12/1
f 429/11/1 430/5/1 431/8/1 432/12/1
f 433/9/1 434/11/1 435/12/1 436/10/1
f 437/62/1 438/63/1 439/44/1 440/43/1
f 441/38/1 442/27/1 443/30/1 444/14/1
f 445/38/1 446/27/1 447/30/1 448/14/1
f 449/38/1 450/27/1 451/30/1 452/14/1
f 453/44/1 454/47/1 455/50/1 456/45/1
f 457/11/1 458/5/1 459/8/1 460/12/1
f 461/27/1 462/28/1 463/29/1 464/30/1
f 465/9/1 466/11/1 467/12/1 468/10/1
f 469/11/1 470/5/1 471/8/1 472/12/1
f 473/11/1 474/5/1 475/8/1 476/12/1
f 477/9/1 478/11/1 479/12/1 480/10/1
f 481/27/1 482/28/1 483/29/1 484/30/1
f 485/9/1 486/11/1 487/12/1 488/10/1
f 489/11/1 490/5/1 491/8/1 492/12/1
f 493/27/1 494/28/1 495/29/1 496/30/1
f 497/9/1 498/11/1 499/12/1 500/10/1
f 501/11/1 502/5/1 503/8/1 504/12/1
f 505/11/1 506/5/1 507/8/1 508/12/1
f 509/9/1 510/11/1 511/12/1 512/10/1
f 513/27/1 514/28/1 515/29/1 516/30/1
f 517/9/1 518/11/1 519/12/1 520/10/1
f 521/51/1 522/13/1 523/16/1 524/17/1
f 525/5/1 526/6/1 527/7/1 528/8/1
f 529/23/1 530/64/1 531/59/1 532/24/1
f 533/9/1 534/11/1 535/12/1 536/10/1
f 537/11/1 538/5/1 539/8/1 540/12/1
f 541/11/1 542/5/1 543/8/1 544/12/1
f 545/9/1 546/11/1 547/12/1 548/10/1
f 549/36/1 550/39/1 551/42/1 552/56/1
f 553/38/1 554/27/1 555/30/1 556/14/1
f 557/38/1 558/27/1 559/30/1 560/14/1
f 561/38/1 562/27/1 563/30/1 564/14/1
f 565/44/1 566/47/1 567/50/1 568/45/1
f 569/51/1 570/13/1 571/16/1 572/17/1
f 573/5/1 574/6/1 575/7/1 576/8/1
f 577/5/1 578/6/1 579/7/1 580/8/1
f 581/5/1 582/6/1 583/7/1 584/8/1
f 585/5/1 586/6/1 587/7/1 588/8/1
f 589/13/1 590/14/1 591/15/1 592/16/1
f 593/11/1 594/5/1 595/8/1 596/12/1
f 597/11/1 598/5/1 599/8/1 600/12/1
f 601/9/1 602/11/1 603/12/1 604/10/1
f 605/33/1 606/31/1 607/2/1 608/1/1
f 609/6/1 610/20/1 611/21/1 612/7/1
f 613/6/1 614/20/1 615/21/1 616/7/1
f 617/6/1 618/20/1 619/21/1 620/7/1
f 621/6/1 622/20/1 623/21/1 624/7/1
f 625/6/1 626/20/1 627/21/1 628/7/1
f 629/6/1 630/20/1 631/21/1 632/7/1
f 633/6/1 634/20/1 635/21/1 636/7/1
f 637/6/1 638/20/1 639/21/1 640/7/1
f 641/31/1 642/32/1 643/9/1 644/2/1
f 645/11/1 646/5/1 647/8/1 648/12/1
f 649/33/1 650/31/1 651/2/1 652/1/1
f 653/6/1 654/20/1 655/21/1 656/7/1
f 657/6/1 658/20/1 659/21/1 660/7/1
f 661/6/1 662/20/1 663/21/1 664/7/1
f 665/6/1 666/20/1 667/21/1 668/7/1
f 669/6/1 670/20/1 671/21/1 672/7/1
f 673/6/1 674/20/1 675/21/1 676/7/1
f 677/6/1 678/20/1 679/21/1 680/7/1
f 681/6/1 682/20/1 683/21/1 684/7/1
f 685/6/1 686/20/1 687/21/1 688/7/1
f 689/6/1 690/20/1 691/21/1 692/7/1
f 693/6/1 694/20/1 695/21/1 696/7/1
f 697/6/1 698/20/1 699/21/1 700/7/1
f 701/6/1 702/20/1 703/21/1 704/7/1
f 705/6/1 706/20/1 707/21/1 708/7/1
f 709/6/1 710/20/1 711/21/1 712/7/1
f 713/31/1 714/32/1 715/9/1 716/2/1

