# Tiled2Unity generated file. Do not modify by hand.
# Wavefront file for 'largeRoomDemo_mesh_0002.obj'

# Vertices (Count = 196)
v -6.4 -16 0
v -16 -16 0
v -16 -6.4 0
v -6.4 -6.4 0
v -16 -16 0
v -25.6 -16 0
v -25.6 -6.4 0
v -16 -6.4 0
v -25.6 -16 0
v -35.2 -16 0
v -35.2 -6.4 0
v -25.6 -6.4 0
v -35.2 -16 0
v -44.8 -16 0
v -44.8 -6.4 0
v -35.2 -6.4 0
v -44.8 -16 0
v -54.4 -16 0
v -54.4 -6.4 0
v -44.8 -6.4 0
v -54.4 -16 0
v -64 -16 0
v -64 -6.4 0
v -54.4 -6.4 0
v -64 -16 0
v -73.6 -16 0
v -73.6 -6.4 0
v -64 -6.4 0
v -6.4 -25.6 0
v -16 -25.6 0
v -16 -16 0
v -6.4 -16 0
v -16 -25.6 0
v -25.6 -25.6 0
v -25.6 -16 0
v -16 -16 0
v -25.6 -25.6 0
v -35.2 -25.6 0
v -35.2 -16 0
v -25.6 -16 0
v -35.2 -25.6 0
v -44.8 -25.6 0
v -44.8 -16 0
v -35.2 -16 0
v -44.8 -25.6 0
v -54.4 -25.6 0
v -54.4 -16 0
v -44.8 -16 0
v -54.4 -25.6 0
v -64 -25.6 0
v -64 -16 0
v -54.4 -16 0
v -64 -25.6 0
v -73.6 -25.6 0
v -73.6 -16 0
v -64 -16 0
v -6.4 -35.2 0
v -16 -35.2 0
v -16 -25.6 0
v -6.4 -25.6 0
v -16 -35.2 0
v -25.6 -35.2 0
v -25.6 -25.6 0
v -16 -25.6 0
v -25.6 -35.2 0
v -35.2 -35.2 0
v -35.2 -25.6 0
v -25.6 -25.6 0
v -35.2 -35.2 0
v -44.8 -35.2 0
v -44.8 -25.6 0
v -35.2 -25.6 0
v -44.8 -35.2 0
v -54.4 -35.2 0
v -54.4 -25.6 0
v -44.8 -25.6 0
v -54.4 -35.2 0
v -64 -35.2 0
v -64 -25.6 0
v -54.4 -25.6 0
v -64 -35.2 0
v -73.6 -35.2 0
v -73.6 -25.6 0
v -64 -25.6 0
v -6.4 -44.8 0
v -16 -44.8 0
v -16 -35.2 0
v -6.4 -35.2 0
v -16 -44.8 0
v -25.6 -44.8 0
v -25.6 -35.2 0
v -16 -35.2 0
v -25.6 -44.8 0
v -35.2 -44.8 0
v -35.2 -35.2 0
v -25.6 -35.2 0
v -35.2 -44.8 0
v -44.8 -44.8 0
v -44.8 -35.2 0
v -35.2 -35.2 0
v -44.8 -44.8 0
v -54.4 -44.8 0
v -54.4 -35.2 0
v -44.8 -35.2 0
v -54.4 -44.8 0
v -64 -44.8 0
v -64 -35.2 0
v -54.4 -35.2 0
v -64 -44.8 0
v -73.6 -44.8 0
v -73.6 -35.2 0
v -64 -35.2 0
v -6.4 -54.4 0
v -16 -54.4 0
v -16 -44.8 0
v -6.4 -44.8 0
v -16 -54.4 0
v -25.6 -54.4 0
v -25.6 -44.8 0
v -16 -44.8 0
v -25.6 -54.4 0
v -35.2 -54.4 0
v -35.2 -44.8 0
v -25.6 -44.8 0
v -35.2 -54.4 0
v -44.8 -54.4 0
v -44.8 -44.8 0
v -35.2 -44.8 0
v -44.8 -54.4 0
v -54.4 -54.4 0
v -54.4 -44.8 0
v -44.8 -44.8 0
v -54.4 -54.4 0
v -64 -54.4 0
v -64 -44.8 0
v -54.4 -44.8 0
v -64 -54.4 0
v -73.6 -54.4 0
v -73.6 -44.8 0
v -64 -44.8 0
v -6.4 -64 0
v -16 -64 0
v -16 -54.4 0
v -6.4 -54.4 0
v -16 -64 0
v -25.6 -64 0
v -25.6 -54.4 0
v -16 -54.4 0
v -25.6 -64 0
v -35.2 -64 0
v -35.2 -54.4 0
v -25.6 -54.4 0
v -35.2 -64 0
v -44.8 -64 0
v -44.8 -54.4 0
v -35.2 -54.4 0
v -44.8 -64 0
v -54.4 -64 0
v -54.4 -54.4 0
v -44.8 -54.4 0
v -54.4 -64 0
v -64 -64 0
v -64 -54.4 0
v -54.4 -54.4 0
v -64 -64 0
v -73.6 -64 0
v -73.6 -54.4 0
v -64 -54.4 0
v -6.4 -73.6 0
v -16 -73.6 0
v -16 -64 0
v -6.4 -64 0
v -16 -73.6 0
v -25.6 -73.6 0
v -25.6 -64 0
v -16 -64 0
v -25.6 -73.6 0
v -35.2 -73.6 0
v -35.2 -64 0
v -25.6 -64 0
v -35.2 -73.6 0
v -44.8 -73.6 0
v -44.8 -64 0
v -35.2 -64 0
v -44.8 -73.6 0
v -54.4 -73.6 0
v -54.4 -64 0
v -44.8 -64 0
v -54.4 -73.6 0
v -64 -73.6 0
v -64 -64 0
v -54.4 -64 0
v -64 -73.6 0
v -73.6 -73.6 0
v -73.6 -64 0
v -64 -64 0

# Texture cooridinates (Count = 132)
vt 0.2637363 0.1454545
vt 0.2967033 0.1454545
vt 0.2967033 0.2
vt 0.2637363 0.2
vt 0 0.9454545
vt 0.03296703 0.9454545
vt 0.03296703 1
vt 0 1
vt 0.3956044 0.9454545
vt 0.4285714 0.9454545
vt 0.4285714 1
vt 0.3956044 1
vt 0.04395605 0.2181818
vt 0.07692308 0.2181818
vt 0.07692308 0.2727273
vt 0.04395605 0.2727273
vt 0.3956044 0.6545454
vt 0.4285714 0.6545454
vt 0.4285714 0.7090909
vt 0.3956044 0.7090909
vt 0.2197802 0.5818182
vt 0.2527473 0.5818182
vt 0.2527473 0.6363636
vt 0.2197802 0.6363636
vt 0.08791209 0.5090909
vt 0.1208791 0.5090909
vt 0.1208791 0.5636364
vt 0.08791209 0.5636364
vt 0.2637363 0.8
vt 0.2967033 0.8
vt 0.2967033 0.8545455
vt 0.2637363 0.8545455
vt 0 0.2181818
vt 0.03296703 0.2181818
vt 0.03296703 0.2727273
vt 0 0.2727273
vt 0.5274726 0.6545454
vt 0.5604396 0.6545454
vt 0.5604396 0.7090909
vt 0.5274726 0.7090909
vt 0.3516484 0.9454545
vt 0.3846154 0.9454545
vt 0.3846154 1
vt 0.3516484 1
vt 0.2637363 0.5818182
vt 0.2967033 0.5818182
vt 0.2967033 0.6363636
vt 0.2637363 0.6363636
vt 0.08791209 0.3636364
vt 0.1208791 0.3636364
vt 0.1208791 0.4181818
vt 0.08791209 0.4181818
vt 0.1318681 0
vt 0.1648352 0
vt 0.1648352 0.05454546
vt 0.1318681 0.05454546
vt 0.04395605 0.9454545
vt 0.07692308 0.9454545
vt 0.07692308 1
vt 0.04395605 1
vt 0.1758242 0.9454545
vt 0.2087912 0.9454545
vt 0.2087912 1
vt 0.1758242 1
vt 0.2637363 0.2181818
vt 0.2967033 0.2181818
vt 0.2967033 0.2727273
vt 0.2637363 0.2727273
vt 0.04395605 0.07272726
vt 0.07692308 0.07272726
vt 0.07692308 0.1272727
vt 0.04395605 0.1272727
vt 0.04395605 0
vt 0.07692308 0
vt 0.07692308 0.05454546
vt 0.04395605 0.05454546
vt 0.5714286 0.8727273
vt 0.6043956 0.8727273
vt 0.6043956 0.9272727
vt 0.5714286 0.9272727
vt 0.08791209 0.8
vt 0.1208791 0.8
vt 0.1208791 0.8545455
vt 0.08791209 0.8545455
vt 0.2197802 0.2181818
vt 0.2527473 0.2181818
vt 0.2527473 0.2727273
vt 0.2197802 0.2727273
vt 0.3076923 0.9454545
vt 0.3406594 0.9454545
vt 0.3406594 1
vt 0.3076923 1
vt 0.4395604 0.6545454
vt 0.4725275 0.6545454
vt 0.4725275 0.7090909
vt 0.4395604 0.7090909
vt 0.3076923 0.8
vt 0.3406594 0.8
vt 0.3406594 0.8545455
vt 0.3076923 0.8545455
vt 0.1318681 0.6545454
vt 0.1648352 0.6545454
vt 0.1648352 0.7090909
vt 0.1318681 0.7090909
vt 0.7032967 0.8
vt 0.7362638 0.8
vt 0.7362638 0.8545455
vt 0.7032967 0.8545455
vt 0.08791209 0
vt 0.1208791 0
vt 0.1208791 0.05454546
vt 0.08791209 0.05454546
vt 0.08791209 0.07272726
vt 0.1208791 0.07272726
vt 0.1208791 0.1272727
vt 0.08791209 0.1272727
vt 0.1758242 0.5090909
vt 0.2087912 0.5090909
vt 0.2087912 0.5636364
vt 0.1758242 0.5636364
vt 0.6153846 0.5818182
vt 0.6483517 0.5818182
vt 0.6483517 0.6363636
vt 0.6153846 0.6363636
vt 0.1758242 0.1454545
vt 0.2087912 0.1454545
vt 0.2087912 0.2
vt 0.1758242 0.2
vt 0 0
vt 0.03296703 0
vt 0.03296703 0.05454546
vt 0 0.05454546

# Normal
vn 0 0 -1

# Mesh description
g largeRoomDemo_mesh_0002

# Faces
f 1/1/1 2/2/1 3/3/1 4/4/1
f 5/5/1 6/6/1 7/7/1 8/8/1
f 9/9/1 10/10/1 11/11/1 12/12/1
f 13/13/1 14/14/1 15/15/1 16/16/1
f 17/17/1 18/18/1 19/19/1 20/20/1
f 21/21/1 22/22/1 23/23/1 24/24/1
f 25/25/1 26/26/1 27/27/1 28/28/1
f 29/5/1 30/6/1 31/7/1 32/8/1
f 33/29/1 34/30/1 35/31/1 36/32/1
f 37/17/1 38/18/1 39/19/1 40/20/1
f 41/33/1 42/34/1 43/35/1 44/36/1
f 45/37/1 46/38/1 47/39/1 48/40/1
f 49/41/1 50/42/1 51/43/1 52/44/1
f 53/45/1 54/46/1 55/47/1 56/48/1
f 57/9/1 58/10/1 59/11/1 60/12/1
f 61/49/1 62/50/1 63/51/1 64/52/1
f 65/53/1 66/54/1 67/55/1 68/56/1
f 69/57/1 70/58/1 71/59/1 72/60/1
f 73/5/1 74/6/1 75/7/1 76/8/1
f 77/61/1 78/62/1 79/63/1 80/64/1
f 81/65/1 82/66/1 83/67/1 84/68/1
f 85/45/1 86/46/1 87/47/1 88/48/1
f 89/69/1 90/70/1 91/71/1 92/72/1
f 93/73/1 94/74/1 95/75/1 96/76/1
f 97/77/1 98/78/1 99/79/1 100/80/1
f 101/5/1 102/6/1 103/7/1 104/8/1
f 105/81/1 106/82/1 107/83/1 108/84/1
f 109/85/1 110/86/1 111/87/1 112/88/1
f 113/89/1 114/90/1 115/91/1 116/92/1
f 117/93/1 118/94/1 119/95/1 120/96/1
f 121/97/1 122/98/1 123/99/1 124/100/1
f 125/5/1 126/6/1 127/7/1 128/8/1
f 129/5/1 130/6/1 131/7/1 132/8/1
f 133/81/1 134/82/1 135/83/1 136/84/1
f 137/45/1 138/46/1 139/47/1 140/48/1
f 141/41/1 142/42/1 143/43/1 144/44/1
f 145/101/1 146/102/1 147/103/1 148/104/1
f 149/105/1 150/106/1 151/107/1 152/108/1
f 153/5/1 154/6/1 155/7/1 156/8/1
f 157/29/1 158/30/1 159/31/1 160/32/1
f 161/109/1 162/110/1 163/111/1 164/112/1
f 165/113/1 166/114/1 167/115/1 168/116/1
f 169/117/1 170/118/1 171/119/1 172/120/1
f 173/117/1 174/118/1 175/119/1 176/120/1
f 177/121/1 178/122/1 179/123/1 180/124/1
f 181/125/1 182/126/1 183/127/1 184/128/1
f 185/129/1 186/130/1 187/131/1 188/132/1
f 189/117/1 190/118/1 191/119/1 192/120/1
f 193/117/1 194/118/1 195/119/1 196/120/1

