# Tiled2Unity generated file. Do not modify by hand.
# Wavefront file for 'largeRoomDemo_mesh_0001.obj'

# Vertices (Count = 736)
v 0 -3.2 0
v -3.2 -3.2 0
v -3.2 0 0
v 0 0 0
v -3.2 -3.2 0
v -6.4 -3.2 0
v -6.4 0 0
v -3.2 0 0
v -6.4 -3.2 0
v -9.6 -3.2 0
v -9.6 0 0
v -6.4 0 0
v -9.6 -3.2 0
v -12.8 -3.2 0
v -12.8 0 0
v -9.6 0 0
v -12.8 -3.2 0
v -16 -3.2 0
v -16 0 0
v -12.8 0 0
v -16 -3.2 0
v -19.2 -3.2 0
v -19.2 0 0
v -16 0 0
v -19.2 -3.2 0
v -22.4 -3.2 0
v -22.4 0 0
v -19.2 0 0
v -22.4 -3.2 0
v -25.6 -3.2 0
v -25.6 0 0
v -22.4 0 0
v -25.6 -3.2 0
v -28.8 -3.2 0
v -28.8 0 0
v -25.6 0 0
v -28.8 -3.2 0
v -32 -3.2 0
v -32 0 0
v -28.8 0 0
v -32 -3.2 0
v -35.2 -3.2 0
v -35.2 0 0
v -32 0 0
v -35.2 -3.2 0
v -38.4 -3.2 0
v -38.4 0 0
v -35.2 0 0
v -38.4 -3.2 0
v -41.6 -3.2 0
v -41.6 0 0
v -38.4 0 0
v -41.6 -3.2 0
v -44.8 -3.2 0
v -44.8 0 0
v -41.6 0 0
v -44.8 -3.2 0
v -48 -3.2 0
v -48 0 0
v -44.8 0 0
v -48 -3.2 0
v -51.2 -3.2 0
v -51.2 0 0
v -48 0 0
v -51.2 -3.2 0
v -54.4 -3.2 0
v -54.4 0 0
v -51.2 0 0
v -54.4 -3.2 0
v -57.6 -3.2 0
v -57.6 0 0
v -54.4 0 0
v -57.6 -3.2 0
v -60.8 -3.2 0
v -60.8 0 0
v -57.6 0 0
v -60.8 -3.2 0
v -64 -3.2 0
v -64 0 0
v -60.8 0 0
v -64 -3.2 0
v -67.2 -3.2 0
v -67.2 0 0
v -64 0 0
v -67.2 -3.2 0
v -70.4 -3.2 0
v -70.4 0 0
v -67.2 0 0
v -70.4 -3.2 0
v -73.6 -3.2 0
v -73.6 0 0
v -70.4 0 0
v -73.6 -3.2 0
v -76.8 -3.2 0
v -76.8 0 0
v -73.6 0 0
v -76.8 -3.2 0
v -80 -3.2 0
v -80 0 0
v -76.8 0 0
v 0 -6.4 0
v -3.2 -6.4 0
v -3.2 -3.2 0
v 0 -3.2 0
v -3.2 -6.4 0
v -6.4 -6.4 0
v -6.4 -3.2 0
v -3.2 -3.2 0
v -6.4 -6.4 0
v -9.6 -6.4 0
v -9.6 -3.2 0
v -6.4 -3.2 0
v -9.6 -6.4 0
v -12.8 -6.4 0
v -12.8 -3.2 0
v -9.6 -3.2 0
v -12.8 -6.4 0
v -16 -6.4 0
v -16 -3.2 0
v -12.8 -3.2 0
v -16 -6.4 0
v -19.2 -6.4 0
v -19.2 -3.2 0
v -16 -3.2 0
v -19.2 -6.4 0
v -22.4 -6.4 0
v -22.4 -3.2 0
v -19.2 -3.2 0
v -22.4 -6.4 0
v -25.6 -6.4 0
v -25.6 -3.2 0
v -22.4 -3.2 0
v -25.6 -6.4 0
v -28.8 -6.4 0
v -28.8 -3.2 0
v -25.6 -3.2 0
v -28.8 -6.4 0
v -32 -6.4 0
v -32 -3.2 0
v -28.8 -3.2 0
v -32 -6.4 0
v -35.2 -6.4 0
v -35.2 -3.2 0
v -32 -3.2 0
v -35.2 -6.4 0
v -38.4 -6.4 0
v -38.4 -3.2 0
v -35.2 -3.2 0
v -38.4 -6.4 0
v -41.6 -6.4 0
v -41.6 -3.2 0
v -38.4 -3.2 0
v -41.6 -6.4 0
v -44.8 -6.4 0
v -44.8 -3.2 0
v -41.6 -3.2 0
v -44.8 -6.4 0
v -48 -6.4 0
v -48 -3.2 0
v -44.8 -3.2 0
v -48 -6.4 0
v -51.2 -6.4 0
v -51.2 -3.2 0
v -48 -3.2 0
v -51.2 -6.4 0
v -54.4 -6.4 0
v -54.4 -3.2 0
v -51.2 -3.2 0
v -54.4 -6.4 0
v -57.6 -6.4 0
v -57.6 -3.2 0
v -54.4 -3.2 0
v -57.6 -6.4 0
v -60.8 -6.4 0
v -60.8 -3.2 0
v -57.6 -3.2 0
v -60.8 -6.4 0
v -64 -6.4 0
v -64 -3.2 0
v -60.8 -3.2 0
v -64 -6.4 0
v -67.2 -6.4 0
v -67.2 -3.2 0
v -64 -3.2 0
v -67.2 -6.4 0
v -70.4 -6.4 0
v -70.4 -3.2 0
v -67.2 -3.2 0
v -70.4 -6.4 0
v -73.6 -6.4 0
v -73.6 -3.2 0
v -70.4 -3.2 0
v -73.6 -6.4 0
v -76.8 -6.4 0
v -76.8 -3.2 0
v -73.6 -3.2 0
v -76.8 -6.4 0
v -80 -6.4 0
v -80 -3.2 0
v -76.8 -3.2 0
v 0 -9.6 0
v -3.2 -9.6 0
v -3.2 -6.4 0
v 0 -6.4 0
v -3.2 -9.6 0
v -6.4 -9.6 0
v -6.4 -6.4 0
v -3.2 -6.4 0
v -73.6 -9.6 0
v -76.8 -9.6 0
v -76.8 -6.4 0
v -73.6 -6.4 0
v -76.8 -9.6 0
v -80 -9.6 0
v -80 -6.4 0
v -76.8 -6.4 0
v 0 -12.8 0
v -3.2 -12.8 0
v -3.2 -9.6 0
v 0 -9.6 0
v -3.2 -12.8 0
v -6.4 -12.8 0
v -6.4 -9.6 0
v -3.2 -9.6 0
v -73.6 -12.8 0
v -76.8 -12.8 0
v -76.8 -9.6 0
v -73.6 -9.6 0
v -76.8 -12.8 0
v -80 -12.8 0
v -80 -9.6 0
v -76.8 -9.6 0
v 0 -16 0
v -3.2 -16 0
v -3.2 -12.8 0
v 0 -12.8 0
v -3.2 -16 0
v -6.4 -16 0
v -6.4 -12.8 0
v -3.2 -12.8 0
v -73.6 -16 0
v -76.8 -16 0
v -76.8 -12.8 0
v -73.6 -12.8 0
v -76.8 -16 0
v -80 -16 0
v -80 -12.8 0
v -76.8 -12.8 0
v 0 -19.2 0
v -3.2 -19.2 0
v -3.2 -16 0
v 0 -16 0
v -3.2 -19.2 0
v -6.4 -19.2 0
v -6.4 -16 0
v -3.2 -16 0
v -73.6 -19.2 0
v -76.8 -19.2 0
v -76.8 -16 0
v -73.6 -16 0
v -76.8 -19.2 0
v -80 -19.2 0
v -80 -16 0
v -76.8 -16 0
v 0 -22.4 0
v -3.2 -22.4 0
v -3.2 -19.2 0
v 0 -19.2 0
v -3.2 -22.4 0
v -6.4 -22.4 0
v -6.4 -19.2 0
v -3.2 -19.2 0
v -73.6 -22.4 0
v -76.8 -22.4 0
v -76.8 -19.2 0
v -73.6 -19.2 0
v -76.8 -22.4 0
v -80 -22.4 0
v -80 -19.2 0
v -76.8 -19.2 0
v 0 -25.6 0
v -3.2 -25.6 0
v -3.2 -22.4 0
v 0 -22.4 0
v -3.2 -25.6 0
v -6.4 -25.6 0
v -6.4 -22.4 0
v -3.2 -22.4 0
v -73.6 -25.6 0
v -76.8 -25.6 0
v -76.8 -22.4 0
v -73.6 -22.4 0
v -76.8 -25.6 0
v -80 -25.6 0
v -80 -22.4 0
v -76.8 -22.4 0
v 0 -28.8 0
v -3.2 -28.8 0
v -3.2 -25.6 0
v 0 -25.6 0
v -3.2 -28.8 0
v -6.4 -28.8 0
v -6.4 -25.6 0
v -3.2 -25.6 0
v -73.6 -28.8 0
v -76.8 -28.8 0
v -76.8 -25.6 0
v -73.6 -25.6 0
v -76.8 -28.8 0
v -80 -28.8 0
v -80 -25.6 0
v -76.8 -25.6 0
v 0 -32 0
v -3.2 -32 0
v -3.2 -28.8 0
v 0 -28.8 0
v -3.2 -32 0
v -6.4 -32 0
v -6.4 -28.8 0
v -3.2 -28.8 0
v -73.6 -32 0
v -76.8 -32 0
v -76.8 -28.8 0
v -73.6 -28.8 0
v -76.8 -32 0
v -80 -32 0
v -80 -28.8 0
v -76.8 -28.8 0
v 0 -35.2 0
v -3.2 -35.2 0
v -3.2 -32 0
v 0 -32 0
v -3.2 -35.2 0
v -6.4 -35.2 0
v -6.4 -32 0
v -3.2 -32 0
v -73.6 -35.2 0
v -76.8 -35.2 0
v -76.8 -32 0
v -73.6 -32 0
v -76.8 -35.2 0
v -80 -35.2 0
v -80 -32 0
v -76.8 -32 0
v 0 -38.4 0
v -3.2 -38.4 0
v -3.2 -35.2 0
v 0 -35.2 0
v -3.2 -38.4 0
v -6.4 -38.4 0
v -6.4 -35.2 0
v -3.2 -35.2 0
v -73.6 -38.4 0
v -76.8 -38.4 0
v -76.8 -35.2 0
v -73.6 -35.2 0
v -76.8 -38.4 0
v -80 -38.4 0
v -80 -35.2 0
v -76.8 -35.2 0
v 0 -41.6 0
v -3.2 -41.6 0
v -3.2 -38.4 0
v 0 -38.4 0
v -3.2 -41.6 0
v -6.4 -41.6 0
v -6.4 -38.4 0
v -3.2 -38.4 0
v -73.6 -41.6 0
v -76.8 -41.6 0
v -76.8 -38.4 0
v -73.6 -38.4 0
v -76.8 -41.6 0
v -80 -41.6 0
v -80 -38.4 0
v -76.8 -38.4 0
v 0 -44.8 0
v -3.2 -44.8 0
v -3.2 -41.6 0
v 0 -41.6 0
v -3.2 -44.8 0
v -6.4 -44.8 0
v -6.4 -41.6 0
v -3.2 -41.6 0
v -73.6 -44.8 0
v -76.8 -44.8 0
v -76.8 -41.6 0
v -73.6 -41.6 0
v -76.8 -44.8 0
v -80 -44.8 0
v -80 -41.6 0
v -76.8 -41.6 0
v 0 -48 0
v -3.2 -48 0
v -3.2 -44.8 0
v 0 -44.8 0
v -3.2 -48 0
v -6.4 -48 0
v -6.4 -44.8 0
v -3.2 -44.8 0
v -73.6 -48 0
v -76.8 -48 0
v -76.8 -44.8 0
v -73.6 -44.8 0
v -76.8 -48 0
v -80 -48 0
v -80 -44.8 0
v -76.8 -44.8 0
v 0 -51.2 0
v -3.2 -51.2 0
v -3.2 -48 0
v 0 -48 0
v -3.2 -51.2 0
v -6.4 -51.2 0
v -6.4 -48 0
v -3.2 -48 0
v -73.6 -51.2 0
v -76.8 -51.2 0
v -76.8 -48 0
v -73.6 -48 0
v -76.8 -51.2 0
v -80 -51.2 0
v -80 -48 0
v -76.8 -48 0
v 0 -54.4 0
v -3.2 -54.4 0
v -3.2 -51.2 0
v 0 -51.2 0
v -3.2 -54.4 0
v -6.4 -54.4 0
v -6.4 -51.2 0
v -3.2 -51.2 0
v -73.6 -54.4 0
v -76.8 -54.4 0
v -76.8 -51.2 0
v -73.6 -51.2 0
v -76.8 -54.4 0
v -80 -54.4 0
v -80 -51.2 0
v -76.8 -51.2 0
v 0 -57.6 0
v -3.2 -57.6 0
v -3.2 -54.4 0
v 0 -54.4 0
v -3.2 -57.6 0
v -6.4 -57.6 0
v -6.4 -54.4 0
v -3.2 -54.4 0
v -73.6 -57.6 0
v -76.8 -57.6 0
v -76.8 -54.4 0
v -73.6 -54.4 0
v -76.8 -57.6 0
v -80 -57.6 0
v -80 -54.4 0
v -76.8 -54.4 0
v 0 -60.8 0
v -3.2 -60.8 0
v -3.2 -57.6 0
v 0 -57.6 0
v -3.2 -60.8 0
v -6.4 -60.8 0
v -6.4 -57.6 0
v -3.2 -57.6 0
v -73.6 -60.8 0
v -76.8 -60.8 0
v -76.8 -57.6 0
v -73.6 -57.6 0
v -76.8 -60.8 0
v -80 -60.8 0
v -80 -57.6 0
v -76.8 -57.6 0
v 0 -64 0
v -3.2 -64 0
v -3.2 -60.8 0
v 0 -60.8 0
v -3.2 -64 0
v -6.4 -64 0
v -6.4 -60.8 0
v -3.2 -60.8 0
v -73.6 -64 0
v -76.8 -64 0
v -76.8 -60.8 0
v -73.6 -60.8 0
v -76.8 -64 0
v -80 -64 0
v -80 -60.8 0
v -76.8 -60.8 0
v 0 -67.2 0
v -3.2 -67.2 0
v -3.2 -64 0
v 0 -64 0
v -3.2 -67.2 0
v -6.4 -67.2 0
v -6.4 -64 0
v -3.2 -64 0
v -73.6 -67.2 0
v -76.8 -67.2 0
v -76.8 -64 0
v -73.6 -64 0
v -76.8 -67.2 0
v -80 -67.2 0
v -80 -64 0
v -76.8 -64 0
v 0 -70.4 0
v -3.2 -70.4 0
v -3.2 -67.2 0
v 0 -67.2 0
v -3.2 -70.4 0
v -6.4 -70.4 0
v -6.4 -67.2 0
v -3.2 -67.2 0
v -73.6 -70.4 0
v -76.8 -70.4 0
v -76.8 -67.2 0
v -73.6 -67.2 0
v -76.8 -70.4 0
v -80 -70.4 0
v -80 -67.2 0
v -76.8 -67.2 0
v 0 -73.6 0
v -3.2 -73.6 0
v -3.2 -70.4 0
v 0 -70.4 0
v -3.2 -73.6 0
v -6.4 -73.6 0
v -6.4 -70.4 0
v -3.2 -70.4 0
v -73.6 -73.6 0
v -76.8 -73.6 0
v -76.8 -70.4 0
v -73.6 -70.4 0
v -76.8 -73.6 0
v -80 -73.6 0
v -80 -70.4 0
v -76.8 -70.4 0
v 0 -76.8 0
v -3.2 -76.8 0
v -3.2 -73.6 0
v 0 -73.6 0
v -3.2 -76.8 0
v -6.4 -76.8 0
v -6.4 -73.6 0
v -3.2 -73.6 0
v -6.4 -76.8 0
v -9.6 -76.8 0
v -9.6 -73.6 0
v -6.4 -73.6 0
v -9.6 -76.8 0
v -12.8 -76.8 0
v -12.8 -73.6 0
v -9.6 -73.6 0
v -12.8 -76.8 0
v -16 -76.8 0
v -16 -73.6 0
v -12.8 -73.6 0
v -16 -76.8 0
v -19.2 -76.8 0
v -19.2 -73.6 0
v -16 -73.6 0
v -19.2 -76.8 0
v -22.4 -76.8 0
v -22.4 -73.6 0
v -19.2 -73.6 0
v -22.4 -76.8 0
v -25.6 -76.8 0
v -25.6 -73.6 0
v -22.4 -73.6 0
v -25.6 -76.8 0
v -28.8 -76.8 0
v -28.8 -73.6 0
v -25.6 -73.6 0
v -28.8 -76.8 0
v -32 -76.8 0
v -32 -73.6 0
v -28.8 -73.6 0
v -32 -76.8 0
v -35.2 -76.8 0
v -35.2 -73.6 0
v -32 -73.6 0
v -35.2 -76.8 0
v -38.4 -76.8 0
v -38.4 -73.6 0
v -35.2 -73.6 0
v -38.4 -76.8 0
v -41.6 -76.8 0
v -41.6 -73.6 0
v -38.4 -73.6 0
v -41.6 -76.8 0
v -44.8 -76.8 0
v -44.8 -73.6 0
v -41.6 -73.6 0
v -44.8 -76.8 0
v -48 -76.8 0
v -48 -73.6 0
v -44.8 -73.6 0
v -48 -76.8 0
v -51.2 -76.8 0
v -51.2 -73.6 0
v -48 -73.6 0
v -51.2 -76.8 0
v -54.4 -76.8 0
v -54.4 -73.6 0
v -51.2 -73.6 0
v -54.4 -76.8 0
v -57.6 -76.8 0
v -57.6 -73.6 0
v -54.4 -73.6 0
v -57.6 -76.8 0
v -60.8 -76.8 0
v -60.8 -73.6 0
v -57.6 -73.6 0
v -60.8 -76.8 0
v -64 -76.8 0
v -64 -73.6 0
v -60.8 -73.6 0
v -64 -76.8 0
v -67.2 -76.8 0
v -67.2 -73.6 0
v -64 -73.6 0
v -67.2 -76.8 0
v -70.4 -76.8 0
v -70.4 -73.6 0
v -67.2 -73.6 0
v -70.4 -76.8 0
v -73.6 -76.8 0
v -73.6 -73.6 0
v -70.4 -73.6 0
v -73.6 -76.8 0
v -76.8 -76.8 0
v -76.8 -73.6 0
v -73.6 -73.6 0
v -76.8 -76.8 0
v -80 -76.8 0
v -80 -73.6 0
v -76.8 -73.6 0
v 0 -80 0
v -3.2 -80 0
v -3.2 -76.8 0
v 0 -76.8 0
v -3.2 -80 0
v -6.4 -80 0
v -6.4 -76.8 0
v -3.2 -76.8 0
v -6.4 -80 0
v -9.6 -80 0
v -9.6 -76.8 0
v -6.4 -76.8 0
v -9.6 -80 0
v -12.8 -80 0
v -12.8 -76.8 0
v -9.6 -76.8 0
v -12.8 -80 0
v -16 -80 0
v -16 -76.8 0
v -12.8 -76.8 0
v -16 -80 0
v -19.2 -80 0
v -19.2 -76.8 0
v -16 -76.8 0
v -19.2 -80 0
v -22.4 -80 0
v -22.4 -76.8 0
v -19.2 -76.8 0
v -22.4 -80 0
v -25.6 -80 0
v -25.6 -76.8 0
v -22.4 -76.8 0
v -25.6 -80 0
v -28.8 -80 0
v -28.8 -76.8 0
v -25.6 -76.8 0
v -28.8 -80 0
v -32 -80 0
v -32 -76.8 0
v -28.8 -76.8 0
v -32 -80 0
v -35.2 -80 0
v -35.2 -76.8 0
v -32 -76.8 0
v -35.2 -80 0
v -38.4 -80 0
v -38.4 -76.8 0
v -35.2 -76.8 0
v -38.4 -80 0
v -41.6 -80 0
v -41.6 -76.8 0
v -38.4 -76.8 0
v -41.6 -80 0
v -44.8 -80 0
v -44.8 -76.8 0
v -41.6 -76.8 0
v -44.8 -80 0
v -48 -80 0
v -48 -76.8 0
v -44.8 -76.8 0
v -48 -80 0
v -51.2 -80 0
v -51.2 -76.8 0
v -48 -76.8 0
v -51.2 -80 0
v -54.4 -80 0
v -54.4 -76.8 0
v -51.2 -76.8 0
v -54.4 -80 0
v -57.6 -80 0
v -57.6 -76.8 0
v -54.4 -76.8 0
v -57.6 -80 0
v -60.8 -80 0
v -60.8 -76.8 0
v -57.6 -76.8 0
v -60.8 -80 0
v -64 -80 0
v -64 -76.8 0
v -60.8 -76.8 0
v -64 -80 0
v -67.2 -80 0
v -67.2 -76.8 0
v -64 -76.8 0
v -67.2 -80 0
v -70.4 -80 0
v -70.4 -76.8 0
v -67.2 -76.8 0
v -70.4 -80 0
v -73.6 -80 0
v -73.6 -76.8 0
v -70.4 -76.8 0
v -73.6 -80 0
v -76.8 -80 0
v -76.8 -76.8 0
v -73.6 -76.8 0
v -76.8 -80 0
v -80 -80 0
v -80 -76.8 0
v -76.8 -76.8 0

# Texture cooridinates (Count = 8)
vt 0.78125 0.875
vt 0.8125 0.875
vt 0.8125 0.90625
vt 0.78125 0.90625
vt 0.3125 0.875
vt 0.34375 0.875
vt 0.34375 0.90625
vt 0.3125 0.90625

# Normal
vn 0 0 -1

# Mesh description
g largeRoomDemo_mesh_0001

# Faces
f 1/1/1 2/2/1 3/3/1 4/4/1
f 5/1/1 6/2/1 7/3/1 8/4/1
f 9/1/1 10/2/1 11/3/1 12/4/1
f 13/1/1 14/2/1 15/3/1 16/4/1
f 17/1/1 18/2/1 19/3/1 20/4/1
f 21/1/1 22/2/1 23/3/1 24/4/1
f 25/1/1 26/2/1 27/3/1 28/4/1
f 29/1/1 30/2/1 31/3/1 32/4/1
f 33/1/1 34/2/1 35/3/1 36/4/1
f 37/1/1 38/2/1 39/3/1 40/4/1
f 41/1/1 42/2/1 43/3/1 44/4/1
f 45/1/1 46/2/1 47/3/1 48/4/1
f 49/1/1 50/2/1 51/3/1 52/4/1
f 53/1/1 54/2/1 55/3/1 56/4/1
f 57/1/1 58/2/1 59/3/1 60/4/1
f 61/1/1 62/2/1 63/3/1 64/4/1
f 65/1/1 66/2/1 67/3/1 68/4/1
f 69/1/1 70/2/1 71/3/1 72/4/1
f 73/1/1 74/2/1 75/3/1 76/4/1
f 77/1/1 78/2/1 79/3/1 80/4/1
f 81/1/1 82/2/1 83/3/1 84/4/1
f 85/1/1 86/2/1 87/3/1 88/4/1
f 89/1/1 90/2/1 91/3/1 92/4/1
f 93/1/1 94/2/1 95/3/1 96/4/1
f 97/1/1 98/2/1 99/3/1 100/4/1
f 101/1/1 102/2/1 103/3/1 104/4/1
f 105/5/1 106/6/1 107/7/1 108/8/1
f 109/5/1 110/6/1 111/7/1 112/8/1
f 113/5/1 114/6/1 115/7/1 116/8/1
f 117/5/1 118/6/1 119/7/1 120/8/1
f 121/5/1 122/6/1 123/7/1 124/8/1
f 125/5/1 126/6/1 127/7/1 128/8/1
f 129/5/1 130/6/1 131/7/1 132/8/1
f 133/5/1 134/6/1 135/7/1 136/8/1
f 137/5/1 138/6/1 139/7/1 140/8/1
f 141/5/1 142/6/1 143/7/1 144/8/1
f 145/5/1 146/6/1 147/7/1 148/8/1
f 149/5/1 150/6/1 151/7/1 152/8/1
f 153/5/1 154/6/1 155/7/1 156/8/1
f 157/5/1 158/6/1 159/7/1 160/8/1
f 161/5/1 162/6/1 163/7/1 164/8/1
f 165/5/1 166/6/1 167/7/1 168/8/1
f 169/5/1 170/6/1 171/7/1 172/8/1
f 173/5/1 174/6/1 175/7/1 176/8/1
f 177/5/1 178/6/1 179/7/1 180/8/1
f 181/5/1 182/6/1 183/7/1 184/8/1
f 185/5/1 186/6/1 187/7/1 188/8/1
f 189/5/1 190/6/1 191/7/1 192/8/1
f 193/5/1 194/6/1 195/7/1 196/8/1
f 197/1/1 198/2/1 199/3/1 200/4/1
f 201/1/1 202/2/1 203/3/1 204/4/1
f 205/5/1 206/6/1 207/7/1 208/8/1
f 209/5/1 210/6/1 211/7/1 212/8/1
f 213/1/1 214/2/1 215/3/1 216/4/1
f 217/1/1 218/2/1 219/3/1 220/4/1
f 221/5/1 222/6/1 223/7/1 224/8/1
f 225/5/1 226/6/1 227/7/1 228/8/1
f 229/1/1 230/2/1 231/3/1 232/4/1
f 233/1/1 234/2/1 235/3/1 236/4/1
f 237/5/1 238/6/1 239/7/1 240/8/1
f 241/5/1 242/6/1 243/7/1 244/8/1
f 245/1/1 246/2/1 247/3/1 248/4/1
f 249/1/1 250/2/1 251/3/1 252/4/1
f 253/5/1 254/6/1 255/7/1 256/8/1
f 257/5/1 258/6/1 259/7/1 260/8/1
f 261/1/1 262/2/1 263/3/1 264/4/1
f 265/1/1 266/2/1 267/3/1 268/4/1
f 269/5/1 270/6/1 271/7/1 272/8/1
f 273/5/1 274/6/1 275/7/1 276/8/1
f 277/1/1 278/2/1 279/3/1 280/4/1
f 281/1/1 282/2/1 283/3/1 284/4/1
f 285/5/1 286/6/1 287/7/1 288/8/1
f 289/5/1 290/6/1 291/7/1 292/8/1
f 293/1/1 294/2/1 295/3/1 296/4/1
f 297/1/1 298/2/1 299/3/1 300/4/1
f 301/5/1 302/6/1 303/7/1 304/8/1
f 305/5/1 306/6/1 307/7/1 308/8/1
f 309/1/1 310/2/1 311/3/1 312/4/1
f 313/1/1 314/2/1 315/3/1 316/4/1
f 317/5/1 318/6/1 319/7/1 320/8/1
f 321/5/1 322/6/1 323/7/1 324/8/1
f 325/1/1 326/2/1 327/3/1 328/4/1
f 329/1/1 330/2/1 331/3/1 332/4/1
f 333/5/1 334/6/1 335/7/1 336/8/1
f 337/5/1 338/6/1 339/7/1 340/8/1
f 341/1/1 342/2/1 343/3/1 344/4/1
f 345/1/1 346/2/1 347/3/1 348/4/1
f 349/5/1 350/6/1 351/7/1 352/8/1
f 353/5/1 354/6/1 355/7/1 356/8/1
f 357/1/1 358/2/1 359/3/1 360/4/1
f 361/1/1 362/2/1 363/3/1 364/4/1
f 365/5/1 366/6/1 367/7/1 368/8/1
f 369/5/1 370/6/1 371/7/1 372/8/1
f 373/1/1 374/2/1 375/3/1 376/4/1
f 377/1/1 378/2/1 379/3/1 380/4/1
f 381/5/1 382/6/1 383/7/1 384/8/1
f 385/5/1 386/6/1 387/7/1 388/8/1
f 389/1/1 390/2/1 391/3/1 392/4/1
f 393/1/1 394/2/1 395/3/1 396/4/1
f 397/5/1 398/6/1 399/7/1 400/8/1
f 401/5/1 402/6/1 403/7/1 404/8/1
f 405/1/1 406/2/1 407/3/1 408/4/1
f 409/1/1 410/2/1 411/3/1 412/4/1
f 413/5/1 414/6/1 415/7/1 416/8/1
f 417/5/1 418/6/1 419/7/1 420/8/1
f 421/1/1 422/2/1 423/3/1 424/4/1
f 425/1/1 426/2/1 427/3/1 428/4/1
f 429/5/1 430/6/1 431/7/1 432/8/1
f 433/5/1 434/6/1 435/7/1 436/8/1
f 437/1/1 438/2/1 439/3/1 440/4/1
f 441/1/1 442/2/1 443/3/1 444/4/1
f 445/5/1 446/6/1 447/7/1 448/8/1
f 449/5/1 450/6/1 451/7/1 452/8/1
f 453/1/1 454/2/1 455/3/1 456/4/1
f 457/1/1 458/2/1 459/3/1 460/4/1
f 461/5/1 462/6/1 463/7/1 464/8/1
f 465/5/1 466/6/1 467/7/1 468/8/1
f 469/1/1 470/2/1 471/3/1 472/4/1
f 473/1/1 474/2/1 475/3/1 476/4/1
f 477/5/1 478/6/1 479/7/1 480/8/1
f 481/5/1 482/6/1 483/7/1 484/8/1
f 485/1/1 486/2/1 487/3/1 488/4/1
f 489/1/1 490/2/1 491/3/1 492/4/1
f 493/5/1 494/6/1 495/7/1 496/8/1
f 497/5/1 498/6/1 499/7/1 500/8/1
f 501/1/1 502/2/1 503/3/1 504/4/1
f 505/1/1 506/2/1 507/3/1 508/4/1
f 509/5/1 510/6/1 511/7/1 512/8/1
f 513/5/1 514/6/1 515/7/1 516/8/1
f 517/1/1 518/2/1 519/3/1 520/4/1
f 521/1/1 522/2/1 523/3/1 524/4/1
f 525/5/1 526/6/1 527/7/1 528/8/1
f 529/5/1 530/6/1 531/7/1 532/8/1
f 533/1/1 534/2/1 535/3/1 536/4/1
f 537/1/1 538/2/1 539/3/1 540/4/1
f 541/5/1 542/6/1 543/7/1 544/8/1
f 545/5/1 546/6/1 547/7/1 548/8/1
f 549/5/1 550/6/1 551/7/1 552/8/1
f 553/5/1 554/6/1 555/7/1 556/8/1
f 557/5/1 558/6/1 559/7/1 560/8/1
f 561/5/1 562/6/1 563/7/1 564/8/1
f 565/5/1 566/6/1 567/7/1 568/8/1
f 569/5/1 570/6/1 571/7/1 572/8/1
f 573/5/1 574/6/1 575/7/1 576/8/1
f 577/5/1 578/6/1 579/7/1 580/8/1
f 581/5/1 582/6/1 583/7/1 584/8/1
f 585/5/1 586/6/1 587/7/1 588/8/1
f 589/5/1 590/6/1 591/7/1 592/8/1
f 593/5/1 594/6/1 595/7/1 596/8/1
f 597/5/1 598/6/1 599/7/1 600/8/1
f 601/5/1 602/6/1 603/7/1 604/8/1
f 605/5/1 606/6/1 607/7/1 608/8/1
f 609/5/1 610/6/1 611/7/1 612/8/1
f 613/5/1 614/6/1 615/7/1 616/8/1
f 617/5/1 618/6/1 619/7/1 620/8/1
f 621/5/1 622/6/1 623/7/1 624/8/1
f 625/5/1 626/6/1 627/7/1 628/8/1
f 629/5/1 630/6/1 631/7/1 632/8/1
f 633/1/1 634/2/1 635/3/1 636/4/1
f 637/1/1 638/2/1 639/3/1 640/4/1
f 641/1/1 642/2/1 643/3/1 644/4/1
f 645/1/1 646/2/1 647/3/1 648/4/1
f 649/1/1 650/2/1 651/3/1 652/4/1
f 653/1/1 654/2/1 655/3/1 656/4/1
f 657/1/1 658/2/1 659/3/1 660/4/1
f 661/1/1 662/2/1 663/3/1 664/4/1
f 665/1/1 666/2/1 667/3/1 668/4/1
f 669/1/1 670/2/1 671/3/1 672/4/1
f 673/1/1 674/2/1 675/3/1 676/4/1
f 677/1/1 678/2/1 679/3/1 680/4/1
f 681/1/1 682/2/1 683/3/1 684/4/1
f 685/1/1 686/2/1 687/3/1 688/4/1
f 689/1/1 690/2/1 691/3/1 692/4/1
f 693/1/1 694/2/1 695/3/1 696/4/1
f 697/1/1 698/2/1 699/3/1 700/4/1
f 701/1/1 702/2/1 703/3/1 704/4/1
f 705/1/1 706/2/1 707/3/1 708/4/1
f 709/1/1 710/2/1 711/3/1 712/4/1
f 713/1/1 714/2/1 715/3/1 716/4/1
f 717/1/1 718/2/1 719/3/1 720/4/1
f 721/1/1 722/2/1 723/3/1 724/4/1
f 725/1/1 726/2/1 727/3/1 728/4/1
f 729/1/1 730/2/1 731/3/1 732/4/1
f 733/1/1 734/2/1 735/3/1 736/4/1

