# Tiled2Unity generated file. Do not modify by hand.
# Wavefront file for 'smallRoomDemo_mesh_0003.obj'

# Vertices (Count = 36)
v -6.4 -16 0
v -16 -16 0
v -16 -6.4 0
v -6.4 -6.4 0
v -16 -16 0
v -25.6 -16 0
v -25.6 -6.4 0
v -16 -6.4 0
v -25.6 -16 0
v -35.2 -16 0
v -35.2 -6.4 0
v -25.6 -6.4 0
v -6.4 -25.6 0
v -16 -25.6 0
v -16 -16 0
v -6.4 -16 0
v -16 -25.6 0
v -25.6 -25.6 0
v -25.6 -16 0
v -16 -16 0
v -25.6 -25.6 0
v -35.2 -25.6 0
v -35.2 -16 0
v -25.6 -16 0
v -6.4 -35.2 0
v -16 -35.2 0
v -16 -25.6 0
v -6.4 -25.6 0
v -16 -35.2 0
v -25.6 -35.2 0
v -25.6 -25.6 0
v -16 -25.6 0
v -25.6 -35.2 0
v -35.2 -35.2 0
v -35.2 -25.6 0
v -25.6 -25.6 0

# Texture cooridinates (Count = 36)
vt 0.3076923 0.5818182
vt 0.3406594 0.5818182
vt 0.3406594 0.6363636
vt 0.3076923 0.6363636
vt 0.1758242 0.5818182
vt 0.2087912 0.5818182
vt 0.2087912 0.6363636
vt 0.1758242 0.6363636
vt 0.2637363 0.1454545
vt 0.2967033 0.1454545
vt 0.2967033 0.2
vt 0.2637363 0.2
vt 0.1758242 0.2181818
vt 0.2087912 0.2181818
vt 0.2087912 0.2727273
vt 0.1758242 0.2727273
vt 0.08791209 0
vt 0.1208791 0
vt 0.1208791 0.05454546
vt 0.08791209 0.05454546
vt 0.08791209 0.6545454
vt 0.1208791 0.6545454
vt 0.1208791 0.7090909
vt 0.08791209 0.7090909
vt 0.1758242 0.1454545
vt 0.2087912 0.1454545
vt 0.2087912 0.2
vt 0.1758242 0.2
vt 0 0.9454545
vt 0.03296703 0.9454545
vt 0.03296703 1
vt 0 1
vt 0.5714286 0.8
vt 0.6043956 0.8
vt 0.6043956 0.8545455
vt 0.5714286 0.8545455

# Normal
vn 0 0 -1

# Mesh description
g smallRoomDemo_mesh_0003

# Faces
f 1/1/1 2/2/1 3/3/1 4/4/1
f 5/5/1 6/6/1 7/7/1 8/8/1
f 9/9/1 10/10/1 11/11/1 12/12/1
f 13/13/1 14/14/1 15/15/1 16/16/1
f 17/17/1 18/18/1 19/19/1 20/20/1
f 21/21/1 22/22/1 23/23/1 24/24/1
f 25/25/1 26/26/1 27/27/1 28/28/1
f 29/29/1 30/30/1 31/31/1 32/32/1
f 33/33/1 34/34/1 35/35/1 36/36/1

