# Tiled2Unity generated file. Do not modify by hand.
# Wavefront file for 'finalRoomBoss_mesh_0004.obj'

# Vertices (Count = 536)
v -6.4 -9.6 0
v -9.6 -9.6 0
v -9.6 -6.4 0
v -6.4 -6.4 0
v -9.6 -9.6 0
v -12.8 -9.6 0
v -12.8 -6.4 0
v -9.6 -6.4 0
v -12.8 -9.6 0
v -16 -9.6 0
v -16 -6.4 0
v -12.8 -6.4 0
v -16 -9.6 0
v -19.2 -9.6 0
v -19.2 -6.4 0
v -16 -6.4 0
v -19.2 -9.6 0
v -22.4 -9.6 0
v -22.4 -6.4 0
v -19.2 -6.4 0
v -57.6 -9.6 0
v -60.8 -9.6 0
v -60.8 -6.4 0
v -57.6 -6.4 0
v -60.8 -9.6 0
v -64 -9.6 0
v -64 -6.4 0
v -60.8 -6.4 0
v -64 -9.6 0
v -67.2 -9.6 0
v -67.2 -6.4 0
v -64 -6.4 0
v -67.2 -9.6 0
v -70.4 -9.6 0
v -70.4 -6.4 0
v -67.2 -6.4 0
v -70.4 -9.6 0
v -73.6 -9.6 0
v -73.6 -6.4 0
v -70.4 -6.4 0
v -6.4 -12.8 0
v -9.6 -12.8 0
v -9.6 -9.6 0
v -6.4 -9.6 0
v -9.6 -12.8 0
v -12.8 -12.8 0
v -12.8 -9.6 0
v -9.6 -9.6 0
v -12.8 -12.8 0
v -16 -12.8 0
v -16 -9.6 0
v -12.8 -9.6 0
v -16 -12.8 0
v -19.2 -12.8 0
v -19.2 -9.6 0
v -16 -9.6 0
v -60.8 -12.8 0
v -64 -12.8 0
v -64 -9.6 0
v -60.8 -9.6 0
v -64 -12.8 0
v -67.2 -12.8 0
v -67.2 -9.6 0
v -64 -9.6 0
v -67.2 -12.8 0
v -70.4 -12.8 0
v -70.4 -9.6 0
v -67.2 -9.6 0
v -70.4 -12.8 0
v -73.6 -12.8 0
v -73.6 -9.6 0
v -70.4 -9.6 0
v -6.4 -16 0
v -9.6 -16 0
v -9.6 -12.8 0
v -6.4 -12.8 0
v -9.6 -16 0
v -12.8 -16 0
v -12.8 -12.8 0
v -9.6 -12.8 0
v -12.8 -16 0
v -16 -16 0
v -16 -12.8 0
v -12.8 -12.8 0
v -64 -16 0
v -67.2 -16 0
v -67.2 -12.8 0
v -64 -12.8 0
v -67.2 -16 0
v -70.4 -16 0
v -70.4 -12.8 0
v -67.2 -12.8 0
v -70.4 -16 0
v -73.6 -16 0
v -73.6 -12.8 0
v -70.4 -12.8 0
v -6.4 -19.2 0
v -9.6 -19.2 0
v -9.6 -16 0
v -6.4 -16 0
v -9.6 -19.2 0
v -12.8 -19.2 0
v -12.8 -16 0
v -9.6 -16 0
v -67.2 -19.2 0
v -70.4 -19.2 0
v -70.4 -16 0
v -67.2 -16 0
v -70.4 -19.2 0
v -73.6 -19.2 0
v -73.6 -16 0
v -70.4 -16 0
v -6.4 -22.4 0
v -9.6 -22.4 0
v -9.6 -19.2 0
v -6.4 -19.2 0
v -35.2 -22.4 0
v -38.4 -22.4 0
v -38.4 -19.2 0
v -35.2 -19.2 0
v -38.4 -22.4 0
v -41.6 -22.4 0
v -41.6 -19.2 0
v -38.4 -19.2 0
v -41.6 -22.4 0
v -44.8 -22.4 0
v -44.8 -19.2 0
v -41.6 -19.2 0
v -70.4 -22.4 0
v -73.6 -22.4 0
v -73.6 -19.2 0
v -70.4 -19.2 0
v -35.2 -25.6 0
v -38.4 -25.6 0
v -38.4 -22.4 0
v -35.2 -22.4 0
v -38.4 -25.6 0
v -41.6 -25.6 0
v -41.6 -22.4 0
v -38.4 -22.4 0
v -41.6 -25.6 0
v -44.8 -25.6 0
v -44.8 -22.4 0
v -41.6 -22.4 0
v -12.8 -32 0
v -16 -32 0
v -16 -28.8 0
v -12.8 -28.8 0
v -16 -32 0
v -19.2 -32 0
v -19.2 -28.8 0
v -16 -28.8 0
v -35.2 -32 0
v -38.4 -32 0
v -38.4 -28.8 0
v -35.2 -28.8 0
v -41.6 -32 0
v -44.8 -32 0
v -44.8 -28.8 0
v -41.6 -28.8 0
v -60.8 -32 0
v -64 -32 0
v -64 -28.8 0
v -60.8 -28.8 0
v -64 -32 0
v -67.2 -32 0
v -67.2 -28.8 0
v -64 -28.8 0
v -9.6 -35.2 0
v -12.8 -35.2 0
v -12.8 -32 0
v -9.6 -32 0
v -12.8 -35.2 0
v -16 -35.2 0
v -16 -32 0
v -12.8 -32 0
v -16 -35.2 0
v -19.2 -35.2 0
v -19.2 -32 0
v -16 -32 0
v -19.2 -35.2 0
v -22.4 -35.2 0
v -22.4 -32 0
v -19.2 -32 0
v -35.2 -35.2 0
v -38.4 -35.2 0
v -38.4 -32 0
v -35.2 -32 0
v -41.6 -35.2 0
v -44.8 -35.2 0
v -44.8 -32 0
v -41.6 -32 0
v -57.6 -35.2 0
v -60.8 -35.2 0
v -60.8 -32 0
v -57.6 -32 0
v -60.8 -35.2 0
v -64 -35.2 0
v -64 -32 0
v -60.8 -32 0
v -64 -35.2 0
v -67.2 -35.2 0
v -67.2 -32 0
v -64 -32 0
v -67.2 -35.2 0
v -70.4 -35.2 0
v -70.4 -32 0
v -67.2 -32 0
v -9.6 -38.4 0
v -12.8 -38.4 0
v -12.8 -35.2 0
v -9.6 -35.2 0
v -12.8 -38.4 0
v -16 -38.4 0
v -16 -35.2 0
v -12.8 -35.2 0
v -16 -38.4 0
v -19.2 -38.4 0
v -19.2 -35.2 0
v -16 -35.2 0
v -19.2 -38.4 0
v -22.4 -38.4 0
v -22.4 -35.2 0
v -19.2 -35.2 0
v -35.2 -38.4 0
v -38.4 -38.4 0
v -38.4 -35.2 0
v -35.2 -35.2 0
v -41.6 -38.4 0
v -44.8 -38.4 0
v -44.8 -35.2 0
v -41.6 -35.2 0
v -57.6 -38.4 0
v -60.8 -38.4 0
v -60.8 -35.2 0
v -57.6 -35.2 0
v -60.8 -38.4 0
v -64 -38.4 0
v -64 -35.2 0
v -60.8 -35.2 0
v -64 -38.4 0
v -67.2 -38.4 0
v -67.2 -35.2 0
v -64 -35.2 0
v -67.2 -38.4 0
v -70.4 -38.4 0
v -70.4 -35.2 0
v -67.2 -35.2 0
v -9.6 -41.6 0
v -12.8 -41.6 0
v -12.8 -38.4 0
v -9.6 -38.4 0
v -12.8 -41.6 0
v -16 -41.6 0
v -16 -38.4 0
v -12.8 -38.4 0
v -16 -41.6 0
v -19.2 -41.6 0
v -19.2 -38.4 0
v -16 -38.4 0
v -19.2 -41.6 0
v -22.4 -41.6 0
v -22.4 -38.4 0
v -19.2 -38.4 0
v -35.2 -41.6 0
v -38.4 -41.6 0
v -38.4 -38.4 0
v -35.2 -38.4 0
v -41.6 -41.6 0
v -44.8 -41.6 0
v -44.8 -38.4 0
v -41.6 -38.4 0
v -57.6 -41.6 0
v -60.8 -41.6 0
v -60.8 -38.4 0
v -57.6 -38.4 0
v -60.8 -41.6 0
v -64 -41.6 0
v -64 -38.4 0
v -60.8 -38.4 0
v -64 -41.6 0
v -67.2 -41.6 0
v -67.2 -38.4 0
v -64 -38.4 0
v -67.2 -41.6 0
v -70.4 -41.6 0
v -70.4 -38.4 0
v -67.2 -38.4 0
v -9.6 -44.8 0
v -12.8 -44.8 0
v -12.8 -41.6 0
v -9.6 -41.6 0
v -12.8 -44.8 0
v -16 -44.8 0
v -16 -41.6 0
v -12.8 -41.6 0
v -16 -44.8 0
v -19.2 -44.8 0
v -19.2 -41.6 0
v -16 -41.6 0
v -19.2 -44.8 0
v -22.4 -44.8 0
v -22.4 -41.6 0
v -19.2 -41.6 0
v -35.2 -44.8 0
v -38.4 -44.8 0
v -38.4 -41.6 0
v -35.2 -41.6 0
v -41.6 -44.8 0
v -44.8 -44.8 0
v -44.8 -41.6 0
v -41.6 -41.6 0
v -57.6 -44.8 0
v -60.8 -44.8 0
v -60.8 -41.6 0
v -57.6 -41.6 0
v -60.8 -44.8 0
v -64 -44.8 0
v -64 -41.6 0
v -60.8 -41.6 0
v -64 -44.8 0
v -67.2 -44.8 0
v -67.2 -41.6 0
v -64 -41.6 0
v -67.2 -44.8 0
v -70.4 -44.8 0
v -70.4 -41.6 0
v -67.2 -41.6 0
v -9.6 -48 0
v -12.8 -48 0
v -12.8 -44.8 0
v -9.6 -44.8 0
v -12.8 -48 0
v -16 -48 0
v -16 -44.8 0
v -12.8 -44.8 0
v -16 -48 0
v -19.2 -48 0
v -19.2 -44.8 0
v -16 -44.8 0
v -19.2 -48 0
v -22.4 -48 0
v -22.4 -44.8 0
v -19.2 -44.8 0
v -35.2 -48 0
v -38.4 -48 0
v -38.4 -44.8 0
v -35.2 -44.8 0
v -41.6 -48 0
v -44.8 -48 0
v -44.8 -44.8 0
v -41.6 -44.8 0
v -57.6 -48 0
v -60.8 -48 0
v -60.8 -44.8 0
v -57.6 -44.8 0
v -60.8 -48 0
v -64 -48 0
v -64 -44.8 0
v -60.8 -44.8 0
v -64 -48 0
v -67.2 -48 0
v -67.2 -44.8 0
v -64 -44.8 0
v -67.2 -48 0
v -70.4 -48 0
v -70.4 -44.8 0
v -67.2 -44.8 0
v -12.8 -51.2 0
v -16 -51.2 0
v -16 -48 0
v -12.8 -48 0
v -16 -51.2 0
v -19.2 -51.2 0
v -19.2 -48 0
v -16 -48 0
v -35.2 -51.2 0
v -38.4 -51.2 0
v -38.4 -48 0
v -35.2 -48 0
v -41.6 -51.2 0
v -44.8 -51.2 0
v -44.8 -48 0
v -41.6 -48 0
v -60.8 -51.2 0
v -64 -51.2 0
v -64 -48 0
v -60.8 -48 0
v -64 -51.2 0
v -67.2 -51.2 0
v -67.2 -48 0
v -64 -48 0
v -35.2 -57.6 0
v -38.4 -57.6 0
v -38.4 -54.4 0
v -35.2 -54.4 0
v -38.4 -57.6 0
v -41.6 -57.6 0
v -41.6 -54.4 0
v -38.4 -54.4 0
v -41.6 -57.6 0
v -44.8 -57.6 0
v -44.8 -54.4 0
v -41.6 -54.4 0
v -6.4 -60.8 0
v -9.6 -60.8 0
v -9.6 -57.6 0
v -6.4 -57.6 0
v -35.2 -60.8 0
v -38.4 -60.8 0
v -38.4 -57.6 0
v -35.2 -57.6 0
v -38.4 -60.8 0
v -41.6 -60.8 0
v -41.6 -57.6 0
v -38.4 -57.6 0
v -41.6 -60.8 0
v -44.8 -60.8 0
v -44.8 -57.6 0
v -41.6 -57.6 0
v -70.4 -60.8 0
v -73.6 -60.8 0
v -73.6 -57.6 0
v -70.4 -57.6 0
v -6.4 -64 0
v -9.6 -64 0
v -9.6 -60.8 0
v -6.4 -60.8 0
v -9.6 -64 0
v -12.8 -64 0
v -12.8 -60.8 0
v -9.6 -60.8 0
v -67.2 -64 0
v -70.4 -64 0
v -70.4 -60.8 0
v -67.2 -60.8 0
v -70.4 -64 0
v -73.6 -64 0
v -73.6 -60.8 0
v -70.4 -60.8 0
v -6.4 -67.2 0
v -9.6 -67.2 0
v -9.6 -64 0
v -6.4 -64 0
v -9.6 -67.2 0
v -12.8 -67.2 0
v -12.8 -64 0
v -9.6 -64 0
v -12.8 -67.2 0
v -16 -67.2 0
v -16 -64 0
v -12.8 -64 0
v -64 -67.2 0
v -67.2 -67.2 0
v -67.2 -64 0
v -64 -64 0
v -67.2 -67.2 0
v -70.4 -67.2 0
v -70.4 -64 0
v -67.2 -64 0
v -70.4 -67.2 0
v -73.6 -67.2 0
v -73.6 -64 0
v -70.4 -64 0
v -6.4 -70.4 0
v -9.6 -70.4 0
v -9.6 -67.2 0
v -6.4 -67.2 0
v -9.6 -70.4 0
v -12.8 -70.4 0
v -12.8 -67.2 0
v -9.6 -67.2 0
v -12.8 -70.4 0
v -16 -70.4 0
v -16 -67.2 0
v -12.8 -67.2 0
v -16 -70.4 0
v -19.2 -70.4 0
v -19.2 -67.2 0
v -16 -67.2 0
v -60.8 -70.4 0
v -64 -70.4 0
v -64 -67.2 0
v -60.8 -67.2 0
v -64 -70.4 0
v -67.2 -70.4 0
v -67.2 -67.2 0
v -64 -67.2 0
v -67.2 -70.4 0
v -70.4 -70.4 0
v -70.4 -67.2 0
v -67.2 -67.2 0
v -70.4 -70.4 0
v -73.6 -70.4 0
v -73.6 -67.2 0
v -70.4 -67.2 0
v -6.4 -73.6 0
v -9.6 -73.6 0
v -9.6 -70.4 0
v -6.4 -70.4 0
v -9.6 -73.6 0
v -12.8 -73.6 0
v -12.8 -70.4 0
v -9.6 -70.4 0
v -12.8 -73.6 0
v -16 -73.6 0
v -16 -70.4 0
v -12.8 -70.4 0
v -16 -73.6 0
v -19.2 -73.6 0
v -19.2 -70.4 0
v -16 -70.4 0
v -19.2 -73.6 0
v -22.4 -73.6 0
v -22.4 -70.4 0
v -19.2 -70.4 0
v -57.6 -73.6 0
v -60.8 -73.6 0
v -60.8 -70.4 0
v -57.6 -70.4 0
v -60.8 -73.6 0
v -64 -73.6 0
v -64 -70.4 0
v -60.8 -70.4 0
v -64 -73.6 0
v -67.2 -73.6 0
v -67.2 -70.4 0
v -64 -70.4 0
v -67.2 -73.6 0
v -70.4 -73.6 0
v -70.4 -70.4 0
v -67.2 -70.4 0
v -70.4 -73.6 0
v -73.6 -73.6 0
v -73.6 -70.4 0
v -70.4 -70.4 0

# Texture cooridinates (Count = 8)
vt 0.5 0.8125
vt 0.53125 0.8125
vt 0.53125 0.84375
vt 0.5 0.84375
vt 0.5 0.875
vt 0.53125 0.875
vt 0.53125 0.90625
vt 0.5 0.90625

# Normal
vn 0 0 -1

# Mesh description
g finalRoomBoss_mesh_0004

# Faces
f 1/1/1 2/2/1 3/3/1 4/4/1
f 5/5/1 6/6/1 7/7/1 8/8/1
f 9/1/1 10/2/1 11/3/1 12/4/1
f 13/5/1 14/6/1 15/7/1 16/8/1
f 17/1/1 18/2/1 19/3/1 20/4/1
f 21/1/1 22/2/1 23/3/1 24/4/1
f 25/5/1 26/6/1 27/7/1 28/8/1
f 29/1/1 30/2/1 31/3/1 32/4/1
f 33/1/1 34/2/1 35/3/1 36/4/1
f 37/5/1 38/6/1 39/7/1 40/8/1
f 41/5/1 42/6/1 43/7/1 44/8/1
f 45/5/1 46/6/1 47/7/1 48/8/1
f 49/1/1 50/2/1 51/3/1 52/4/1
f 53/5/1 54/6/1 55/7/1 56/8/1
f 57/1/1 58/2/1 59/3/1 60/4/1
f 61/5/1 62/6/1 63/7/1 64/8/1
f 65/1/1 66/2/1 67/3/1 68/4/1
f 69/5/1 70/6/1 71/7/1 72/8/1
f 73/5/1 74/6/1 75/7/1 76/8/1
f 77/5/1 78/6/1 79/7/1 80/8/1
f 81/1/1 82/2/1 83/3/1 84/4/1
f 85/1/1 86/2/1 87/3/1 88/4/1
f 89/5/1 90/6/1 91/7/1 92/8/1
f 93/5/1 94/6/1 95/7/1 96/8/1
f 97/5/1 98/6/1 99/7/1 100/8/1
f 101/1/1 102/2/1 103/3/1 104/4/1
f 105/1/1 106/2/1 107/3/1 108/4/1
f 109/1/1 110/2/1 111/3/1 112/4/1
f 113/1/1 114/2/1 115/3/1 116/4/1
f 117/5/1 118/6/1 119/7/1 120/8/1
f 121/5/1 122/6/1 123/7/1 124/8/1
f 125/1/1 126/2/1 127/3/1 128/4/1
f 129/1/1 130/2/1 131/3/1 132/4/1
f 133/5/1 134/6/1 135/7/1 136/8/1
f 137/5/1 138/6/1 139/7/1 140/8/1
f 141/1/1 142/2/1 143/3/1 144/4/1
f 145/1/1 146/2/1 147/3/1 148/4/1
f 149/5/1 150/6/1 151/7/1 152/8/1
f 153/1/1 154/2/1 155/3/1 156/4/1
f 157/1/1 158/2/1 159/3/1 160/4/1
f 161/1/1 162/2/1 163/3/1 164/4/1
f 165/5/1 166/6/1 167/7/1 168/8/1
f 169/1/1 170/2/1 171/3/1 172/4/1
f 173/1/1 174/2/1 175/3/1 176/4/1
f 177/5/1 178/6/1 179/7/1 180/8/1
f 181/1/1 182/2/1 183/3/1 184/4/1
f 185/1/1 186/2/1 187/3/1 188/4/1
f 189/1/1 190/2/1 191/3/1 192/4/1
f 193/1/1 194/2/1 195/3/1 196/4/1
f 197/5/1 198/6/1 199/7/1 200/8/1
f 201/1/1 202/2/1 203/3/1 204/4/1
f 205/1/1 206/2/1 207/3/1 208/4/1
f 209/5/1 210/6/1 211/7/1 212/8/1
f 213/5/1 214/6/1 215/7/1 216/8/1
f 217/1/1 218/2/1 219/3/1 220/4/1
f 221/5/1 222/6/1 223/7/1 224/8/1
f 225/5/1 226/6/1 227/7/1 228/8/1
f 229/5/1 230/6/1 231/7/1 232/8/1
f 233/1/1 234/2/1 235/3/1 236/4/1
f 237/1/1 238/2/1 239/3/1 240/4/1
f 241/5/1 242/6/1 243/7/1 244/8/1
f 245/1/1 246/2/1 247/3/1 248/4/1
f 249/5/1 250/6/1 251/7/1 252/8/1
f 253/1/1 254/2/1 255/3/1 256/4/1
f 257/1/1 258/2/1 259/3/1 260/4/1
f 261/1/1 262/2/1 263/3/1 264/4/1
f 265/5/1 266/6/1 267/7/1 268/8/1
f 269/1/1 270/2/1 271/3/1 272/4/1
f 273/5/1 274/6/1 275/7/1 276/8/1
f 277/1/1 278/2/1 279/3/1 280/4/1
f 281/1/1 282/2/1 283/3/1 284/4/1
f 285/1/1 286/2/1 287/3/1 288/4/1
f 289/5/1 290/6/1 291/7/1 292/8/1
f 293/5/1 294/6/1 295/7/1 296/8/1
f 297/5/1 298/6/1 299/7/1 300/8/1
f 301/1/1 302/2/1 303/3/1 304/4/1
f 305/5/1 306/6/1 307/7/1 308/8/1
f 309/5/1 310/6/1 311/7/1 312/8/1
f 313/1/1 314/2/1 315/3/1 316/4/1
f 317/5/1 318/6/1 319/7/1 320/8/1
f 321/5/1 322/6/1 323/7/1 324/8/1
f 325/1/1 326/2/1 327/3/1 328/4/1
f 329/1/1 330/2/1 331/3/1 332/4/1
f 333/1/1 334/2/1 335/3/1 336/4/1
f 337/5/1 338/6/1 339/7/1 340/8/1
f 341/1/1 342/2/1 343/3/1 344/4/1
f 345/5/1 346/6/1 347/7/1 348/8/1
f 349/5/1 350/6/1 351/7/1 352/8/1
f 353/1/1 354/2/1 355/3/1 356/4/1
f 357/5/1 358/6/1 359/7/1 360/8/1
f 361/5/1 362/6/1 363/7/1 364/8/1
f 365/1/1 366/2/1 367/3/1 368/4/1
f 369/1/1 370/2/1 371/3/1 372/4/1
f 373/1/1 374/2/1 375/3/1 376/4/1
f 377/5/1 378/6/1 379/7/1 380/8/1
f 381/1/1 382/2/1 383/3/1 384/4/1
f 385/5/1 386/6/1 387/7/1 388/8/1
f 389/5/1 390/6/1 391/7/1 392/8/1
f 393/1/1 394/2/1 395/3/1 396/4/1
f 397/5/1 398/6/1 399/7/1 400/8/1
f 401/1/1 402/2/1 403/3/1 404/4/1
f 405/1/1 406/2/1 407/3/1 408/4/1
f 409/5/1 410/6/1 411/7/1 412/8/1
f 413/1/1 414/2/1 415/3/1 416/4/1
f 417/5/1 418/6/1 419/7/1 420/8/1
f 421/1/1 422/2/1 423/3/1 424/4/1
f 425/1/1 426/2/1 427/3/1 428/4/1
f 429/1/1 430/2/1 431/3/1 432/4/1
f 433/1/1 434/2/1 435/3/1 436/4/1
f 437/1/1 438/2/1 439/3/1 440/4/1
f 441/5/1 442/6/1 443/7/1 444/8/1
f 445/5/1 446/6/1 447/7/1 448/8/1
f 449/1/1 450/2/1 451/3/1 452/4/1
f 453/1/1 454/2/1 455/3/1 456/4/1
f 457/5/1 458/6/1 459/7/1 460/8/1
f 461/5/1 462/6/1 463/7/1 464/8/1
f 465/5/1 466/6/1 467/7/1 468/8/1
f 469/5/1 470/6/1 471/7/1 472/8/1
f 473/1/1 474/2/1 475/3/1 476/4/1
f 477/1/1 478/2/1 479/3/1 480/4/1
f 481/1/1 482/2/1 483/3/1 484/4/1
f 485/1/1 486/2/1 487/3/1 488/4/1
f 489/5/1 490/6/1 491/7/1 492/8/1
f 493/5/1 494/6/1 495/7/1 496/8/1
f 497/1/1 498/2/1 499/3/1 500/4/1
f 501/1/1 502/2/1 503/3/1 504/4/1
f 505/1/1 506/2/1 507/3/1 508/4/1
f 509/5/1 510/6/1 511/7/1 512/8/1
f 513/1/1 514/2/1 515/3/1 516/4/1
f 517/1/1 518/2/1 519/3/1 520/4/1
f 521/5/1 522/6/1 523/7/1 524/8/1
f 525/5/1 526/6/1 527/7/1 528/8/1
f 529/5/1 530/6/1 531/7/1 532/8/1
f 533/5/1 534/6/1 535/7/1 536/8/1

