# Tiled2Unity generated file. Do not modify by hand.
# Wavefront file for 'startRoom_mesh_0004.obj'

# Vertices (Count = 132)
v -16 -9.6 0
v -19.2 -9.6 0
v -19.2 -6.4 0
v -16 -6.4 0
v -19.2 -9.6 0
v -22.4 -9.6 0
v -22.4 -6.4 0
v -19.2 -6.4 0
v -22.4 -9.6 0
v -25.6 -9.6 0
v -25.6 -6.4 0
v -22.4 -6.4 0
v -12.8 -12.8 0
v -16 -12.8 0
v -16 -9.6 0
v -12.8 -9.6 0
v -16 -12.8 0
v -19.2 -12.8 0
v -19.2 -9.6 0
v -16 -9.6 0
v -22.4 -12.8 0
v -25.6 -12.8 0
v -25.6 -9.6 0
v -22.4 -9.6 0
v -25.6 -12.8 0
v -28.8 -12.8 0
v -28.8 -9.6 0
v -25.6 -9.6 0
v -9.6 -16 0
v -12.8 -16 0
v -12.8 -12.8 0
v -9.6 -12.8 0
v -12.8 -16 0
v -16 -16 0
v -16 -12.8 0
v -12.8 -12.8 0
v -25.6 -16 0
v -28.8 -16 0
v -28.8 -12.8 0
v -25.6 -12.8 0
v -28.8 -16 0
v -32 -16 0
v -32 -12.8 0
v -28.8 -12.8 0
v -6.4 -19.2 0
v -9.6 -19.2 0
v -9.6 -16 0
v -6.4 -16 0
v -9.6 -19.2 0
v -12.8 -19.2 0
v -12.8 -16 0
v -9.6 -16 0
v -19.2 -19.2 0
v -22.4 -19.2 0
v -22.4 -16 0
v -19.2 -16 0
v -28.8 -19.2 0
v -32 -19.2 0
v -32 -16 0
v -28.8 -16 0
v -32 -19.2 0
v -35.2 -19.2 0
v -35.2 -16 0
v -32 -16 0
v -6.4 -22.4 0
v -9.6 -22.4 0
v -9.6 -19.2 0
v -6.4 -19.2 0
v -32 -22.4 0
v -35.2 -22.4 0
v -35.2 -19.2 0
v -32 -19.2 0
v -6.4 -25.6 0
v -9.6 -25.6 0
v -9.6 -22.4 0
v -6.4 -22.4 0
v -9.6 -25.6 0
v -12.8 -25.6 0
v -12.8 -22.4 0
v -9.6 -22.4 0
v -28.8 -25.6 0
v -32 -25.6 0
v -32 -22.4 0
v -28.8 -22.4 0
v -32 -25.6 0
v -35.2 -25.6 0
v -35.2 -22.4 0
v -32 -22.4 0
v -9.6 -28.8 0
v -12.8 -28.8 0
v -12.8 -25.6 0
v -9.6 -25.6 0
v -12.8 -28.8 0
v -16 -28.8 0
v -16 -25.6 0
v -12.8 -25.6 0
v -25.6 -28.8 0
v -28.8 -28.8 0
v -28.8 -25.6 0
v -25.6 -25.6 0
v -28.8 -28.8 0
v -32 -28.8 0
v -32 -25.6 0
v -28.8 -25.6 0
v -12.8 -32 0
v -16 -32 0
v -16 -28.8 0
v -12.8 -28.8 0
v -16 -32 0
v -19.2 -32 0
v -19.2 -28.8 0
v -16 -28.8 0
v -22.4 -32 0
v -25.6 -32 0
v -25.6 -28.8 0
v -22.4 -28.8 0
v -25.6 -32 0
v -28.8 -32 0
v -28.8 -28.8 0
v -25.6 -28.8 0
v -16 -35.2 0
v -19.2 -35.2 0
v -19.2 -32 0
v -16 -32 0
v -19.2 -35.2 0
v -22.4 -35.2 0
v -22.4 -32 0
v -19.2 -32 0
v -22.4 -35.2 0
v -25.6 -35.2 0
v -25.6 -32 0
v -22.4 -32 0

# Texture cooridinates (Count = 28)
vt 0 0.9
vt 0.1 0.9
vt 0.1 1
vt 0 1
vt 0.4 0.9
vt 0.5 0.9
vt 0.5 1
vt 0.4 1
vt 0.2 0.9
vt 0.2 1
vt 0.1 0.4
vt 0.2 0.4
vt 0.2 0.5
vt 0.1 0.5
vt 0 0.4
vt 0 0.5
vt 0.4 0.8
vt 0.5 0.8
vt 0.3 0.9
vt 0.3 1
vt 0 0.8
vt 0.1 0.8
vt 0.2 0.8
vt 0.2 0.6
vt 0.1 0.6
vt 0 0.6
vt 0.6 0.9
vt 0.6 1

# Normal
vn 0 0 -1

# Mesh description
g startRoom_mesh_0004

# Faces
f 1/1/1 2/2/1 3/3/1 4/4/1
f 5/5/1 6/6/1 7/7/1 8/8/1
f 9/2/1 10/9/1 11/10/1 12/3/1
f 13/1/1 14/2/1 15/3/1 16/4/1
f 17/11/1 18/12/1 19/13/1 20/14/1
f 21/15/1 22/11/1 23/14/1 24/16/1
f 25/2/1 26/9/1 27/10/1 28/3/1
f 29/1/1 30/2/1 31/3/1 32/4/1
f 33/11/1 34/12/1 35/13/1 36/14/1
f 37/15/1 38/11/1 39/14/1 40/16/1
f 41/2/1 42/9/1 43/10/1 44/3/1
f 45/1/1 46/2/1 47/3/1 48/4/1
f 49/11/1 50/12/1 51/13/1 52/14/1
f 53/17/1 54/18/1 55/6/1 56/5/1
f 57/15/1 58/11/1 59/14/1 60/16/1
f 61/2/1 62/9/1 63/10/1 64/3/1
f 65/9/1 66/19/1 67/20/1 68/10/1
f 69/19/1 70/5/1 71/8/1 72/20/1
f 73/21/1 74/22/1 75/2/1 76/1/1
f 77/17/1 78/18/1 79/6/1 80/5/1
f 81/17/1 82/18/1 83/6/1 84/5/1
f 85/22/1 86/23/1 87/9/1 88/2/1
f 89/21/1 90/22/1 91/2/1 92/1/1
f 93/14/1 94/13/1 95/24/1 96/25/1
f 97/16/1 98/14/1 99/25/1 100/26/1
f 101/22/1 102/23/1 103/9/1 104/2/1
f 105/21/1 106/22/1 107/2/1 108/1/1
f 109/14/1 110/13/1 111/24/1 112/25/1
f 113/16/1 114/14/1 115/25/1 116/26/1
f 117/22/1 118/23/1 119/9/1 120/2/1
f 121/21/1 122/22/1 123/2/1 124/1/1
f 125/6/1 126/27/1 127/28/1 128/7/1
f 129/22/1 130/23/1 131/9/1 132/2/1

