# Tiled2Unity generated file. Do not modify by hand.
# Wavefront file for 'startRoom_mesh_0004.obj'

# Vertices (Count = 288)
v -3.2 -6.4 -0.1538462
v -6.4 -6.4 -0.1538462
v -6.4 -3.2 -0.1538462
v -3.2 -3.2 -0.1538462
v -6.4 -6.4 -0.1538462
v -9.6 -6.4 -0.1538462
v -9.6 -3.2 -0.1538462
v -6.4 -3.2 -0.1538462
v -9.6 -6.4 -0.1538462
v -12.8 -6.4 -0.1538462
v -12.8 -3.2 -0.1538462
v -9.6 -3.2 -0.1538462
v -12.8 -6.4 -0.1538462
v -16 -6.4 -0.1538462
v -16 -3.2 -0.1538462
v -12.8 -3.2 -0.1538462
v -16 -6.4 -0.1538462
v -19.2 -6.4 -0.1538462
v -19.2 -3.2 -0.1538462
v -16 -3.2 -0.1538462
v -19.2 -6.4 -0.1538462
v -22.4 -6.4 -0.1538462
v -22.4 -3.2 -0.1538462
v -19.2 -3.2 -0.1538462
v -22.4 -6.4 -0.1538462
v -25.6 -6.4 -0.1538462
v -25.6 -3.2 -0.1538462
v -22.4 -3.2 -0.1538462
v -25.6 -6.4 -0.1538462
v -28.8 -6.4 -0.1538462
v -28.8 -3.2 -0.1538462
v -25.6 -3.2 -0.1538462
v -28.8 -6.4 -0.1538462
v -32 -6.4 -0.1538462
v -32 -3.2 -0.1538462
v -28.8 -3.2 -0.1538462
v -32 -6.4 -0.1538462
v -35.2 -6.4 -0.1538462
v -35.2 -3.2 -0.1538462
v -32 -3.2 -0.1538462
v -35.2 -6.4 -0.1538462
v -38.4 -6.4 -0.1538462
v -38.4 -3.2 -0.1538462
v -35.2 -3.2 -0.1538462
v -3.2 -9.6 -0.2307692
v -6.4 -9.6 -0.2307692
v -6.4 -6.4 -0.2307692
v -3.2 -6.4 -0.2307692
v -16 -9.6 -0.2307692
v -19.2 -9.6 -0.2307692
v -19.2 -6.4 -0.2307692
v -16 -6.4 -0.2307692
v -19.2 -9.6 -0.2307692
v -22.4 -9.6 -0.2307692
v -22.4 -6.4 -0.2307692
v -19.2 -6.4 -0.2307692
v -22.4 -9.6 -0.2307692
v -25.6 -9.6 -0.2307692
v -25.6 -6.4 -0.2307692
v -22.4 -6.4 -0.2307692
v -35.2 -9.6 -0.2307692
v -38.4 -9.6 -0.2307692
v -38.4 -6.4 -0.2307692
v -35.2 -6.4 -0.2307692
v -3.2 -12.8 -0.3076923
v -6.4 -12.8 -0.3076923
v -6.4 -9.6 -0.3076923
v -3.2 -9.6 -0.3076923
v -12.8 -12.8 -0.3076923
v -16 -12.8 -0.3076923
v -16 -9.6 -0.3076923
v -12.8 -9.6 -0.3076923
v -16 -12.8 -0.3076923
v -19.2 -12.8 -0.3076923
v -19.2 -9.6 -0.3076923
v -16 -9.6 -0.3076923
v -22.4 -12.8 -0.3076923
v -25.6 -12.8 -0.3076923
v -25.6 -9.6 -0.3076923
v -22.4 -9.6 -0.3076923
v -25.6 -12.8 -0.3076923
v -28.8 -12.8 -0.3076923
v -28.8 -9.6 -0.3076923
v -25.6 -9.6 -0.3076923
v -35.2 -12.8 -0.3076923
v -38.4 -12.8 -0.3076923
v -38.4 -9.6 -0.3076923
v -35.2 -9.6 -0.3076923
v -3.2 -16 -0.3846154
v -6.4 -16 -0.3846154
v -6.4 -12.8 -0.3846154
v -3.2 -12.8 -0.3846154
v -9.6 -16 -0.3846154
v -12.8 -16 -0.3846154
v -12.8 -12.8 -0.3846154
v -9.6 -12.8 -0.3846154
v -12.8 -16 -0.3846154
v -16 -16 -0.3846154
v -16 -12.8 -0.3846154
v -12.8 -12.8 -0.3846154
v -25.6 -16 -0.3846154
v -28.8 -16 -0.3846154
v -28.8 -12.8 -0.3846154
v -25.6 -12.8 -0.3846154
v -28.8 -16 -0.3846154
v -32 -16 -0.3846154
v -32 -12.8 -0.3846154
v -28.8 -12.8 -0.3846154
v -35.2 -16 -0.3846154
v -38.4 -16 -0.3846154
v -38.4 -12.8 -0.3846154
v -35.2 -12.8 -0.3846154
v -3.2 -19.2 -0.4615385
v -6.4 -19.2 -0.4615385
v -6.4 -16 -0.4615385
v -3.2 -16 -0.4615385
v -6.4 -19.2 -0.4615385
v -9.6 -19.2 -0.4615385
v -9.6 -16 -0.4615385
v -6.4 -16 -0.4615385
v -9.6 -19.2 -0.4615385
v -12.8 -19.2 -0.4615385
v -12.8 -16 -0.4615385
v -9.6 -16 -0.4615385
v -28.8 -19.2 -0.4615385
v -32 -19.2 -0.4615385
v -32 -16 -0.4615385
v -28.8 -16 -0.4615385
v -32 -19.2 -0.4615385
v -35.2 -19.2 -0.4615385
v -35.2 -16 -0.4615385
v -32 -16 -0.4615385
v -35.2 -19.2 -0.4615385
v -38.4 -19.2 -0.4615385
v -38.4 -16 -0.4615385
v -35.2 -16 -0.4615385
v -3.2 -22.4 -0.5384616
v -6.4 -22.4 -0.5384616
v -6.4 -19.2 -0.5384616
v -3.2 -19.2 -0.5384616
v -6.4 -22.4 -0.5384616
v -9.6 -22.4 -0.5384616
v -9.6 -19.2 -0.5384616
v -6.4 -19.2 -0.5384616
v -32 -22.4 -0.5384616
v -35.2 -22.4 -0.5384616
v -35.2 -19.2 -0.5384616
v -32 -19.2 -0.5384616
v -35.2 -22.4 -0.5384616
v -38.4 -22.4 -0.5384616
v -38.4 -19.2 -0.5384616
v -35.2 -19.2 -0.5384616
v -3.2 -25.6 -0.6153846
v -6.4 -25.6 -0.6153846
v -6.4 -22.4 -0.6153846
v -3.2 -22.4 -0.6153846
v -6.4 -25.6 -0.6153846
v -9.6 -25.6 -0.6153846
v -9.6 -22.4 -0.6153846
v -6.4 -22.4 -0.6153846
v -9.6 -25.6 -0.6153846
v -12.8 -25.6 -0.6153846
v -12.8 -22.4 -0.6153846
v -9.6 -22.4 -0.6153846
v -28.8 -25.6 -0.6153846
v -32 -25.6 -0.6153846
v -32 -22.4 -0.6153846
v -28.8 -22.4 -0.6153846
v -32 -25.6 -0.6153846
v -35.2 -25.6 -0.6153846
v -35.2 -22.4 -0.6153846
v -32 -22.4 -0.6153846
v -35.2 -25.6 -0.6153846
v -38.4 -25.6 -0.6153846
v -38.4 -22.4 -0.6153846
v -35.2 -22.4 -0.6153846
v -3.2 -28.8 -0.6923077
v -6.4 -28.8 -0.6923077
v -6.4 -25.6 -0.6923077
v -3.2 -25.6 -0.6923077
v -9.6 -28.8 -0.6923077
v -12.8 -28.8 -0.6923077
v -12.8 -25.6 -0.6923077
v -9.6 -25.6 -0.6923077
v -12.8 -28.8 -0.6923077
v -16 -28.8 -0.6923077
v -16 -25.6 -0.6923077
v -12.8 -25.6 -0.6923077
v -25.6 -28.8 -0.6923077
v -28.8 -28.8 -0.6923077
v -28.8 -25.6 -0.6923077
v -25.6 -25.6 -0.6923077
v -28.8 -28.8 -0.6923077
v -32 -28.8 -0.6923077
v -32 -25.6 -0.6923077
v -28.8 -25.6 -0.6923077
v -35.2 -28.8 -0.6923077
v -38.4 -28.8 -0.6923077
v -38.4 -25.6 -0.6923077
v -35.2 -25.6 -0.6923077
v -3.2 -32 -0.7692308
v -6.4 -32 -0.7692308
v -6.4 -28.8 -0.7692308
v -3.2 -28.8 -0.7692308
v -12.8 -32 -0.7692308
v -16 -32 -0.7692308
v -16 -28.8 -0.7692308
v -12.8 -28.8 -0.7692308
v -16 -32 -0.7692308
v -19.2 -32 -0.7692308
v -19.2 -28.8 -0.7692308
v -16 -28.8 -0.7692308
v -22.4 -32 -0.7692308
v -25.6 -32 -0.7692308
v -25.6 -28.8 -0.7692308
v -22.4 -28.8 -0.7692308
v -25.6 -32 -0.7692308
v -28.8 -32 -0.7692308
v -28.8 -28.8 -0.7692308
v -25.6 -28.8 -0.7692308
v -35.2 -32 -0.7692308
v -38.4 -32 -0.7692308
v -38.4 -28.8 -0.7692308
v -35.2 -28.8 -0.7692308
v -3.2 -35.2 -0.8461539
v -6.4 -35.2 -0.8461539
v -6.4 -32 -0.8461539
v -3.2 -32 -0.8461539
v -16 -35.2 -0.8461539
v -19.2 -35.2 -0.8461539
v -19.2 -32 -0.8461539
v -16 -32 -0.8461539
v -19.2 -35.2 -0.8461539
v -22.4 -35.2 -0.8461539
v -22.4 -32 -0.8461539
v -19.2 -32 -0.8461539
v -22.4 -35.2 -0.8461539
v -25.6 -35.2 -0.8461539
v -25.6 -32 -0.8461539
v -22.4 -32 -0.8461539
v -35.2 -35.2 -0.8461539
v -38.4 -35.2 -0.8461539
v -38.4 -32 -0.8461539
v -35.2 -32 -0.8461539
v -3.2 -38.4 -0.9230769
v -6.4 -38.4 -0.9230769
v -6.4 -35.2 -0.9230769
v -3.2 -35.2 -0.9230769
v -6.4 -38.4 -0.9230769
v -9.6 -38.4 -0.9230769
v -9.6 -35.2 -0.9230769
v -6.4 -35.2 -0.9230769
v -9.6 -38.4 -0.9230769
v -12.8 -38.4 -0.9230769
v -12.8 -35.2 -0.9230769
v -9.6 -35.2 -0.9230769
v -12.8 -38.4 -0.9230769
v -16 -38.4 -0.9230769
v -16 -35.2 -0.9230769
v -12.8 -35.2 -0.9230769
v -16 -38.4 -0.9230769
v -19.2 -38.4 -0.9230769
v -19.2 -35.2 -0.9230769
v -16 -35.2 -0.9230769
v -19.2 -38.4 -0.9230769
v -22.4 -38.4 -0.9230769
v -22.4 -35.2 -0.9230769
v -19.2 -35.2 -0.9230769
v -22.4 -38.4 -0.9230769
v -25.6 -38.4 -0.9230769
v -25.6 -35.2 -0.9230769
v -22.4 -35.2 -0.9230769
v -25.6 -38.4 -0.9230769
v -28.8 -38.4 -0.9230769
v -28.8 -35.2 -0.9230769
v -25.6 -35.2 -0.9230769
v -28.8 -38.4 -0.9230769
v -32 -38.4 -0.9230769
v -32 -35.2 -0.9230769
v -28.8 -35.2 -0.9230769
v -32 -38.4 -0.9230769
v -35.2 -38.4 -0.9230769
v -35.2 -35.2 -0.9230769
v -32 -35.2 -0.9230769
v -35.2 -38.4 -0.9230769
v -38.4 -38.4 -0.9230769
v -38.4 -35.2 -0.9230769
v -35.2 -35.2 -0.9230769

# Texture cooridinates (Count = 26)
vt 0 0.875
vt 0.1 0.875
vt 0.1 1
vt 0 1
vt 0.4 0.875
vt 0.5 0.875
vt 0.5 1
vt 0.4 1
vt 0.2 0.875
vt 0.2 1
vt 0.3 0.875
vt 0.3 1
vt 0.1 0.25
vt 0.2 0.25
vt 0.2 0.375
vt 0.1 0.375
vt 0 0.25
vt 0 0.375
vt 0 0.75
vt 0.1 0.75
vt 0.2 0.5
vt 0.1 0.5
vt 0 0.5
vt 0.2 0.75
vt 0.6 0.875
vt 0.6 1

# Normal
vn 0 0 -1

# Mesh description
g startRoom_mesh_0004

# Faces
f 1/1/1 2/2/1 3/3/1 4/4/1
f 5/5/1 6/6/1 7/7/1 8/8/1
f 9/5/1 10/6/1 11/7/1 12/8/1
f 13/5/1 14/6/1 15/7/1 16/8/1
f 17/5/1 18/6/1 19/7/1 20/8/1
f 21/5/1 22/6/1 23/7/1 24/8/1
f 25/5/1 26/6/1 27/7/1 28/8/1
f 29/5/1 30/6/1 31/7/1 32/8/1
f 33/5/1 34/6/1 35/7/1 36/8/1
f 37/5/1 38/6/1 39/7/1 40/8/1
f 41/2/1 42/9/1 43/10/1 44/3/1
f 45/9/1 46/11/1 47/12/1 48/10/1
f 49/1/1 50/2/1 51/3/1 52/4/1
f 53/5/1 54/6/1 55/7/1 56/8/1
f 57/2/1 58/9/1 59/10/1 60/3/1
f 61/11/1 62/5/1 63/8/1 64/12/1
f 65/9/1 66/11/1 67/12/1 68/10/1
f 69/1/1 70/2/1 71/3/1 72/4/1
f 73/13/1 74/14/1 75/15/1 76/16/1
f 77/17/1 78/13/1 79/16/1 80/18/1
f 81/2/1 82/9/1 83/10/1 84/3/1
f 85/11/1 86/5/1 87/8/1 88/12/1
f 89/9/1 90/11/1 91/12/1 92/10/1
f 93/1/1 94/2/1 95/3/1 96/4/1
f 97/13/1 98/14/1 99/15/1 100/16/1
f 101/17/1 102/13/1 103/16/1 104/18/1
f 105/2/1 106/9/1 107/10/1 108/3/1
f 109/11/1 110/5/1 111/8/1 112/12/1
f 113/9/1 114/11/1 115/12/1 116/10/1
f 117/1/1 118/2/1 119/3/1 120/4/1
f 121/13/1 122/14/1 123/15/1 124/16/1
f 125/17/1 126/13/1 127/16/1 128/18/1
f 129/2/1 130/9/1 131/10/1 132/3/1
f 133/11/1 134/5/1 135/8/1 136/12/1
f 137/9/1 138/11/1 139/12/1 140/10/1
f 141/9/1 142/11/1 143/12/1 144/10/1
f 145/11/1 146/5/1 147/8/1 148/12/1
f 149/11/1 150/5/1 151/8/1 152/12/1
f 153/9/1 154/11/1 155/12/1 156/10/1
f 157/19/1 158/20/1 159/2/1 160/1/1
f 161/16/1 162/15/1 163/21/1 164/22/1
f 165/18/1 166/16/1 167/22/1 168/23/1
f 169/20/1 170/24/1 171/9/1 172/2/1
f 173/11/1 174/5/1 175/8/1 176/12/1
f 177/9/1 178/11/1 179/12/1 180/10/1
f 181/19/1 182/20/1 183/2/1 184/1/1
f 185/16/1 186/15/1 187/21/1 188/22/1
f 189/18/1 190/16/1 191/22/1 192/23/1
f 193/20/1 194/24/1 195/9/1 196/2/1
f 197/11/1 198/5/1 199/8/1 200/12/1
f 201/9/1 202/11/1 203/12/1 204/10/1
f 205/19/1 206/20/1 207/2/1 208/1/1
f 209/16/1 210/15/1 211/21/1 212/22/1
f 213/18/1 214/16/1 215/22/1 216/23/1
f 217/20/1 218/24/1 219/9/1 220/2/1
f 221/11/1 222/5/1 223/8/1 224/12/1
f 225/9/1 226/11/1 227/12/1 228/10/1
f 229/19/1 230/20/1 231/2/1 232/1/1
f 233/6/1 234/25/1 235/26/1 236/7/1
f 237/20/1 238/24/1 239/9/1 240/2/1
f 241/11/1 242/5/1 243/8/1 244/12/1
f 245/19/1 246/20/1 247/2/1 248/1/1
f 249/6/1 250/25/1 251/26/1 252/7/1
f 253/6/1 254/25/1 255/26/1 256/7/1
f 257/6/1 258/25/1 259/26/1 260/7/1
f 261/6/1 262/25/1 263/26/1 264/7/1
f 265/6/1 266/25/1 267/26/1 268/7/1
f 269/6/1 270/25/1 271/26/1 272/7/1
f 273/6/1 274/25/1 275/26/1 276/7/1
f 277/6/1 278/25/1 279/26/1 280/7/1
f 281/6/1 282/25/1 283/26/1 284/7/1
f 285/20/1 286/24/1 287/9/1 288/2/1

