# Tiled2Unity generated file. Do not modify by hand.
# Wavefront file for 'startRoom_mesh_0005.obj'

# Vertices (Count = 12)
v -19.2 -9.6 -0.2307692
v -22.4 -9.6 -0.2307692
v -22.4 -6.4 -0.2307692
v -19.2 -6.4 -0.2307692
v -9.6 -19.2 -0.4615385
v -12.8 -19.2 -0.4615385
v -12.8 -16 -0.4615385
v -9.6 -16 -0.4615385
v -28.8 -19.2 -0.4615385
v -32 -19.2 -0.4615385
v -32 -16 -0.4615385
v -28.8 -16 -0.4615385

# Texture cooridinates (Count = 8)
vt 0.578125 0.3789474
vt 0.59375 0.3789474
vt 0.59375 0.3894737
vt 0.578125 0.3894737
vt 0.5625 0.3789474
vt 0.5625 0.3894737
vt 0.609375 0.3789474
vt 0.609375 0.3894737

# Normal
vn 0 0 -1

# Mesh description
g startRoom_mesh_0005

# Faces
f 1/1/1 2/2/1 3/3/1 4/4/1
f 5/5/1 6/1/1 7/4/1 8/6/1
f 9/2/1 10/7/1 11/8/1 12/3/1

