# Tiled2Unity generated file. Do not modify by hand.
# Wavefront file for 'finalRoomWalls_mesh_0003.obj'

# Vertices (Count = 352)
v -3.2 -6.4 0
v -6.4 -6.4 0
v -6.4 -3.2 0
v -3.2 -3.2 0
v -6.4 -6.4 0
v -9.6 -6.4 0
v -9.6 -3.2 0
v -6.4 -3.2 0
v -9.6 -6.4 0
v -12.8 -6.4 0
v -12.8 -3.2 0
v -9.6 -3.2 0
v -12.8 -6.4 0
v -16 -6.4 0
v -16 -3.2 0
v -12.8 -3.2 0
v -16 -6.4 0
v -19.2 -6.4 0
v -19.2 -3.2 0
v -16 -3.2 0
v -19.2 -6.4 0
v -22.4 -6.4 0
v -22.4 -3.2 0
v -19.2 -3.2 0
v -22.4 -6.4 0
v -25.6 -6.4 0
v -25.6 -3.2 0
v -22.4 -3.2 0
v -25.6 -6.4 0
v -28.8 -6.4 0
v -28.8 -3.2 0
v -25.6 -3.2 0
v -28.8 -6.4 0
v -32 -6.4 0
v -32 -3.2 0
v -28.8 -3.2 0
v -32 -6.4 0
v -35.2 -6.4 0
v -35.2 -3.2 0
v -32 -3.2 0
v -35.2 -6.4 0
v -38.4 -6.4 0
v -38.4 -3.2 0
v -35.2 -3.2 0
v -38.4 -6.4 0
v -41.6 -6.4 0
v -41.6 -3.2 0
v -38.4 -3.2 0
v -41.6 -6.4 0
v -44.8 -6.4 0
v -44.8 -3.2 0
v -41.6 -3.2 0
v -44.8 -6.4 0
v -48 -6.4 0
v -48 -3.2 0
v -44.8 -3.2 0
v -48 -6.4 0
v -51.2 -6.4 0
v -51.2 -3.2 0
v -48 -3.2 0
v -51.2 -6.4 0
v -54.4 -6.4 0
v -54.4 -3.2 0
v -51.2 -3.2 0
v -54.4 -6.4 0
v -57.6 -6.4 0
v -57.6 -3.2 0
v -54.4 -3.2 0
v -57.6 -6.4 0
v -60.8 -6.4 0
v -60.8 -3.2 0
v -57.6 -3.2 0
v -60.8 -6.4 0
v -64 -6.4 0
v -64 -3.2 0
v -60.8 -3.2 0
v -64 -6.4 0
v -67.2 -6.4 0
v -67.2 -3.2 0
v -64 -3.2 0
v -67.2 -6.4 0
v -70.4 -6.4 0
v -70.4 -3.2 0
v -67.2 -3.2 0
v -70.4 -6.4 0
v -73.6 -6.4 0
v -73.6 -3.2 0
v -70.4 -3.2 0
v -73.6 -6.4 0
v -76.8 -6.4 0
v -76.8 -3.2 0
v -73.6 -3.2 0
v -3.2 -9.6 0
v -6.4 -9.6 0
v -6.4 -6.4 0
v -3.2 -6.4 0
v -73.6 -9.6 0
v -76.8 -9.6 0
v -76.8 -6.4 0
v -73.6 -6.4 0
v -3.2 -12.8 0
v -6.4 -12.8 0
v -6.4 -9.6 0
v -3.2 -9.6 0
v -73.6 -12.8 0
v -76.8 -12.8 0
v -76.8 -9.6 0
v -73.6 -9.6 0
v -3.2 -16 0
v -6.4 -16 0
v -6.4 -12.8 0
v -3.2 -12.8 0
v -73.6 -16 0
v -76.8 -16 0
v -76.8 -12.8 0
v -73.6 -12.8 0
v -3.2 -19.2 0
v -6.4 -19.2 0
v -6.4 -16 0
v -3.2 -16 0
v -73.6 -19.2 0
v -76.8 -19.2 0
v -76.8 -16 0
v -73.6 -16 0
v -3.2 -22.4 0
v -6.4 -22.4 0
v -6.4 -19.2 0
v -3.2 -19.2 0
v -73.6 -22.4 0
v -76.8 -22.4 0
v -76.8 -19.2 0
v -73.6 -19.2 0
v -3.2 -25.6 0
v -6.4 -25.6 0
v -6.4 -22.4 0
v -3.2 -22.4 0
v -73.6 -25.6 0
v -76.8 -25.6 0
v -76.8 -22.4 0
v -73.6 -22.4 0
v -3.2 -28.8 0
v -6.4 -28.8 0
v -6.4 -25.6 0
v -3.2 -25.6 0
v -73.6 -28.8 0
v -76.8 -28.8 0
v -76.8 -25.6 0
v -73.6 -25.6 0
v -3.2 -32 0
v -6.4 -32 0
v -6.4 -28.8 0
v -3.2 -28.8 0
v -73.6 -32 0
v -76.8 -32 0
v -76.8 -28.8 0
v -73.6 -28.8 0
v -3.2 -35.2 0
v -6.4 -35.2 0
v -6.4 -32 0
v -3.2 -32 0
v -73.6 -35.2 0
v -76.8 -35.2 0
v -76.8 -32 0
v -73.6 -32 0
v -3.2 -38.4 0
v -6.4 -38.4 0
v -6.4 -35.2 0
v -3.2 -35.2 0
v -73.6 -38.4 0
v -76.8 -38.4 0
v -76.8 -35.2 0
v -73.6 -35.2 0
v -3.2 -41.6 0
v -6.4 -41.6 0
v -6.4 -38.4 0
v -3.2 -38.4 0
v -73.6 -41.6 0
v -76.8 -41.6 0
v -76.8 -38.4 0
v -73.6 -38.4 0
v -3.2 -44.8 0
v -6.4 -44.8 0
v -6.4 -41.6 0
v -3.2 -41.6 0
v -73.6 -44.8 0
v -76.8 -44.8 0
v -76.8 -41.6 0
v -73.6 -41.6 0
v -3.2 -48 0
v -6.4 -48 0
v -6.4 -44.8 0
v -3.2 -44.8 0
v -73.6 -48 0
v -76.8 -48 0
v -76.8 -44.8 0
v -73.6 -44.8 0
v -3.2 -51.2 0
v -6.4 -51.2 0
v -6.4 -48 0
v -3.2 -48 0
v -73.6 -51.2 0
v -76.8 -51.2 0
v -76.8 -48 0
v -73.6 -48 0
v -3.2 -54.4 0
v -6.4 -54.4 0
v -6.4 -51.2 0
v -3.2 -51.2 0
v -73.6 -54.4 0
v -76.8 -54.4 0
v -76.8 -51.2 0
v -73.6 -51.2 0
v -3.2 -57.6 0
v -6.4 -57.6 0
v -6.4 -54.4 0
v -3.2 -54.4 0
v -73.6 -57.6 0
v -76.8 -57.6 0
v -76.8 -54.4 0
v -73.6 -54.4 0
v -3.2 -60.8 0
v -6.4 -60.8 0
v -6.4 -57.6 0
v -3.2 -57.6 0
v -73.6 -60.8 0
v -76.8 -60.8 0
v -76.8 -57.6 0
v -73.6 -57.6 0
v -3.2 -64 0
v -6.4 -64 0
v -6.4 -60.8 0
v -3.2 -60.8 0
v -73.6 -64 0
v -76.8 -64 0
v -76.8 -60.8 0
v -73.6 -60.8 0
v -3.2 -67.2 0
v -6.4 -67.2 0
v -6.4 -64 0
v -3.2 -64 0
v -73.6 -67.2 0
v -76.8 -67.2 0
v -76.8 -64 0
v -73.6 -64 0
v -3.2 -70.4 0
v -6.4 -70.4 0
v -6.4 -67.2 0
v -3.2 -67.2 0
v -73.6 -70.4 0
v -76.8 -70.4 0
v -76.8 -67.2 0
v -73.6 -67.2 0
v -3.2 -73.6 0
v -6.4 -73.6 0
v -6.4 -70.4 0
v -3.2 -70.4 0
v -73.6 -73.6 0
v -76.8 -73.6 0
v -76.8 -70.4 0
v -73.6 -70.4 0
v -3.2 -76.8 0
v -6.4 -76.8 0
v -6.4 -73.6 0
v -3.2 -73.6 0
v -6.4 -76.8 0
v -9.6 -76.8 0
v -9.6 -73.6 0
v -6.4 -73.6 0
v -9.6 -76.8 0
v -12.8 -76.8 0
v -12.8 -73.6 0
v -9.6 -73.6 0
v -12.8 -76.8 0
v -16 -76.8 0
v -16 -73.6 0
v -12.8 -73.6 0
v -16 -76.8 0
v -19.2 -76.8 0
v -19.2 -73.6 0
v -16 -73.6 0
v -19.2 -76.8 0
v -22.4 -76.8 0
v -22.4 -73.6 0
v -19.2 -73.6 0
v -22.4 -76.8 0
v -25.6 -76.8 0
v -25.6 -73.6 0
v -22.4 -73.6 0
v -25.6 -76.8 0
v -28.8 -76.8 0
v -28.8 -73.6 0
v -25.6 -73.6 0
v -28.8 -76.8 0
v -32 -76.8 0
v -32 -73.6 0
v -28.8 -73.6 0
v -32 -76.8 0
v -35.2 -76.8 0
v -35.2 -73.6 0
v -32 -73.6 0
v -35.2 -76.8 0
v -38.4 -76.8 0
v -38.4 -73.6 0
v -35.2 -73.6 0
v -38.4 -76.8 0
v -41.6 -76.8 0
v -41.6 -73.6 0
v -38.4 -73.6 0
v -41.6 -76.8 0
v -44.8 -76.8 0
v -44.8 -73.6 0
v -41.6 -73.6 0
v -44.8 -76.8 0
v -48 -76.8 0
v -48 -73.6 0
v -44.8 -73.6 0
v -48 -76.8 0
v -51.2 -76.8 0
v -51.2 -73.6 0
v -48 -73.6 0
v -51.2 -76.8 0
v -54.4 -76.8 0
v -54.4 -73.6 0
v -51.2 -73.6 0
v -54.4 -76.8 0
v -57.6 -76.8 0
v -57.6 -73.6 0
v -54.4 -73.6 0
v -57.6 -76.8 0
v -60.8 -76.8 0
v -60.8 -73.6 0
v -57.6 -73.6 0
v -60.8 -76.8 0
v -64 -76.8 0
v -64 -73.6 0
v -60.8 -73.6 0
v -64 -76.8 0
v -67.2 -76.8 0
v -67.2 -73.6 0
v -64 -73.6 0
v -67.2 -76.8 0
v -70.4 -76.8 0
v -70.4 -73.6 0
v -67.2 -73.6 0
v -70.4 -76.8 0
v -73.6 -76.8 0
v -73.6 -73.6 0
v -70.4 -73.6 0
v -73.6 -76.8 0
v -76.8 -76.8 0
v -76.8 -73.6 0
v -73.6 -73.6 0

# Texture cooridinates (Count = 17)
vt 0 0.875
vt 0.1 0.875
vt 0.1 1
vt 0 1
vt 0.4 0.875
vt 0.5 0.875
vt 0.5 1
vt 0.4 1
vt 0.2 0.875
vt 0.2 1
vt 0.3 0.875
vt 0.3 1
vt 0 0.75
vt 0.1 0.75
vt 0.6 0.875
vt 0.6 1
vt 0.2 0.75

# Normal
vn 0 0 -1

# Mesh description
g finalRoomWalls_mesh_0003

# Faces
f 1/1/1 2/2/1 3/3/1 4/4/1
f 5/5/1 6/6/1 7/7/1 8/8/1
f 9/5/1 10/6/1 11/7/1 12/8/1
f 13/5/1 14/6/1 15/7/1 16/8/1
f 17/5/1 18/6/1 19/7/1 20/8/1
f 21/5/1 22/6/1 23/7/1 24/8/1
f 25/5/1 26/6/1 27/7/1 28/8/1
f 29/5/1 30/6/1 31/7/1 32/8/1
f 33/5/1 34/6/1 35/7/1 36/8/1
f 37/5/1 38/6/1 39/7/1 40/8/1
f 41/5/1 42/6/1 43/7/1 44/8/1
f 45/5/1 46/6/1 47/7/1 48/8/1
f 49/5/1 50/6/1 51/7/1 52/8/1
f 53/5/1 54/6/1 55/7/1 56/8/1
f 57/5/1 58/6/1 59/7/1 60/8/1
f 61/5/1 62/6/1 63/7/1 64/8/1
f 65/5/1 66/6/1 67/7/1 68/8/1
f 69/5/1 70/6/1 71/7/1 72/8/1
f 73/5/1 74/6/1 75/7/1 76/8/1
f 77/5/1 78/6/1 79/7/1 80/8/1
f 81/5/1 82/6/1 83/7/1 84/8/1
f 85/5/1 86/6/1 87/7/1 88/8/1
f 89/2/1 90/9/1 91/10/1 92/3/1
f 93/9/1 94/11/1 95/12/1 96/10/1
f 97/11/1 98/5/1 99/8/1 100/12/1
f 101/9/1 102/11/1 103/12/1 104/10/1
f 105/11/1 106/5/1 107/8/1 108/12/1
f 109/9/1 110/11/1 111/12/1 112/10/1
f 113/11/1 114/5/1 115/8/1 116/12/1
f 117/9/1 118/11/1 119/12/1 120/10/1
f 121/11/1 122/5/1 123/8/1 124/12/1
f 125/9/1 126/11/1 127/12/1 128/10/1
f 129/11/1 130/5/1 131/8/1 132/12/1
f 133/9/1 134/11/1 135/12/1 136/10/1
f 137/11/1 138/5/1 139/8/1 140/12/1
f 141/9/1 142/11/1 143/12/1 144/10/1
f 145/11/1 146/5/1 147/8/1 148/12/1
f 149/9/1 150/11/1 151/12/1 152/10/1
f 153/11/1 154/5/1 155/8/1 156/12/1
f 157/9/1 158/11/1 159/12/1 160/10/1
f 161/11/1 162/5/1 163/8/1 164/12/1
f 165/9/1 166/11/1 167/12/1 168/10/1
f 169/11/1 170/5/1 171/8/1 172/12/1
f 173/9/1 174/11/1 175/12/1 176/10/1
f 177/11/1 178/5/1 179/8/1 180/12/1
f 181/9/1 182/11/1 183/12/1 184/10/1
f 185/11/1 186/5/1 187/8/1 188/12/1
f 189/9/1 190/11/1 191/12/1 192/10/1
f 193/11/1 194/5/1 195/8/1 196/12/1
f 197/9/1 198/11/1 199/12/1 200/10/1
f 201/11/1 202/5/1 203/8/1 204/12/1
f 205/9/1 206/11/1 207/12/1 208/10/1
f 209/11/1 210/5/1 211/8/1 212/12/1
f 213/9/1 214/11/1 215/12/1 216/10/1
f 217/11/1 218/5/1 219/8/1 220/12/1
f 221/9/1 222/11/1 223/12/1 224/10/1
f 225/11/1 226/5/1 227/8/1 228/12/1
f 229/9/1 230/11/1 231/12/1 232/10/1
f 233/11/1 234/5/1 235/8/1 236/12/1
f 237/9/1 238/11/1 239/12/1 240/10/1
f 241/11/1 242/5/1 243/8/1 244/12/1
f 245/9/1 246/11/1 247/12/1 248/10/1
f 249/11/1 250/5/1 251/8/1 252/12/1
f 253/9/1 254/11/1 255/12/1 256/10/1
f 257/11/1 258/5/1 259/8/1 260/12/1
f 261/13/1 262/14/1 263/2/1 264/1/1
f 265/6/1 266/15/1 267/16/1 268/7/1
f 269/6/1 270/15/1 271/16/1 272/7/1
f 273/6/1 274/15/1 275/16/1 276/7/1
f 277/6/1 278/15/1 279/16/1 280/7/1
f 281/6/1 282/15/1 283/16/1 284/7/1
f 285/6/1 286/15/1 287/16/1 288/7/1
f 289/6/1 290/15/1 291/16/1 292/7/1
f 293/6/1 294/15/1 295/16/1 296/7/1
f 297/6/1 298/15/1 299/16/1 300/7/1
f 301/6/1 302/15/1 303/16/1 304/7/1
f 305/6/1 306/15/1 307/16/1 308/7/1
f 309/6/1 310/15/1 311/16/1 312/7/1
f 313/6/1 314/15/1 315/16/1 316/7/1
f 317/6/1 318/15/1 319/16/1 320/7/1
f 321/6/1 322/15/1 323/16/1 324/7/1
f 325/6/1 326/15/1 327/16/1 328/7/1
f 329/6/1 330/15/1 331/16/1 332/7/1
f 333/6/1 334/15/1 335/16/1 336/7/1
f 337/6/1 338/15/1 339/16/1 340/7/1
f 341/6/1 342/15/1 343/16/1 344/7/1
f 345/6/1 346/15/1 347/16/1 348/7/1
f 349/14/1 350/17/1 351/9/1 352/2/1

