# Tiled2Unity generated file. Do not modify by hand.
# Wavefront file for 'entrance_mesh_0003.obj'

# Vertices (Count = 32)
v 0 -3.2 0
v -3.2 -3.2 0
v -3.2 0 0
v 0 0 0
v -3.2 -3.2 0
v -6.4 -3.2 0
v -6.4 0 0
v -3.2 0 0
v -6.4 -3.2 0
v -9.6 -3.2 0
v -9.6 0 0
v -6.4 0 0
v 0 -6.4 0
v -3.2 -6.4 0
v -3.2 -3.2 0
v 0 -3.2 0
v -6.4 -6.4 0
v -9.6 -6.4 0
v -9.6 -3.2 0
v -6.4 -3.2 0
v 0 -9.6 0
v -3.2 -9.6 0
v -3.2 -6.4 0
v 0 -6.4 0
v -3.2 -9.6 0
v -6.4 -9.6 0
v -6.4 -6.4 0
v -3.2 -6.4 0
v -6.4 -9.6 0
v -9.6 -9.6 0
v -9.6 -6.4 0
v -6.4 -6.4 0

# Texture cooridinates (Count = 19)
vt 0 0.375
vt 0.1 0.375
vt 0.1 0.5
vt 0 0.5
vt 0.5 0.875
vt 0.6 0.875
vt 0.6 1
vt 0.5 1
vt 0.2 0.375
vt 0.2 0.5
vt 0.3 0.875
vt 0.4 0.875
vt 0.4 1
vt 0.3 1
vt 0.2 0.875
vt 0.2 1
vt 0 0.25
vt 0.1 0.25
vt 0.2 0.25

# Normal
vn 0 0 -1

# Mesh description
g entrance_mesh_0003

# Faces
f 1/1/1 2/2/1 3/3/1 4/4/1
f 5/5/1 6/6/1 7/7/1 8/8/1
f 9/2/1 10/9/1 11/10/1 12/3/1
f 13/11/1 14/12/1 15/13/1 16/14/1
f 17/15/1 18/11/1 19/14/1 20/16/1
f 21/17/1 22/18/1 23/2/1 24/1/1
f 25/12/1 26/5/1 27/8/1 28/13/1
f 29/18/1 30/19/1 31/9/1 32/2/1

