# Tiled2Unity generated file. Do not modify by hand.
# Wavefront file for 'mediumRoom_mesh_0001.obj'

# Vertices (Count = 1024)
v 0 -3.2 0
v -3.2 -3.2 0
v -3.2 0 0
v 0 0 0
v -3.2 -3.2 0
v -6.4 -3.2 0
v -6.4 0 0
v -3.2 0 0
v -6.4 -3.2 0
v -9.6 -3.2 0
v -9.6 0 0
v -6.4 0 0
v -9.6 -3.2 0
v -12.8 -3.2 0
v -12.8 0 0
v -9.6 0 0
v -12.8 -3.2 0
v -16 -3.2 0
v -16 0 0
v -12.8 0 0
v -16 -3.2 0
v -19.2 -3.2 0
v -19.2 0 0
v -16 0 0
v -19.2 -3.2 0
v -22.4 -3.2 0
v -22.4 0 0
v -19.2 0 0
v -22.4 -3.2 0
v -25.6 -3.2 0
v -25.6 0 0
v -22.4 0 0
v -25.6 -3.2 0
v -28.8 -3.2 0
v -28.8 0 0
v -25.6 0 0
v -28.8 -3.2 0
v -32 -3.2 0
v -32 0 0
v -28.8 0 0
v -32 -3.2 0
v -35.2 -3.2 0
v -35.2 0 0
v -32 0 0
v -35.2 -3.2 0
v -38.4 -3.2 0
v -38.4 0 0
v -35.2 0 0
v -38.4 -3.2 0
v -41.6 -3.2 0
v -41.6 0 0
v -38.4 0 0
v -41.6 -3.2 0
v -44.8 -3.2 0
v -44.8 0 0
v -41.6 0 0
v -44.8 -3.2 0
v -48 -3.2 0
v -48 0 0
v -44.8 0 0
v -48 -3.2 0
v -51.2 -3.2 0
v -51.2 0 0
v -48 0 0
v 0 -6.4 0
v -3.2 -6.4 0
v -3.2 -3.2 0
v 0 -3.2 0
v -3.2 -6.4 0
v -6.4 -6.4 0
v -6.4 -3.2 0
v -3.2 -3.2 0
v -6.4 -6.4 0
v -9.6 -6.4 0
v -9.6 -3.2 0
v -6.4 -3.2 0
v -9.6 -6.4 0
v -12.8 -6.4 0
v -12.8 -3.2 0
v -9.6 -3.2 0
v -12.8 -6.4 0
v -16 -6.4 0
v -16 -3.2 0
v -12.8 -3.2 0
v -16 -6.4 0
v -19.2 -6.4 0
v -19.2 -3.2 0
v -16 -3.2 0
v -19.2 -6.4 0
v -22.4 -6.4 0
v -22.4 -3.2 0
v -19.2 -3.2 0
v -22.4 -6.4 0
v -25.6 -6.4 0
v -25.6 -3.2 0
v -22.4 -3.2 0
v -25.6 -6.4 0
v -28.8 -6.4 0
v -28.8 -3.2 0
v -25.6 -3.2 0
v -28.8 -6.4 0
v -32 -6.4 0
v -32 -3.2 0
v -28.8 -3.2 0
v -32 -6.4 0
v -35.2 -6.4 0
v -35.2 -3.2 0
v -32 -3.2 0
v -35.2 -6.4 0
v -38.4 -6.4 0
v -38.4 -3.2 0
v -35.2 -3.2 0
v -38.4 -6.4 0
v -41.6 -6.4 0
v -41.6 -3.2 0
v -38.4 -3.2 0
v -41.6 -6.4 0
v -44.8 -6.4 0
v -44.8 -3.2 0
v -41.6 -3.2 0
v -44.8 -6.4 0
v -48 -6.4 0
v -48 -3.2 0
v -44.8 -3.2 0
v -48 -6.4 0
v -51.2 -6.4 0
v -51.2 -3.2 0
v -48 -3.2 0
v 0 -9.6 0
v -3.2 -9.6 0
v -3.2 -6.4 0
v 0 -6.4 0
v -3.2 -9.6 0
v -6.4 -9.6 0
v -6.4 -6.4 0
v -3.2 -6.4 0
v -6.4 -9.6 0
v -9.6 -9.6 0
v -9.6 -6.4 0
v -6.4 -6.4 0
v -9.6 -9.6 0
v -12.8 -9.6 0
v -12.8 -6.4 0
v -9.6 -6.4 0
v -12.8 -9.6 0
v -16 -9.6 0
v -16 -6.4 0
v -12.8 -6.4 0
v -16 -9.6 0
v -19.2 -9.6 0
v -19.2 -6.4 0
v -16 -6.4 0
v -19.2 -9.6 0
v -22.4 -9.6 0
v -22.4 -6.4 0
v -19.2 -6.4 0
v -22.4 -9.6 0
v -25.6 -9.6 0
v -25.6 -6.4 0
v -22.4 -6.4 0
v -25.6 -9.6 0
v -28.8 -9.6 0
v -28.8 -6.4 0
v -25.6 -6.4 0
v -28.8 -9.6 0
v -32 -9.6 0
v -32 -6.4 0
v -28.8 -6.4 0
v -32 -9.6 0
v -35.2 -9.6 0
v -35.2 -6.4 0
v -32 -6.4 0
v -35.2 -9.6 0
v -38.4 -9.6 0
v -38.4 -6.4 0
v -35.2 -6.4 0
v -38.4 -9.6 0
v -41.6 -9.6 0
v -41.6 -6.4 0
v -38.4 -6.4 0
v -41.6 -9.6 0
v -44.8 -9.6 0
v -44.8 -6.4 0
v -41.6 -6.4 0
v -44.8 -9.6 0
v -48 -9.6 0
v -48 -6.4 0
v -44.8 -6.4 0
v -48 -9.6 0
v -51.2 -9.6 0
v -51.2 -6.4 0
v -48 -6.4 0
v 0 -12.8 0
v -3.2 -12.8 0
v -3.2 -9.6 0
v 0 -9.6 0
v -3.2 -12.8 0
v -6.4 -12.8 0
v -6.4 -9.6 0
v -3.2 -9.6 0
v -6.4 -12.8 0
v -9.6 -12.8 0
v -9.6 -9.6 0
v -6.4 -9.6 0
v -9.6 -12.8 0
v -12.8 -12.8 0
v -12.8 -9.6 0
v -9.6 -9.6 0
v -12.8 -12.8 0
v -16 -12.8 0
v -16 -9.6 0
v -12.8 -9.6 0
v -16 -12.8 0
v -19.2 -12.8 0
v -19.2 -9.6 0
v -16 -9.6 0
v -19.2 -12.8 0
v -22.4 -12.8 0
v -22.4 -9.6 0
v -19.2 -9.6 0
v -22.4 -12.8 0
v -25.6 -12.8 0
v -25.6 -9.6 0
v -22.4 -9.6 0
v -25.6 -12.8 0
v -28.8 -12.8 0
v -28.8 -9.6 0
v -25.6 -9.6 0
v -28.8 -12.8 0
v -32 -12.8 0
v -32 -9.6 0
v -28.8 -9.6 0
v -32 -12.8 0
v -35.2 -12.8 0
v -35.2 -9.6 0
v -32 -9.6 0
v -35.2 -12.8 0
v -38.4 -12.8 0
v -38.4 -9.6 0
v -35.2 -9.6 0
v -38.4 -12.8 0
v -41.6 -12.8 0
v -41.6 -9.6 0
v -38.4 -9.6 0
v -41.6 -12.8 0
v -44.8 -12.8 0
v -44.8 -9.6 0
v -41.6 -9.6 0
v -44.8 -12.8 0
v -48 -12.8 0
v -48 -9.6 0
v -44.8 -9.6 0
v -48 -12.8 0
v -51.2 -12.8 0
v -51.2 -9.6 0
v -48 -9.6 0
v 0 -16 0
v -3.2 -16 0
v -3.2 -12.8 0
v 0 -12.8 0
v -3.2 -16 0
v -6.4 -16 0
v -6.4 -12.8 0
v -3.2 -12.8 0
v -6.4 -16 0
v -9.6 -16 0
v -9.6 -12.8 0
v -6.4 -12.8 0
v -9.6 -16 0
v -12.8 -16 0
v -12.8 -12.8 0
v -9.6 -12.8 0
v -12.8 -16 0
v -16 -16 0
v -16 -12.8 0
v -12.8 -12.8 0
v -16 -16 0
v -19.2 -16 0
v -19.2 -12.8 0
v -16 -12.8 0
v -19.2 -16 0
v -22.4 -16 0
v -22.4 -12.8 0
v -19.2 -12.8 0
v -22.4 -16 0
v -25.6 -16 0
v -25.6 -12.8 0
v -22.4 -12.8 0
v -25.6 -16 0
v -28.8 -16 0
v -28.8 -12.8 0
v -25.6 -12.8 0
v -28.8 -16 0
v -32 -16 0
v -32 -12.8 0
v -28.8 -12.8 0
v -32 -16 0
v -35.2 -16 0
v -35.2 -12.8 0
v -32 -12.8 0
v -35.2 -16 0
v -38.4 -16 0
v -38.4 -12.8 0
v -35.2 -12.8 0
v -38.4 -16 0
v -41.6 -16 0
v -41.6 -12.8 0
v -38.4 -12.8 0
v -41.6 -16 0
v -44.8 -16 0
v -44.8 -12.8 0
v -41.6 -12.8 0
v -44.8 -16 0
v -48 -16 0
v -48 -12.8 0
v -44.8 -12.8 0
v -48 -16 0
v -51.2 -16 0
v -51.2 -12.8 0
v -48 -12.8 0
v 0 -19.2 0
v -3.2 -19.2 0
v -3.2 -16 0
v 0 -16 0
v -3.2 -19.2 0
v -6.4 -19.2 0
v -6.4 -16 0
v -3.2 -16 0
v -6.4 -19.2 0
v -9.6 -19.2 0
v -9.6 -16 0
v -6.4 -16 0
v -9.6 -19.2 0
v -12.8 -19.2 0
v -12.8 -16 0
v -9.6 -16 0
v -12.8 -19.2 0
v -16 -19.2 0
v -16 -16 0
v -12.8 -16 0
v -16 -19.2 0
v -19.2 -19.2 0
v -19.2 -16 0
v -16 -16 0
v -19.2 -19.2 0
v -22.4 -19.2 0
v -22.4 -16 0
v -19.2 -16 0
v -22.4 -19.2 0
v -25.6 -19.2 0
v -25.6 -16 0
v -22.4 -16 0
v -25.6 -19.2 0
v -28.8 -19.2 0
v -28.8 -16 0
v -25.6 -16 0
v -28.8 -19.2 0
v -32 -19.2 0
v -32 -16 0
v -28.8 -16 0
v -32 -19.2 0
v -35.2 -19.2 0
v -35.2 -16 0
v -32 -16 0
v -35.2 -19.2 0
v -38.4 -19.2 0
v -38.4 -16 0
v -35.2 -16 0
v -38.4 -19.2 0
v -41.6 -19.2 0
v -41.6 -16 0
v -38.4 -16 0
v -41.6 -19.2 0
v -44.8 -19.2 0
v -44.8 -16 0
v -41.6 -16 0
v -44.8 -19.2 0
v -48 -19.2 0
v -48 -16 0
v -44.8 -16 0
v -48 -19.2 0
v -51.2 -19.2 0
v -51.2 -16 0
v -48 -16 0
v 0 -22.4 0
v -3.2 -22.4 0
v -3.2 -19.2 0
v 0 -19.2 0
v -3.2 -22.4 0
v -6.4 -22.4 0
v -6.4 -19.2 0
v -3.2 -19.2 0
v -6.4 -22.4 0
v -9.6 -22.4 0
v -9.6 -19.2 0
v -6.4 -19.2 0
v -9.6 -22.4 0
v -12.8 -22.4 0
v -12.8 -19.2 0
v -9.6 -19.2 0
v -12.8 -22.4 0
v -16 -22.4 0
v -16 -19.2 0
v -12.8 -19.2 0
v -16 -22.4 0
v -19.2 -22.4 0
v -19.2 -19.2 0
v -16 -19.2 0
v -19.2 -22.4 0
v -22.4 -22.4 0
v -22.4 -19.2 0
v -19.2 -19.2 0
v -22.4 -22.4 0
v -25.6 -22.4 0
v -25.6 -19.2 0
v -22.4 -19.2 0
v -25.6 -22.4 0
v -28.8 -22.4 0
v -28.8 -19.2 0
v -25.6 -19.2 0
v -28.8 -22.4 0
v -32 -22.4 0
v -32 -19.2 0
v -28.8 -19.2 0
v -32 -22.4 0
v -35.2 -22.4 0
v -35.2 -19.2 0
v -32 -19.2 0
v -35.2 -22.4 0
v -38.4 -22.4 0
v -38.4 -19.2 0
v -35.2 -19.2 0
v -38.4 -22.4 0
v -41.6 -22.4 0
v -41.6 -19.2 0
v -38.4 -19.2 0
v -41.6 -22.4 0
v -44.8 -22.4 0
v -44.8 -19.2 0
v -41.6 -19.2 0
v -44.8 -22.4 0
v -48 -22.4 0
v -48 -19.2 0
v -44.8 -19.2 0
v -48 -22.4 0
v -51.2 -22.4 0
v -51.2 -19.2 0
v -48 -19.2 0
v 0 -25.6 0
v -3.2 -25.6 0
v -3.2 -22.4 0
v 0 -22.4 0
v -3.2 -25.6 0
v -6.4 -25.6 0
v -6.4 -22.4 0
v -3.2 -22.4 0
v -6.4 -25.6 0
v -9.6 -25.6 0
v -9.6 -22.4 0
v -6.4 -22.4 0
v -9.6 -25.6 0
v -12.8 -25.6 0
v -12.8 -22.4 0
v -9.6 -22.4 0
v -12.8 -25.6 0
v -16 -25.6 0
v -16 -22.4 0
v -12.8 -22.4 0
v -16 -25.6 0
v -19.2 -25.6 0
v -19.2 -22.4 0
v -16 -22.4 0
v -19.2 -25.6 0
v -22.4 -25.6 0
v -22.4 -22.4 0
v -19.2 -22.4 0
v -22.4 -25.6 0
v -25.6 -25.6 0
v -25.6 -22.4 0
v -22.4 -22.4 0
v -25.6 -25.6 0
v -28.8 -25.6 0
v -28.8 -22.4 0
v -25.6 -22.4 0
v -28.8 -25.6 0
v -32 -25.6 0
v -32 -22.4 0
v -28.8 -22.4 0
v -32 -25.6 0
v -35.2 -25.6 0
v -35.2 -22.4 0
v -32 -22.4 0
v -35.2 -25.6 0
v -38.4 -25.6 0
v -38.4 -22.4 0
v -35.2 -22.4 0
v -38.4 -25.6 0
v -41.6 -25.6 0
v -41.6 -22.4 0
v -38.4 -22.4 0
v -41.6 -25.6 0
v -44.8 -25.6 0
v -44.8 -22.4 0
v -41.6 -22.4 0
v -44.8 -25.6 0
v -48 -25.6 0
v -48 -22.4 0
v -44.8 -22.4 0
v -48 -25.6 0
v -51.2 -25.6 0
v -51.2 -22.4 0
v -48 -22.4 0
v 0 -28.8 0
v -3.2 -28.8 0
v -3.2 -25.6 0
v 0 -25.6 0
v -3.2 -28.8 0
v -6.4 -28.8 0
v -6.4 -25.6 0
v -3.2 -25.6 0
v -6.4 -28.8 0
v -9.6 -28.8 0
v -9.6 -25.6 0
v -6.4 -25.6 0
v -9.6 -28.8 0
v -12.8 -28.8 0
v -12.8 -25.6 0
v -9.6 -25.6 0
v -12.8 -28.8 0
v -16 -28.8 0
v -16 -25.6 0
v -12.8 -25.6 0
v -16 -28.8 0
v -19.2 -28.8 0
v -19.2 -25.6 0
v -16 -25.6 0
v -19.2 -28.8 0
v -22.4 -28.8 0
v -22.4 -25.6 0
v -19.2 -25.6 0
v -22.4 -28.8 0
v -25.6 -28.8 0
v -25.6 -25.6 0
v -22.4 -25.6 0
v -25.6 -28.8 0
v -28.8 -28.8 0
v -28.8 -25.6 0
v -25.6 -25.6 0
v -28.8 -28.8 0
v -32 -28.8 0
v -32 -25.6 0
v -28.8 -25.6 0
v -32 -28.8 0
v -35.2 -28.8 0
v -35.2 -25.6 0
v -32 -25.6 0
v -35.2 -28.8 0
v -38.4 -28.8 0
v -38.4 -25.6 0
v -35.2 -25.6 0
v -38.4 -28.8 0
v -41.6 -28.8 0
v -41.6 -25.6 0
v -38.4 -25.6 0
v -41.6 -28.8 0
v -44.8 -28.8 0
v -44.8 -25.6 0
v -41.6 -25.6 0
v -44.8 -28.8 0
v -48 -28.8 0
v -48 -25.6 0
v -44.8 -25.6 0
v -48 -28.8 0
v -51.2 -28.8 0
v -51.2 -25.6 0
v -48 -25.6 0
v 0 -32 0
v -3.2 -32 0
v -3.2 -28.8 0
v 0 -28.8 0
v -3.2 -32 0
v -6.4 -32 0
v -6.4 -28.8 0
v -3.2 -28.8 0
v -6.4 -32 0
v -9.6 -32 0
v -9.6 -28.8 0
v -6.4 -28.8 0
v -9.6 -32 0
v -12.8 -32 0
v -12.8 -28.8 0
v -9.6 -28.8 0
v -12.8 -32 0
v -16 -32 0
v -16 -28.8 0
v -12.8 -28.8 0
v -16 -32 0
v -19.2 -32 0
v -19.2 -28.8 0
v -16 -28.8 0
v -19.2 -32 0
v -22.4 -32 0
v -22.4 -28.8 0
v -19.2 -28.8 0
v -22.4 -32 0
v -25.6 -32 0
v -25.6 -28.8 0
v -22.4 -28.8 0
v -25.6 -32 0
v -28.8 -32 0
v -28.8 -28.8 0
v -25.6 -28.8 0
v -28.8 -32 0
v -32 -32 0
v -32 -28.8 0
v -28.8 -28.8 0
v -32 -32 0
v -35.2 -32 0
v -35.2 -28.8 0
v -32 -28.8 0
v -35.2 -32 0
v -38.4 -32 0
v -38.4 -28.8 0
v -35.2 -28.8 0
v -38.4 -32 0
v -41.6 -32 0
v -41.6 -28.8 0
v -38.4 -28.8 0
v -41.6 -32 0
v -44.8 -32 0
v -44.8 -28.8 0
v -41.6 -28.8 0
v -44.8 -32 0
v -48 -32 0
v -48 -28.8 0
v -44.8 -28.8 0
v -48 -32 0
v -51.2 -32 0
v -51.2 -28.8 0
v -48 -28.8 0
v 0 -35.2 0
v -3.2 -35.2 0
v -3.2 -32 0
v 0 -32 0
v -3.2 -35.2 0
v -6.4 -35.2 0
v -6.4 -32 0
v -3.2 -32 0
v -6.4 -35.2 0
v -9.6 -35.2 0
v -9.6 -32 0
v -6.4 -32 0
v -9.6 -35.2 0
v -12.8 -35.2 0
v -12.8 -32 0
v -9.6 -32 0
v -12.8 -35.2 0
v -16 -35.2 0
v -16 -32 0
v -12.8 -32 0
v -16 -35.2 0
v -19.2 -35.2 0
v -19.2 -32 0
v -16 -32 0
v -19.2 -35.2 0
v -22.4 -35.2 0
v -22.4 -32 0
v -19.2 -32 0
v -22.4 -35.2 0
v -25.6 -35.2 0
v -25.6 -32 0
v -22.4 -32 0
v -25.6 -35.2 0
v -28.8 -35.2 0
v -28.8 -32 0
v -25.6 -32 0
v -28.8 -35.2 0
v -32 -35.2 0
v -32 -32 0
v -28.8 -32 0
v -32 -35.2 0
v -35.2 -35.2 0
v -35.2 -32 0
v -32 -32 0
v -35.2 -35.2 0
v -38.4 -35.2 0
v -38.4 -32 0
v -35.2 -32 0
v -38.4 -35.2 0
v -41.6 -35.2 0
v -41.6 -32 0
v -38.4 -32 0
v -41.6 -35.2 0
v -44.8 -35.2 0
v -44.8 -32 0
v -41.6 -32 0
v -44.8 -35.2 0
v -48 -35.2 0
v -48 -32 0
v -44.8 -32 0
v -48 -35.2 0
v -51.2 -35.2 0
v -51.2 -32 0
v -48 -32 0
v 0 -38.4 0
v -3.2 -38.4 0
v -3.2 -35.2 0
v 0 -35.2 0
v -3.2 -38.4 0
v -6.4 -38.4 0
v -6.4 -35.2 0
v -3.2 -35.2 0
v -6.4 -38.4 0
v -9.6 -38.4 0
v -9.6 -35.2 0
v -6.4 -35.2 0
v -9.6 -38.4 0
v -12.8 -38.4 0
v -12.8 -35.2 0
v -9.6 -35.2 0
v -12.8 -38.4 0
v -16 -38.4 0
v -16 -35.2 0
v -12.8 -35.2 0
v -16 -38.4 0
v -19.2 -38.4 0
v -19.2 -35.2 0
v -16 -35.2 0
v -19.2 -38.4 0
v -22.4 -38.4 0
v -22.4 -35.2 0
v -19.2 -35.2 0
v -22.4 -38.4 0
v -25.6 -38.4 0
v -25.6 -35.2 0
v -22.4 -35.2 0
v -25.6 -38.4 0
v -28.8 -38.4 0
v -28.8 -35.2 0
v -25.6 -35.2 0
v -28.8 -38.4 0
v -32 -38.4 0
v -32 -35.2 0
v -28.8 -35.2 0
v -32 -38.4 0
v -35.2 -38.4 0
v -35.2 -35.2 0
v -32 -35.2 0
v -35.2 -38.4 0
v -38.4 -38.4 0
v -38.4 -35.2 0
v -35.2 -35.2 0
v -38.4 -38.4 0
v -41.6 -38.4 0
v -41.6 -35.2 0
v -38.4 -35.2 0
v -41.6 -38.4 0
v -44.8 -38.4 0
v -44.8 -35.2 0
v -41.6 -35.2 0
v -44.8 -38.4 0
v -48 -38.4 0
v -48 -35.2 0
v -44.8 -35.2 0
v -48 -38.4 0
v -51.2 -38.4 0
v -51.2 -35.2 0
v -48 -35.2 0
v 0 -41.6 0
v -3.2 -41.6 0
v -3.2 -38.4 0
v 0 -38.4 0
v -3.2 -41.6 0
v -6.4 -41.6 0
v -6.4 -38.4 0
v -3.2 -38.4 0
v -6.4 -41.6 0
v -9.6 -41.6 0
v -9.6 -38.4 0
v -6.4 -38.4 0
v -9.6 -41.6 0
v -12.8 -41.6 0
v -12.8 -38.4 0
v -9.6 -38.4 0
v -12.8 -41.6 0
v -16 -41.6 0
v -16 -38.4 0
v -12.8 -38.4 0
v -16 -41.6 0
v -19.2 -41.6 0
v -19.2 -38.4 0
v -16 -38.4 0
v -19.2 -41.6 0
v -22.4 -41.6 0
v -22.4 -38.4 0
v -19.2 -38.4 0
v -22.4 -41.6 0
v -25.6 -41.6 0
v -25.6 -38.4 0
v -22.4 -38.4 0
v -25.6 -41.6 0
v -28.8 -41.6 0
v -28.8 -38.4 0
v -25.6 -38.4 0
v -28.8 -41.6 0
v -32 -41.6 0
v -32 -38.4 0
v -28.8 -38.4 0
v -32 -41.6 0
v -35.2 -41.6 0
v -35.2 -38.4 0
v -32 -38.4 0
v -35.2 -41.6 0
v -38.4 -41.6 0
v -38.4 -38.4 0
v -35.2 -38.4 0
v -38.4 -41.6 0
v -41.6 -41.6 0
v -41.6 -38.4 0
v -38.4 -38.4 0
v -41.6 -41.6 0
v -44.8 -41.6 0
v -44.8 -38.4 0
v -41.6 -38.4 0
v -44.8 -41.6 0
v -48 -41.6 0
v -48 -38.4 0
v -44.8 -38.4 0
v -48 -41.6 0
v -51.2 -41.6 0
v -51.2 -38.4 0
v -48 -38.4 0
v 0 -44.8 0
v -3.2 -44.8 0
v -3.2 -41.6 0
v 0 -41.6 0
v -3.2 -44.8 0
v -6.4 -44.8 0
v -6.4 -41.6 0
v -3.2 -41.6 0
v -6.4 -44.8 0
v -9.6 -44.8 0
v -9.6 -41.6 0
v -6.4 -41.6 0
v -9.6 -44.8 0
v -12.8 -44.8 0
v -12.8 -41.6 0
v -9.6 -41.6 0
v -12.8 -44.8 0
v -16 -44.8 0
v -16 -41.6 0
v -12.8 -41.6 0
v -16 -44.8 0
v -19.2 -44.8 0
v -19.2 -41.6 0
v -16 -41.6 0
v -19.2 -44.8 0
v -22.4 -44.8 0
v -22.4 -41.6 0
v -19.2 -41.6 0
v -22.4 -44.8 0
v -25.6 -44.8 0
v -25.6 -41.6 0
v -22.4 -41.6 0
v -25.6 -44.8 0
v -28.8 -44.8 0
v -28.8 -41.6 0
v -25.6 -41.6 0
v -28.8 -44.8 0
v -32 -44.8 0
v -32 -41.6 0
v -28.8 -41.6 0
v -32 -44.8 0
v -35.2 -44.8 0
v -35.2 -41.6 0
v -32 -41.6 0
v -35.2 -44.8 0
v -38.4 -44.8 0
v -38.4 -41.6 0
v -35.2 -41.6 0
v -38.4 -44.8 0
v -41.6 -44.8 0
v -41.6 -41.6 0
v -38.4 -41.6 0
v -41.6 -44.8 0
v -44.8 -44.8 0
v -44.8 -41.6 0
v -41.6 -41.6 0
v -44.8 -44.8 0
v -48 -44.8 0
v -48 -41.6 0
v -44.8 -41.6 0
v -48 -44.8 0
v -51.2 -44.8 0
v -51.2 -41.6 0
v -48 -41.6 0
v 0 -48 0
v -3.2 -48 0
v -3.2 -44.8 0
v 0 -44.8 0
v -3.2 -48 0
v -6.4 -48 0
v -6.4 -44.8 0
v -3.2 -44.8 0
v -6.4 -48 0
v -9.6 -48 0
v -9.6 -44.8 0
v -6.4 -44.8 0
v -9.6 -48 0
v -12.8 -48 0
v -12.8 -44.8 0
v -9.6 -44.8 0
v -12.8 -48 0
v -16 -48 0
v -16 -44.8 0
v -12.8 -44.8 0
v -16 -48 0
v -19.2 -48 0
v -19.2 -44.8 0
v -16 -44.8 0
v -19.2 -48 0
v -22.4 -48 0
v -22.4 -44.8 0
v -19.2 -44.8 0
v -22.4 -48 0
v -25.6 -48 0
v -25.6 -44.8 0
v -22.4 -44.8 0
v -25.6 -48 0
v -28.8 -48 0
v -28.8 -44.8 0
v -25.6 -44.8 0
v -28.8 -48 0
v -32 -48 0
v -32 -44.8 0
v -28.8 -44.8 0
v -32 -48 0
v -35.2 -48 0
v -35.2 -44.8 0
v -32 -44.8 0
v -35.2 -48 0
v -38.4 -48 0
v -38.4 -44.8 0
v -35.2 -44.8 0
v -38.4 -48 0
v -41.6 -48 0
v -41.6 -44.8 0
v -38.4 -44.8 0
v -41.6 -48 0
v -44.8 -48 0
v -44.8 -44.8 0
v -41.6 -44.8 0
v -44.8 -48 0
v -48 -48 0
v -48 -44.8 0
v -44.8 -44.8 0
v -48 -48 0
v -51.2 -48 0
v -51.2 -44.8 0
v -48 -44.8 0
v 0 -51.2 0
v -3.2 -51.2 0
v -3.2 -48 0
v 0 -48 0
v -3.2 -51.2 0
v -6.4 -51.2 0
v -6.4 -48 0
v -3.2 -48 0
v -6.4 -51.2 0
v -9.6 -51.2 0
v -9.6 -48 0
v -6.4 -48 0
v -9.6 -51.2 0
v -12.8 -51.2 0
v -12.8 -48 0
v -9.6 -48 0
v -12.8 -51.2 0
v -16 -51.2 0
v -16 -48 0
v -12.8 -48 0
v -16 -51.2 0
v -19.2 -51.2 0
v -19.2 -48 0
v -16 -48 0
v -19.2 -51.2 0
v -22.4 -51.2 0
v -22.4 -48 0
v -19.2 -48 0
v -22.4 -51.2 0
v -25.6 -51.2 0
v -25.6 -48 0
v -22.4 -48 0
v -25.6 -51.2 0
v -28.8 -51.2 0
v -28.8 -48 0
v -25.6 -48 0
v -28.8 -51.2 0
v -32 -51.2 0
v -32 -48 0
v -28.8 -48 0
v -32 -51.2 0
v -35.2 -51.2 0
v -35.2 -48 0
v -32 -48 0
v -35.2 -51.2 0
v -38.4 -51.2 0
v -38.4 -48 0
v -35.2 -48 0
v -38.4 -51.2 0
v -41.6 -51.2 0
v -41.6 -48 0
v -38.4 -48 0
v -41.6 -51.2 0
v -44.8 -51.2 0
v -44.8 -48 0
v -41.6 -48 0
v -44.8 -51.2 0
v -48 -51.2 0
v -48 -48 0
v -44.8 -48 0
v -48 -51.2 0
v -51.2 -51.2 0
v -51.2 -48 0
v -48 -48 0

# Texture cooridinates (Count = 12)
vt 0.78125 0.8125
vt 0.8125 0.8125
vt 0.8125 0.84375
vt 0.78125 0.84375
vt 0.3125 0.875
vt 0.34375 0.875
vt 0.34375 0.90625
vt 0.3125 0.90625
vt 0.40625 0.875
vt 0.4375 0.875
vt 0.4375 0.90625
vt 0.40625 0.90625

# Normal
vn 0 0 -1

# Mesh description
g mediumRoom_mesh_0001

# Faces
f 1/1/1 2/2/1 3/3/1 4/4/1
f 5/1/1 6/2/1 7/3/1 8/4/1
f 9/1/1 10/2/1 11/3/1 12/4/1
f 13/1/1 14/2/1 15/3/1 16/4/1
f 17/1/1 18/2/1 19/3/1 20/4/1
f 21/1/1 22/2/1 23/3/1 24/4/1
f 25/1/1 26/2/1 27/3/1 28/4/1
f 29/1/1 30/2/1 31/3/1 32/4/1
f 33/1/1 34/2/1 35/3/1 36/4/1
f 37/1/1 38/2/1 39/3/1 40/4/1
f 41/1/1 42/2/1 43/3/1 44/4/1
f 45/1/1 46/2/1 47/3/1 48/4/1
f 49/1/1 50/2/1 51/3/1 52/4/1
f 53/1/1 54/2/1 55/3/1 56/4/1
f 57/1/1 58/2/1 59/3/1 60/4/1
f 61/1/1 62/2/1 63/3/1 64/4/1
f 65/1/1 66/2/1 67/3/1 68/4/1
f 69/5/1 70/6/1 71/7/1 72/8/1
f 73/5/1 74/6/1 75/7/1 76/8/1
f 77/5/1 78/6/1 79/7/1 80/8/1
f 81/5/1 82/6/1 83/7/1 84/8/1
f 85/5/1 86/6/1 87/7/1 88/8/1
f 89/5/1 90/6/1 91/7/1 92/8/1
f 93/5/1 94/6/1 95/7/1 96/8/1
f 97/5/1 98/6/1 99/7/1 100/8/1
f 101/5/1 102/6/1 103/7/1 104/8/1
f 105/5/1 106/6/1 107/7/1 108/8/1
f 109/5/1 110/6/1 111/7/1 112/8/1
f 113/5/1 114/6/1 115/7/1 116/8/1
f 117/5/1 118/6/1 119/7/1 120/8/1
f 121/5/1 122/6/1 123/7/1 124/8/1
f 125/1/1 126/2/1 127/3/1 128/4/1
f 129/1/1 130/2/1 131/3/1 132/4/1
f 133/5/1 134/6/1 135/7/1 136/8/1
f 137/9/1 138/10/1 139/11/1 140/12/1
f 141/9/1 142/10/1 143/11/1 144/12/1
f 145/9/1 146/10/1 147/11/1 148/12/1
f 149/9/1 150/10/1 151/11/1 152/12/1
f 153/9/1 154/10/1 155/11/1 156/12/1
f 157/9/1 158/10/1 159/11/1 160/12/1
f 161/9/1 162/10/1 163/11/1 164/12/1
f 165/9/1 166/10/1 167/11/1 168/12/1
f 169/9/1 170/10/1 171/11/1 172/12/1
f 173/9/1 174/10/1 175/11/1 176/12/1
f 177/9/1 178/10/1 179/11/1 180/12/1
f 181/9/1 182/10/1 183/11/1 184/12/1
f 185/5/1 186/6/1 187/7/1 188/8/1
f 189/1/1 190/2/1 191/3/1 192/4/1
f 193/1/1 194/2/1 195/3/1 196/4/1
f 197/5/1 198/6/1 199/7/1 200/8/1
f 201/9/1 202/10/1 203/11/1 204/12/1
f 205/9/1 206/10/1 207/11/1 208/12/1
f 209/9/1 210/10/1 211/11/1 212/12/1
f 213/9/1 214/10/1 215/11/1 216/12/1
f 217/9/1 218/10/1 219/11/1 220/12/1
f 221/9/1 222/10/1 223/11/1 224/12/1
f 225/9/1 226/10/1 227/11/1 228/12/1
f 229/9/1 230/10/1 231/11/1 232/12/1
f 233/9/1 234/10/1 235/11/1 236/12/1
f 237/9/1 238/10/1 239/11/1 240/12/1
f 241/9/1 242/10/1 243/11/1 244/12/1
f 245/9/1 246/10/1 247/11/1 248/12/1
f 249/5/1 250/6/1 251/7/1 252/8/1
f 253/1/1 254/2/1 255/3/1 256/4/1
f 257/1/1 258/2/1 259/3/1 260/4/1
f 261/5/1 262/6/1 263/7/1 264/8/1
f 265/9/1 266/10/1 267/11/1 268/12/1
f 269/9/1 270/10/1 271/11/1 272/12/1
f 273/9/1 274/10/1 275/11/1 276/12/1
f 277/9/1 278/10/1 279/11/1 280/12/1
f 281/9/1 282/10/1 283/11/1 284/12/1
f 285/9/1 286/10/1 287/11/1 288/12/1
f 289/9/1 290/10/1 291/11/1 292/12/1
f 293/9/1 294/10/1 295/11/1 296/12/1
f 297/9/1 298/10/1 299/11/1 300/12/1
f 301/9/1 302/10/1 303/11/1 304/12/1
f 305/9/1 306/10/1 307/11/1 308/12/1
f 309/9/1 310/10/1 311/11/1 312/12/1
f 313/5/1 314/6/1 315/7/1 316/8/1
f 317/1/1 318/2/1 319/3/1 320/4/1
f 321/1/1 322/2/1 323/3/1 324/4/1
f 325/5/1 326/6/1 327/7/1 328/8/1
f 329/9/1 330/10/1 331/11/1 332/12/1
f 333/9/1 334/10/1 335/11/1 336/12/1
f 337/9/1 338/10/1 339/11/1 340/12/1
f 341/9/1 342/10/1 343/11/1 344/12/1
f 345/9/1 346/10/1 347/11/1 348/12/1
f 349/9/1 350/10/1 351/11/1 352/12/1
f 353/9/1 354/10/1 355/11/1 356/12/1
f 357/9/1 358/10/1 359/11/1 360/12/1
f 361/9/1 362/10/1 363/11/1 364/12/1
f 365/9/1 366/10/1 367/11/1 368/12/1
f 369/9/1 370/10/1 371/11/1 372/12/1
f 373/9/1 374/10/1 375/11/1 376/12/1
f 377/5/1 378/6/1 379/7/1 380/8/1
f 381/1/1 382/2/1 383/3/1 384/4/1
f 385/1/1 386/2/1 387/3/1 388/4/1
f 389/5/1 390/6/1 391/7/1 392/8/1
f 393/9/1 394/10/1 395/11/1 396/12/1
f 397/9/1 398/10/1 399/11/1 400/12/1
f 401/9/1 402/10/1 403/11/1 404/12/1
f 405/9/1 406/10/1 407/11/1 408/12/1
f 409/9/1 410/10/1 411/11/1 412/12/1
f 413/9/1 414/10/1 415/11/1 416/12/1
f 417/9/1 418/10/1 419/11/1 420/12/1
f 421/9/1 422/10/1 423/11/1 424/12/1
f 425/9/1 426/10/1 427/11/1 428/12/1
f 429/9/1 430/10/1 431/11/1 432/12/1
f 433/9/1 434/10/1 435/11/1 436/12/1
f 437/9/1 438/10/1 439/11/1 440/12/1
f 441/5/1 442/6/1 443/7/1 444/8/1
f 445/1/1 446/2/1 447/3/1 448/4/1
f 449/1/1 450/2/1 451/3/1 452/4/1
f 453/5/1 454/6/1 455/7/1 456/8/1
f 457/9/1 458/10/1 459/11/1 460/12/1
f 461/9/1 462/10/1 463/11/1 464/12/1
f 465/9/1 466/10/1 467/11/1 468/12/1
f 469/9/1 470/10/1 471/11/1 472/12/1
f 473/9/1 474/10/1 475/11/1 476/12/1
f 477/9/1 478/10/1 479/11/1 480/12/1
f 481/9/1 482/10/1 483/11/1 484/12/1
f 485/9/1 486/10/1 487/11/1 488/12/1
f 489/9/1 490/10/1 491/11/1 492/12/1
f 493/9/1 494/10/1 495/11/1 496/12/1
f 497/9/1 498/10/1 499/11/1 500/12/1
f 501/9/1 502/10/1 503/11/1 504/12/1
f 505/5/1 506/6/1 507/7/1 508/8/1
f 509/1/1 510/2/1 511/3/1 512/4/1
f 513/1/1 514/2/1 515/3/1 516/4/1
f 517/5/1 518/6/1 519/7/1 520/8/1
f 521/9/1 522/10/1 523/11/1 524/12/1
f 525/9/1 526/10/1 527/11/1 528/12/1
f 529/9/1 530/10/1 531/11/1 532/12/1
f 533/9/1 534/10/1 535/11/1 536/12/1
f 537/9/1 538/10/1 539/11/1 540/12/1
f 541/9/1 542/10/1 543/11/1 544/12/1
f 545/9/1 546/10/1 547/11/1 548/12/1
f 549/9/1 550/10/1 551/11/1 552/12/1
f 553/9/1 554/10/1 555/11/1 556/12/1
f 557/9/1 558/10/1 559/11/1 560/12/1
f 561/9/1 562/10/1 563/11/1 564/12/1
f 565/9/1 566/10/1 567/11/1 568/12/1
f 569/5/1 570/6/1 571/7/1 572/8/1
f 573/1/1 574/2/1 575/3/1 576/4/1
f 577/1/1 578/2/1 579/3/1 580/4/1
f 581/5/1 582/6/1 583/7/1 584/8/1
f 585/9/1 586/10/1 587/11/1 588/12/1
f 589/9/1 590/10/1 591/11/1 592/12/1
f 593/9/1 594/10/1 595/11/1 596/12/1
f 597/9/1 598/10/1 599/11/1 600/12/1
f 601/9/1 602/10/1 603/11/1 604/12/1
f 605/9/1 606/10/1 607/11/1 608/12/1
f 609/9/1 610/10/1 611/11/1 612/12/1
f 613/9/1 614/10/1 615/11/1 616/12/1
f 617/9/1 618/10/1 619/11/1 620/12/1
f 621/9/1 622/10/1 623/11/1 624/12/1
f 625/9/1 626/10/1 627/11/1 628/12/1
f 629/9/1 630/10/1 631/11/1 632/12/1
f 633/5/1 634/6/1 635/7/1 636/8/1
f 637/1/1 638/2/1 639/3/1 640/4/1
f 641/1/1 642/2/1 643/3/1 644/4/1
f 645/5/1 646/6/1 647/7/1 648/8/1
f 649/9/1 650/10/1 651/11/1 652/12/1
f 653/9/1 654/10/1 655/11/1 656/12/1
f 657/9/1 658/10/1 659/11/1 660/12/1
f 661/9/1 662/10/1 663/11/1 664/12/1
f 665/9/1 666/10/1 667/11/1 668/12/1
f 669/9/1 670/10/1 671/11/1 672/12/1
f 673/9/1 674/10/1 675/11/1 676/12/1
f 677/9/1 678/10/1 679/11/1 680/12/1
f 681/9/1 682/10/1 683/11/1 684/12/1
f 685/9/1 686/10/1 687/11/1 688/12/1
f 689/9/1 690/10/1 691/11/1 692/12/1
f 693/9/1 694/10/1 695/11/1 696/12/1
f 697/5/1 698/6/1 699/7/1 700/8/1
f 701/1/1 702/2/1 703/3/1 704/4/1
f 705/1/1 706/2/1 707/3/1 708/4/1
f 709/5/1 710/6/1 711/7/1 712/8/1
f 713/9/1 714/10/1 715/11/1 716/12/1
f 717/9/1 718/10/1 719/11/1 720/12/1
f 721/9/1 722/10/1 723/11/1 724/12/1
f 725/9/1 726/10/1 727/11/1 728/12/1
f 729/9/1 730/10/1 731/11/1 732/12/1
f 733/9/1 734/10/1 735/11/1 736/12/1
f 737/9/1 738/10/1 739/11/1 740/12/1
f 741/9/1 742/10/1 743/11/1 744/12/1
f 745/9/1 746/10/1 747/11/1 748/12/1
f 749/9/1 750/10/1 751/11/1 752/12/1
f 753/9/1 754/10/1 755/11/1 756/12/1
f 757/9/1 758/10/1 759/11/1 760/12/1
f 761/5/1 762/6/1 763/7/1 764/8/1
f 765/1/1 766/2/1 767/3/1 768/4/1
f 769/1/1 770/2/1 771/3/1 772/4/1
f 773/5/1 774/6/1 775/7/1 776/8/1
f 777/9/1 778/10/1 779/11/1 780/12/1
f 781/9/1 782/10/1 783/11/1 784/12/1
f 785/9/1 786/10/1 787/11/1 788/12/1
f 789/9/1 790/10/1 791/11/1 792/12/1
f 793/9/1 794/10/1 795/11/1 796/12/1
f 797/9/1 798/10/1 799/11/1 800/12/1
f 801/9/1 802/10/1 803/11/1 804/12/1
f 805/9/1 806/10/1 807/11/1 808/12/1
f 809/9/1 810/10/1 811/11/1 812/12/1
f 813/9/1 814/10/1 815/11/1 816/12/1
f 817/9/1 818/10/1 819/11/1 820/12/1
f 821/9/1 822/10/1 823/11/1 824/12/1
f 825/5/1 826/6/1 827/7/1 828/8/1
f 829/1/1 830/2/1 831/3/1 832/4/1
f 833/1/1 834/2/1 835/3/1 836/4/1
f 837/5/1 838/6/1 839/7/1 840/8/1
f 841/9/1 842/10/1 843/11/1 844/12/1
f 845/9/1 846/10/1 847/11/1 848/12/1
f 849/9/1 850/10/1 851/11/1 852/12/1
f 853/9/1 854/10/1 855/11/1 856/12/1
f 857/9/1 858/10/1 859/11/1 860/12/1
f 861/9/1 862/10/1 863/11/1 864/12/1
f 865/9/1 866/10/1 867/11/1 868/12/1
f 869/9/1 870/10/1 871/11/1 872/12/1
f 873/9/1 874/10/1 875/11/1 876/12/1
f 877/9/1 878/10/1 879/11/1 880/12/1
f 881/9/1 882/10/1 883/11/1 884/12/1
f 885/9/1 886/10/1 887/11/1 888/12/1
f 889/5/1 890/6/1 891/7/1 892/8/1
f 893/1/1 894/2/1 895/3/1 896/4/1
f 897/1/1 898/2/1 899/3/1 900/4/1
f 901/5/1 902/6/1 903/7/1 904/8/1
f 905/5/1 906/6/1 907/7/1 908/8/1
f 909/5/1 910/6/1 911/7/1 912/8/1
f 913/5/1 914/6/1 915/7/1 916/8/1
f 917/5/1 918/6/1 919/7/1 920/8/1
f 921/5/1 922/6/1 923/7/1 924/8/1
f 925/5/1 926/6/1 927/7/1 928/8/1
f 929/5/1 930/6/1 931/7/1 932/8/1
f 933/5/1 934/6/1 935/7/1 936/8/1
f 937/5/1 938/6/1 939/7/1 940/8/1
f 941/5/1 942/6/1 943/7/1 944/8/1
f 945/5/1 946/6/1 947/7/1 948/8/1
f 949/5/1 950/6/1 951/7/1 952/8/1
f 953/5/1 954/6/1 955/7/1 956/8/1
f 957/1/1 958/2/1 959/3/1 960/4/1
f 961/1/1 962/2/1 963/3/1 964/4/1
f 965/1/1 966/2/1 967/3/1 968/4/1
f 969/1/1 970/2/1 971/3/1 972/4/1
f 973/1/1 974/2/1 975/3/1 976/4/1
f 977/1/1 978/2/1 979/3/1 980/4/1
f 981/1/1 982/2/1 983/3/1 984/4/1
f 985/1/1 986/2/1 987/3/1 988/4/1
f 989/1/1 990/2/1 991/3/1 992/4/1
f 993/1/1 994/2/1 995/3/1 996/4/1
f 997/1/1 998/2/1 999/3/1 1000/4/1
f 1001/1/1 1002/2/1 1003/3/1 1004/4/1
f 1005/1/1 1006/2/1 1007/3/1 1008/4/1
f 1009/1/1 1010/2/1 1011/3/1 1012/4/1
f 1013/1/1 1014/2/1 1015/3/1 1016/4/1
f 1017/1/1 1018/2/1 1019/3/1 1020/4/1
f 1021/1/1 1022/2/1 1023/3/1 1024/4/1

