# Tiled2Unity generated file. Do not modify by hand.
# Wavefront file for 'floor9_mesh_0001.obj'

# Vertices (Count = 36)
v 0 -3.2 0
v -3.2 -3.2 0
v -3.2 0 0
v 0 0 0
v -3.2 -3.2 0
v -6.4 -3.2 0
v -6.4 0 0
v -3.2 0 0
v -6.4 -3.2 0
v -9.6 -3.2 0
v -9.6 0 0
v -6.4 0 0
v 0 -6.4 0
v -3.2 -6.4 0
v -3.2 -3.2 0
v 0 -3.2 0
v -3.2 -6.4 0
v -6.4 -6.4 0
v -6.4 -3.2 0
v -3.2 -3.2 0
v -6.4 -6.4 0
v -9.6 -6.4 0
v -9.6 -3.2 0
v -6.4 -3.2 0
v 0 -9.6 0
v -3.2 -9.6 0
v -3.2 -6.4 0
v 0 -6.4 0
v -3.2 -9.6 0
v -6.4 -9.6 0
v -6.4 -6.4 0
v -3.2 -6.4 0
v -6.4 -9.6 0
v -9.6 -9.6 0
v -9.6 -6.4 0
v -6.4 -6.4 0

# Texture cooridinates (Count = 8)
vt 0.40625 0.875
vt 0.4375 0.875
vt 0.4375 0.90625
vt 0.40625 0.90625
vt 0.78125 0.875
vt 0.8125 0.875
vt 0.8125 0.90625
vt 0.78125 0.90625

# Normal
vn 0 0 -1

# Mesh description
g floor9_mesh_0001

# Faces
f 1/1/1 2/2/1 3/3/1 4/4/1
f 5/1/1 6/2/1 7/3/1 8/4/1
f 9/5/1 10/6/1 11/7/1 12/8/1
f 13/1/1 14/2/1 15/3/1 16/4/1
f 17/1/1 18/2/1 19/3/1 20/4/1
f 21/1/1 22/2/1 23/3/1 24/4/1
f 25/1/1 26/2/1 27/3/1 28/4/1
f 29/1/1 30/2/1 31/3/1 32/4/1
f 33/1/1 34/2/1 35/3/1 36/4/1

